<svg width="36" height="36" viewBox="0 0 36 36" fill="none" xmlns="http://www.w3.org/2000/svg">
<path d="M30.6394 31.5647C28.3106 33.2466 26.6906 34.4531 23.8725 35.1872C21.0769 35.9156 17.9128 35.5022 15.0862 35.2097C9.55968 34.6388 5.32405 32.1806 2.25843 27.5175C1.0828 25.7372 0.478116 23.7066 0.323428 21.5888C0.253116 20.6437 0.261553 19.6903 0.289678 18.7425C0.317803 17.8003 0.278428 16.7934 0.430303 15.8597C0.722803 14.0766 1.14749 12.2962 1.81124 10.6144C2.5003 8.85656 3.57468 7.58812 4.67437 6.08906C7.92562 1.65093 14.3044 0.334682 19.5047 0.410619C21.3356 0.435932 23.4619 0.599057 25.2141 1.14749C26.595 1.58062 27.9787 2.25562 29.1656 3.08531C30.3947 3.94031 31.4466 5.14968 32.1975 6.44343C32.9119 7.67531 33.5391 9.04781 33.9891 10.4006C34.0959 10.7212 34.1944 11.0419 34.29 11.3653C34.9369 13.6125 35.6287 16.2084 35.7131 18.5512C35.8931 23.3241 34.6978 28.6369 30.6394 31.5647V31.5647Z" fill="#B89278"/>
<path d="M24.0863 0.992812C24.0075 1.15031 23.9513 1.35 23.9203 1.5975C23.8416 2.25281 23.805 3.02625 23.9091 3.6675C23.9766 4.08937 24.0835 4.83469 24.5335 5.02031C24.9497 5.18906 25.3519 4.96406 25.726 4.81219C26.131 4.64625 26.5585 4.45219 26.9888 4.33969C27.6666 4.16531 28.305 3.70969 28.9406 3.41719C29.4778 3.1725 29.25 2.48344 28.8619 2.17406C28.5919 1.9575 28.2685 1.78312 27.9872 1.56375C27.6863 1.32469 27.301 1.12219 26.9522 0.964687C26.4375 0.73125 25.9172 0.635625 25.3688 0.520312C24.8625 0.413437 24.3394 0.489374 24.0863 0.992812V0.992812Z" fill="#855C52"/>
<path d="M30.9488 10.8422C30.8081 10.7494 30.6338 10.6903 30.4285 10.6791C30.1135 10.665 29.731 10.7269 29.4216 10.7662C28.9941 10.8197 28.4175 10.9434 28.0463 11.1431C27.7538 11.2978 27.675 11.4047 27.706 11.7028C27.7566 12.2569 27.7341 12.7716 27.8719 13.32C28.0406 14.0034 28.0913 15.2072 28.9547 15.3112C29.5003 15.3759 30.1781 15.345 30.7097 15.2409C31.0641 15.1734 31.6491 15.1087 31.9472 14.9062C32.1666 14.7572 32.1919 14.4956 32.1919 14.2397C32.1891 13.7109 31.95 13.2075 31.8206 12.7041C31.7025 12.2625 31.5281 11.8491 31.3735 11.4244C31.2863 11.1797 31.1485 10.9772 30.9488 10.8422V10.8422Z" fill="#855C52"/>
<path d="M15.0441 8.74687C14.5575 8.59781 13.9613 8.76656 13.4663 8.89312C12.6647 9.09844 11.7141 9.1575 10.9744 9.52875C10.5497 9.7425 10.5806 10.6059 10.5722 11.0222C10.561 11.4384 10.5328 11.8856 10.5694 12.2991C10.5975 12.5972 10.6031 12.9909 10.7044 13.2722C10.9013 13.815 11.8519 13.6041 12.3356 13.6069C13.2553 13.6125 14.1188 13.3847 14.9935 13.1287C15.2241 13.0641 15.5897 13.0106 15.7641 12.8109C15.8991 12.6534 15.9075 12.3047 15.9328 12.1106C15.9947 11.5875 16.0003 11.1066 15.9019 10.5975C15.8119 10.1278 15.8935 9.58781 15.6094 9.16875C15.4547 8.94375 15.2606 8.81437 15.0441 8.74687V8.74687Z" fill="#855C52"/>
<path d="M8.85376 21.0994C8.82001 21.0909 8.78907 21.0853 8.7497 21.0797C8.46001 21.0431 8.17032 20.9925 7.85532 20.9616C7.52626 20.9278 7.22813 20.8941 6.89345 20.8884C6.41251 20.8828 5.9597 20.7703 5.51814 21.0769C5.34939 21.1894 5.27345 21.3525 5.19751 21.5184C4.86282 22.23 4.21876 23.2678 4.78126 24.0272C5.36907 24.8231 8.6597 25.0003 9.05907 24.0216C9.2897 23.4647 9.45282 22.8122 9.4697 22.2075C9.47532 21.8419 9.25876 21.195 8.85376 21.0994V21.0994Z" fill="#855C52"/>
<path d="M21.7463 24.2944C22.005 24.8794 22.3172 25.3997 22.7531 25.8638C22.9191 26.0381 23.1188 26.2491 23.2959 26.4066C23.5406 26.6203 23.8697 26.6513 24.1819 26.6794C24.8034 26.7413 25.6022 26.7666 26.2266 26.6766C26.7356 26.6034 27.2897 26.0522 27.5006 25.5853C27.7566 25.0228 28.0884 24.6009 27.9956 23.9513C27.9366 23.5519 27.6019 23.2903 27.3938 22.9669C27.1491 22.5788 26.9381 22.2609 26.5641 21.9741C25.9959 21.5438 25.29 21.1613 24.5588 21.3075C23.7938 21.4594 23.1863 22.0697 22.6406 22.5816C22.1259 23.0625 21.3919 23.4984 21.7463 24.2944Z" fill="#855C52"/>
<path d="M14.9428 30.1416C14.2453 30.1809 13.5534 30.6534 13.0191 31.1034C12.5522 31.4944 12.1612 31.7222 12.4228 32.3972C12.8334 33.4491 13.6519 34.2816 14.5659 34.8581C15.0694 35.1759 15.4547 35.0156 15.9609 34.7119C16.6106 34.3237 18.6891 33.2184 17.7272 32.1722C17.4628 31.8825 17.2209 31.6125 16.9622 31.3228C16.6556 30.9797 16.3181 30.7153 15.9384 30.4397C15.6206 30.2034 15.2803 30.1191 14.9428 30.1416V30.1416Z" fill="#855C52"/>
<path d="M25.9397 31.86C25.8834 31.725 25.7766 31.5984 25.6106 31.4859C24.9272 31.0331 23.6728 31.3622 23.2734 32.0822C22.6997 33.1172 24.6403 33.4322 25.2703 33.0891C25.6641 32.8697 26.1338 32.3409 25.9397 31.86V31.86Z" fill="#855C52"/>
<path d="M28.0041 29.2978C28.62 29.8575 30.3638 29.9419 30.2288 28.7522C30.1613 28.1588 28.7972 28.0547 28.3697 28.17C27.9506 28.2853 27.6244 28.9547 28.0041 29.2978V29.2978Z" fill="#855C52"/>
<path d="M32.7966 25.2C33.0469 25.0959 33.2409 24.9131 33.3028 24.6347C33.3816 24.2691 33.165 23.9934 32.8078 23.9034C32.3691 23.7938 31.5366 23.7488 31.2159 24.1341C30.9291 24.48 31.0613 24.8372 31.3988 25.0819C31.7334 25.3209 32.3522 25.3856 32.7966 25.2Z" fill="#855C52"/>
<path d="M18.0394 28.3078C18.3741 28.3134 18.6891 28.2206 18.8466 27.9984C19.0969 27.6497 19.1419 26.8341 18.6553 26.6456C17.9719 26.3812 16.4194 26.6766 16.8384 27.7059C16.9819 28.0659 17.5331 28.2966 18.0394 28.3078Z" fill="#855C52"/>
<path d="M26.8228 18.8634C27.1491 18.855 27.6778 18.7903 27.7987 18.4331C27.8775 18.2081 27.8662 17.8453 27.7172 17.6484C27.3037 17.1141 25.4475 17.3109 25.6556 18.1941C25.7653 18.6806 26.2969 18.8775 26.8228 18.8634Z" fill="#855C52"/>
<path d="M31.3594 20.3344C32.1216 20.5509 33.2972 19.7325 32.9653 18.9647C32.5547 18.0028 30.4003 18.6694 30.8334 19.8366C30.9431 20.1122 31.1288 20.2697 31.3594 20.3344V20.3344Z" fill="#855C52"/>
<path d="M22.5872 12.7856C23.5688 12.6675 23.8106 11.6269 23.0344 11.2809C22.0894 10.8619 20.8491 12.0572 21.7069 12.6366C21.9291 12.7884 22.2919 12.8194 22.5872 12.7856Z" fill="#855C52"/>
</svg>
