<svg width="15" height="18" viewBox="0 0 15 18" fill="none" xmlns="http://www.w3.org/2000/svg">
<path d="M10.5 15.6667H2.16667V4.83332C2.16667 4.37499 1.79167 3.99999 1.33333 3.99999C0.875 3.99999 0.5 4.37499 0.5 4.83332V15.6667C0.5 16.5833 1.25 17.3333 2.16667 17.3333H10.5C10.9583 17.3333 11.3333 16.9583 11.3333 16.5C11.3333 16.0417 10.9583 15.6667 10.5 15.6667ZM14.6667 12.3333V2.33332C14.6667 1.41666 13.9167 0.666656 13 0.666656H5.5C4.58333 0.666656 3.83333 1.41666 3.83333 2.33332V12.3333C3.83333 13.25 4.58333 14 5.5 14H13C13.9167 14 14.6667 13.25 14.6667 12.3333ZM13 12.3333H5.5V2.33332H13V12.3333Z" fill="#808495"/>
</svg>
