<svg width="22" height="20" viewBox="0 0 22 20" fill="none" xmlns="http://www.w3.org/2000/svg">
<path d="M12.8513 14.5613C13.2388 14.4967 13.56 14.4506 13.8718 14.3768C16.168 13.8508 17.3491 12.4668 17.4908 10.1508C17.5664 8.98815 17.368 7.91781 16.5837 6.99511C16.5081 6.90283 16.5081 6.70907 16.5459 6.57989C16.716 5.8694 16.6688 5.17737 16.4609 4.48534C16.3759 4.20853 16.2152 4.07013 15.9601 4.1624C15.242 4.42075 14.5427 4.71602 13.8246 4.97438C13.5978 5.05742 13.3238 5.13124 13.0876 5.0851C11.6135 4.78984 10.1489 4.79906 8.6843 5.09433C8.46697 5.14047 8.21184 5.06665 7.99451 4.98361C7.32363 4.72525 6.67164 4.42075 6.00075 4.18085C5.62279 4.04244 5.33932 4.20853 5.32042 4.62375C5.29207 5.27887 5.30152 5.92477 5.28262 6.57989C5.28262 6.73675 5.28262 6.92129 5.19758 7.04124C3.00539 10.1323 4.70623 13.9246 8.56146 14.5059C8.6654 14.5244 8.77879 14.5336 8.86383 14.5428C8.70319 14.9581 8.55201 15.3733 8.37248 15.77C8.32523 15.8715 8.17405 15.9638 8.05121 16.0007C7.01181 16.3698 6.0858 16.0653 5.44326 15.1887C5.19758 14.8566 4.92356 14.5152 4.58339 14.2937C4.31882 14.1184 3.94085 14.0999 3.61013 14.0446C3.52509 14.0261 3.37391 14.1092 3.34556 14.1738C3.31721 14.2384 3.37391 14.4044 3.44005 14.4506C4.28102 14.9304 4.60229 15.7793 5.07474 16.5451C5.55665 17.3386 6.41651 17.4401 7.27638 17.4401C7.6071 17.4401 7.92837 17.394 8.32523 17.3571C8.32523 18.003 8.34413 18.612 8.31578 19.221C8.29688 19.6177 7.94727 19.8023 7.50316 19.6085C6.69054 19.2579 5.84957 18.9165 5.11254 18.4367C1.58803 16.1484 -0.112807 11.9408 0.803755 7.90858C1.71087 3.88558 5.07474 0.776064 9.23234 0.130169C14.4671 -0.69104 19.5319 2.51075 20.8642 7.49337C22.2059 12.4944 19.4563 17.717 14.5522 19.5162C13.7018 19.83 13.4655 19.6639 13.4655 18.7781C13.475 18.1783 13.475 17.5785 13.4844 16.9788C13.5033 16.1299 13.5033 15.2902 12.8513 14.5613Z" fill="#A3A8B8"/>
</svg>
