<svg width="19" height="20" viewBox="0 0 19 20" fill="none" xmlns="http://www.w3.org/2000/svg">
<path fill-rule="evenodd" clip-rule="evenodd" d="M8.82611 19.637C8.68561 19.6375 8.54507 19.6381 8.40451 19.6388C7.73077 19.6419 7.05655 19.6449 6.38357 19.6332C5.57165 19.619 4.75702 19.5933 3.96127 19.3885C2.58287 19.0358 1.50659 18.2478 0.791761 16.9477C0.411421 16.2535 0.206419 15.494 0.1201 14.7002C0.00283629 13.6378 0.00233275 12.5687 0.00182921 11.5008C0.00176817 11.3648 0.00170714 11.2289 0.00140196 11.093C-0.00128358 9.77016 -0.00128358 8.44729 0.0121899 7.12441C0.0202923 6.28237 0.0337811 5.43746 0.168654 4.60104C0.419508 3.07626 1.09927 1.8359 2.3428 0.979575C3.05491 0.490257 3.85068 0.205772 4.69227 0.137534C5.67685 0.0578835 6.66681 0.0237038 7.65408 0.00948261C9.09183 -0.00760724 10.5323 0.000937685 11.97 0.0151589C12.7927 0.0237038 13.6154 0.0407936 14.4274 0.211448C15.9218 0.524436 17.0952 1.32949 17.8558 2.74056C18.2658 3.50008 18.4682 4.33651 18.5383 5.20418C18.6354 6.39468 18.6342 7.58987 18.6329 8.78548L18.6327 9.1841C18.6327 10.413 18.6327 11.6392 18.6138 12.8682C18.6003 13.7188 18.5841 14.5751 18.3926 15.4115C17.9206 17.474 16.7229 18.8025 14.7754 19.3601C14.0902 19.5564 13.3862 19.6048 12.6794 19.619C12.2525 19.6276 11.8257 19.6351 11.3989 19.6419C10.9863 19.6485 10.5737 19.6546 10.1615 19.6605C9.88211 19.6646 9.60287 19.6687 9.32379 19.673V19.636C9.15796 19.636 8.99206 19.6364 8.82611 19.637ZM9.29681 17.9007V17.8637C9.45953 17.8637 9.62225 17.864 9.78497 17.8645L10.1925 17.8659C10.865 17.8683 11.5375 17.8707 12.2101 17.8609C12.8817 17.8523 13.5588 17.841 14.2197 17.6816C15.5711 17.3545 16.4208 16.4896 16.7472 15.0615C16.9225 14.2914 16.9303 13.5025 16.938 12.7182L16.9387 12.6463C16.9576 11.0332 16.9522 9.42306 16.9495 7.81002L16.9492 7.70217V7.70144C16.9468 6.78152 16.9444 5.85946 16.8146 4.94527C16.5907 3.355 15.6547 2.30245 14.1684 1.96676C13.4849 1.81283 12.7868 1.80239 12.0925 1.79201L11.9808 1.79037C10.9145 1.77407 9.84643 1.77492 8.77951 1.77578C8.54278 1.77596 8.30609 1.77615 8.06949 1.77615L7.83148 1.77602C6.84225 1.77523 5.85129 1.77444 4.86491 1.89559C4.27417 1.96676 3.7104 2.14315 3.21138 2.49874C2.448 3.04494 2.02449 3.82156 1.84917 4.76321C1.71429 5.48012 1.6981 6.20553 1.6954 6.92812C1.68732 9.00771 1.6981 11.0902 1.70889 13.1726C1.71159 13.7842 1.74127 14.3958 1.87074 14.9961C2.1324 16.2223 2.78787 17.0956 3.92351 17.5365C4.51425 17.7641 5.13196 17.8267 5.75238 17.8438C6.35205 17.8539 6.95312 17.8633 7.55453 17.8727L8.397 17.8859C8.69702 17.8907 8.99701 17.8956 9.29681 17.9007ZM14.0991 9.82156C14.1018 12.5868 11.9654 14.8541 9.37317 14.8769C6.71078 14.8996 4.52855 12.6266 4.53125 9.83297C4.53665 7.05355 6.66495 4.78902 9.28146 4.78615C11.9546 4.77767 14.0964 7.01937 14.0991 9.82156ZM9.31653 13.0988C11.024 13.1159 12.451 11.6081 12.424 9.75899C12.3997 8.00368 11.0024 6.55001 9.29495 6.55282C7.57937 6.55569 6.20907 8.02932 6.21176 9.87276C6.21716 11.6451 7.61984 13.1045 9.31653 13.0988ZM14.2928 3.39846C13.6859 3.39565 13.176 3.93044 13.1733 4.57052C13.1733 5.22201 13.6697 5.75686 14.2739 5.75686C14.9105 5.75967 15.4095 5.23336 15.4068 4.55917C15.4068 3.93044 14.8997 3.40133 14.2928 3.39846Z" fill="#A3A8B8"/>
</svg>
