<svg width="26" height="18" viewBox="0 0 26 18" fill="none" xmlns="http://www.w3.org/2000/svg">
<path d="M12.8276 17.8757C11.0323 17.845 9.2319 17.845 7.43665 17.7734C6.06686 17.7172 4.69189 17.6251 3.33767 17.4308C1.63581 17.1853 0.546208 16.0449 0.333476 14.3471C0.17263 13.0227 0.058481 11.6879 0.0221609 10.3532C-0.0193478 8.93159 0.0117837 7.50995 0.0792353 6.0883C0.125933 5.13713 0.271213 4.19107 0.411305 3.25012C0.634414 1.74666 2.0509 0.723891 3.25984 0.57559C4.56736 0.417061 5.89045 0.284101 7.20835 0.253418C10.1555 0.186939 13.1026 0.156256 16.0445 0.181825C17.8398 0.197166 19.635 0.325012 21.4251 0.422175C21.8972 0.447744 22.3694 0.514224 22.8364 0.606273C24.284 0.892648 25.1609 1.77223 25.4722 3.18364C25.7627 4.49279 25.8406 5.8275 25.908 7.16221C26.017 9.37138 25.9495 11.5703 25.6745 13.7642C25.5863 14.4443 25.5085 15.1449 25.1401 15.7483C24.5123 16.7711 23.568 17.3592 22.3746 17.4666C20.8024 17.6098 19.2251 17.7274 17.6478 17.7785C16.0445 17.8297 14.4309 17.7888 12.8276 17.7888C12.8276 17.8245 12.8276 17.8501 12.8276 17.8757ZM10.4875 12.9511C12.6667 11.6266 14.8096 10.3277 16.994 9.00319C14.7993 7.67359 12.6564 6.37468 10.4875 5.05531C10.4875 7.70427 10.4875 10.3021 10.4875 12.9511Z" fill="#A3A8B8"/>
</svg>
