<svg width="862" height="862" viewBox="0 0 862 862" fill="none" xmlns="http://www.w3.org/2000/svg">
<rect width="862" height="862" fill="white"/>
<rect x="267" y="356" width="328" height="150" rx="30" stroke="#D6D6D8" stroke-width="4"/>
<path d="M338.632 452.768C335.133 452.768 331.997 451.915 329.224 450.208C326.493 448.459 324.317 445.963 322.696 442.72C321.117 439.477 320.328 435.573 320.328 431.008C320.328 426.485 321.139 422.603 322.76 419.36C324.381 416.117 326.6 413.621 329.416 411.872C332.232 410.123 335.411 409.248 338.952 409.248C341.512 409.248 343.773 409.781 345.736 410.848C347.699 411.872 349.277 413.067 350.472 414.432L347.592 417.888C346.483 416.693 345.224 415.733 343.816 415.008C342.408 414.283 340.808 413.92 339.016 413.92C336.371 413.92 334.045 414.624 332.04 416.032C330.077 417.397 328.541 419.339 327.432 421.856C326.365 424.373 325.832 427.381 325.832 430.88C325.832 434.379 326.365 437.429 327.432 440.032C328.499 442.592 329.992 444.576 331.912 445.984C333.875 447.392 336.179 448.096 338.824 448.096C340.829 448.096 342.621 447.669 344.2 446.816C345.779 445.963 347.229 444.811 348.552 443.36L351.496 446.688C349.832 448.608 347.955 450.101 345.864 451.168C343.773 452.235 341.363 452.768 338.632 452.768ZM364.379 452.768C362.416 452.768 360.987 452.171 360.091 450.976C359.237 449.739 358.811 447.989 358.811 445.728V406.432H364.059V446.112C364.059 446.923 364.208 447.52 364.507 447.904C364.805 448.245 365.147 448.416 365.531 448.416C365.701 448.416 365.851 448.416 365.979 448.416C366.149 448.373 366.384 448.331 366.683 448.288L367.387 452.256C367.045 452.427 366.64 452.555 366.171 452.64C365.701 452.725 365.104 452.768 364.379 452.768ZM375.123 452V420.896H380.371V452H375.123ZM377.811 414.496C376.787 414.496 375.934 414.197 375.251 413.6C374.611 412.96 374.291 412.107 374.291 411.04C374.291 410.016 374.611 409.184 375.251 408.544C375.934 407.904 376.787 407.584 377.811 407.584C378.835 407.584 379.667 407.904 380.307 408.544C380.99 409.184 381.331 410.016 381.331 411.04C381.331 412.107 380.99 412.96 380.307 413.6C379.667 414.197 378.835 414.496 377.811 414.496ZM403.161 452.768C400.43 452.768 397.956 452.128 395.737 450.848C393.518 449.568 391.769 447.712 390.489 445.28C389.209 442.848 388.569 439.925 388.569 436.512C388.569 433.013 389.252 430.048 390.617 427.616C392.025 425.184 393.86 423.328 396.121 422.048C398.425 420.768 400.9 420.128 403.545 420.128C405.593 420.128 407.342 420.491 408.793 421.216C410.286 421.941 411.566 422.795 412.633 423.776L409.945 427.232C409.049 426.421 408.089 425.76 407.065 425.248C406.084 424.736 404.974 424.48 403.737 424.48C401.86 424.48 400.174 424.992 398.681 426.016C397.23 426.997 396.078 428.405 395.225 430.24C394.414 432.032 394.009 434.123 394.009 436.512C394.009 440.053 394.884 442.933 396.633 445.152C398.425 447.328 400.75 448.416 403.609 448.416C405.06 448.416 406.404 448.117 407.641 447.52C408.878 446.88 409.966 446.133 410.905 445.28L413.209 448.8C411.801 450.037 410.244 451.019 408.537 451.744C406.83 452.427 405.038 452.768 403.161 452.768ZM420.061 452V406.432H425.245V437.28H425.437L438.685 420.896H444.509L434.077 433.376L445.917 452H440.157L431.069 437.024L425.245 443.808V452H420.061ZM464.561 452V420.896H468.913L469.361 425.376H469.553C470.918 423.883 472.411 422.645 474.033 421.664C475.654 420.64 477.382 420.128 479.217 420.128C481.606 420.128 483.462 420.661 484.785 421.728C486.15 422.752 487.153 424.203 487.793 426.08C489.414 424.331 491.057 422.901 492.721 421.792C494.385 420.683 496.155 420.128 498.033 420.128C501.233 420.128 503.601 421.173 505.137 423.264C506.715 425.312 507.505 428.32 507.505 432.288V452H502.257V432.992C502.257 430.091 501.787 427.979 500.849 426.656C499.91 425.333 498.459 424.672 496.497 424.672C494.193 424.672 491.59 426.272 488.689 429.472V452H483.441V432.992C483.441 430.091 482.971 427.979 482.033 426.656C481.094 425.333 479.622 424.672 477.617 424.672C475.313 424.672 472.71 426.272 469.809 429.472V452H464.561ZM530.231 452.768C527.458 452.768 524.94 452.128 522.679 450.848C520.418 449.525 518.626 447.648 517.303 445.216C515.98 442.784 515.319 439.883 515.319 436.512C515.319 433.099 515.98 430.176 517.303 427.744C518.668 425.312 520.418 423.435 522.551 422.112C524.684 420.789 526.924 420.128 529.271 420.128C533.239 420.128 536.29 421.451 538.423 424.096C540.599 426.741 541.687 430.283 541.687 434.72C541.687 435.275 541.666 435.829 541.623 436.384C541.623 436.896 541.58 437.344 541.495 437.728H520.503C520.716 441.013 521.74 443.637 523.575 445.6C525.452 447.563 527.884 448.544 530.871 448.544C532.364 448.544 533.73 448.331 534.967 447.904C536.247 447.435 537.463 446.837 538.615 446.112L540.471 449.568C539.148 450.421 537.634 451.168 535.927 451.808C534.263 452.448 532.364 452.768 530.231 452.768ZM520.439 433.952H537.079C537.079 430.795 536.396 428.405 535.031 426.784C533.708 425.12 531.831 424.288 529.399 424.288C527.223 424.288 525.26 425.141 523.511 426.848C521.804 428.512 520.78 430.88 520.439 433.952Z" fill="#262730"/>
<g filter="url(#filter0_d_18_54)">
<path d="M484.865 495.303L431 441V515.181L448.031 499.025L462.165 532.971C463.012 535.007 465.347 535.972 467.385 535.13L472.178 533.149C474.229 532.301 475.197 529.946 474.336 527.9L460.607 495.303H484.865Z" fill="#0E1117" stroke="white" stroke-width="3"/>
</g>
<defs>
<filter id="filter0_d_18_54" x="421.5" y="433.358" width="74.9658" height="115.577" filterUnits="userSpaceOnUse" color-interpolation-filters="sRGB">
<feFlood flood-opacity="0" result="BackgroundImageFix"/>
<feColorMatrix in="SourceAlpha" type="matrix" values="0 0 0 0 0 0 0 0 0 0 0 0 0 0 0 0 0 0 127 0" result="hardAlpha"/>
<feOffset dy="4"/>
<feGaussianBlur stdDeviation="4"/>
<feComposite in2="hardAlpha" operator="out"/>
<feColorMatrix type="matrix" values="0 0 0 0 0 0 0 0 0 0 0 0 0 0 0 0 0 0 0.25 0"/>
<feBlend mode="normal" in2="BackgroundImageFix" result="effect1_dropShadow_18_54"/>
<feBlend mode="normal" in="SourceGraphic" in2="effect1_dropShadow_18_54" result="shape"/>
</filter>
</defs>
</svg>
