<svg width="862" height="816" viewBox="0 0 862 816" fill="none" xmlns="http://www.w3.org/2000/svg">
<rect width="862" height="816" fill="white"/>
<path fill-rule="evenodd" clip-rule="evenodd" d="M815.917 370.858H813.82V373.407H815.917C816.897 373.407 817.523 372.969 817.523 372.158C817.523 371.296 816.936 370.858 815.917 370.858ZM811.235 368.503H815.973C818.552 368.503 820.264 369.893 820.264 372.068C820.264 373.419 819.582 374.424 818.552 375.054L820.404 377.705V378.233H817.719L815.917 375.684H813.82V378.233H811.235V368.503ZM824.449 373.548C824.449 368.349 820.941 364.397 815.565 364.397C810.295 364.397 806.787 368.156 806.787 373.548C806.787 378.696 810.295 382.699 815.565 382.699C820.941 382.699 824.449 378.748 824.449 373.548ZM826.653 373.548C826.653 379.662 822.508 384.771 815.582 384.771C808.706 384.771 804.6 379.623 804.6 373.548C804.6 367.435 808.695 362.325 815.582 362.325C822.508 362.338 826.653 367.435 826.653 373.548ZM205.918 395.312L184.541 407.513L205.918 419.675C211.318 422.751 213.157 429.547 210.039 434.875C206.922 440.178 200.036 441.992 194.662 438.929L156.369 417.114C153.813 415.647 152.039 413.356 151.257 410.769C150.878 409.585 150.709 408.363 150.748 407.153C150.774 406.277 150.904 405.402 151.139 404.527C151.909 401.811 153.695 399.379 156.356 397.847L194.636 376.058C200.01 372.995 206.909 374.81 210.013 380.138C213.157 385.453 211.318 392.236 205.918 395.312ZM185.676 454.425L147.409 432.648C145.348 431.465 143.079 431.014 140.888 431.194C135.045 431.606 130.467 436.42 130.467 442.276V485.88C130.467 492.032 135.488 497 141.722 497C147.957 497 152.991 492.019 152.991 485.88V461.491L174.42 473.692C179.807 476.781 186.693 474.953 189.797 469.638C192.902 464.322 191.076 457.501 185.676 454.425ZM141.514 411.773L125.602 427.449C125.145 427.912 124.272 428.285 123.606 428.285H122.458H120.111H118.937C118.298 428.285 117.398 427.912 116.941 427.449L101.03 411.773C100.573 411.335 100.208 410.447 100.208 409.817V408.658V406.342V405.196C100.208 404.553 100.573 403.665 101.03 403.214L116.928 387.538C117.385 387.075 118.285 386.715 118.924 386.715H120.098H122.446H123.606C124.258 386.715 125.145 387.075 125.602 387.538L141.514 403.214C141.97 403.665 142.335 404.553 142.335 405.196V406.342V408.658V409.817C142.335 410.434 141.97 411.322 141.514 411.773ZM128.797 407.423C128.797 406.792 128.406 405.904 127.949 405.441L123.345 400.911C122.889 400.46 122.002 400.087 121.35 400.087H121.167C120.528 400.087 119.628 400.46 119.185 400.911L114.581 405.441C114.124 405.904 113.772 406.792 113.772 407.423V407.603C113.772 408.233 114.124 409.109 114.581 409.559L119.185 414.102C119.641 414.553 120.528 414.926 121.167 414.926H121.35C121.989 414.926 122.889 414.553 123.345 414.102L127.949 409.559C128.406 409.109 128.797 408.233 128.797 407.603V407.423ZM56.8675 360.549L95.1471 382.352C97.2081 383.522 99.4906 383.986 101.682 383.806C107.512 383.381 112.103 378.567 112.103 372.712V329.107C112.103 322.981 107.055 318 100.847 318C94.6129 318 89.5785 322.981 89.5785 329.107V353.509L68.1362 341.282C62.7627 338.206 55.8762 340.034 52.759 345.349C49.6418 350.691 51.4809 357.473 56.8675 360.549ZM140.888 383.806C143.079 383.986 145.361 383.522 147.409 382.352L185.676 360.549C191.063 357.473 192.902 350.678 189.797 345.349C186.693 340.034 179.807 338.219 174.42 341.282L152.991 353.509V329.107C152.991 322.981 147.957 318 141.722 318C135.488 318 130.467 322.981 130.467 329.107V372.712C130.453 378.567 135.045 383.381 140.888 383.806ZM101.682 431.194C99.4778 431.014 97.1952 431.465 95.1471 432.648L56.8675 454.425C51.4809 457.501 49.6418 464.322 52.746 469.638C55.8632 474.94 62.7496 476.768 68.1232 473.692L89.565 461.491V485.88C89.565 492.032 94.5994 497 100.834 497C107.042 497 112.09 492.019 112.09 485.88V442.276C112.103 436.42 107.512 431.606 101.682 431.194ZM91.2999 410.769C91.678 409.585 91.8347 408.363 91.8084 407.153C91.7692 406.277 91.6518 405.402 91.4039 404.527C90.6476 401.811 88.8478 399.379 86.1611 397.847L47.9072 376.058C42.5076 372.995 35.6211 374.81 32.53 380.138C29.3998 385.453 31.2518 392.236 36.6515 395.312L58.0283 407.513L36.6384 419.675C31.2388 422.751 29.3998 429.547 32.517 434.875C35.6211 440.178 42.4945 441.992 47.8942 438.929L86.148 417.114C88.7432 415.66 90.4915 413.356 91.2999 410.769ZM566.089 345.607H565.032C564.889 345.607 564.758 345.62 564.615 345.633C564.484 345.62 564.354 345.607 564.21 345.607C561.497 345.607 558.85 345.916 556.385 346.726C553.959 347.524 551.716 348.837 549.981 350.845L549.968 350.832V350.845V350.858C548.168 352.827 546.994 355.182 546.264 357.859C545.547 360.549 545.247 363.574 545.22 367.023V373.69H537.773C535.191 373.703 533.13 375.749 533.13 378.22C533.117 379.546 533.638 380.769 534.486 381.656C535.347 382.519 536.521 383.098 537.825 383.162H545.22V437.397L545.208 437.526C545.208 438.8 545.742 439.972 546.616 440.809C547.477 441.632 548.69 442.121 550.007 442.121C552.511 442.108 554.572 440.088 554.585 437.513V383.136H562.593C563.884 383.072 565.071 382.532 565.919 381.669C566.793 380.807 567.327 379.597 567.327 378.284V378.104C567.302 375.659 565.228 373.664 562.645 373.664H554.585V367.023C554.637 364.089 554.95 361.888 555.393 360.292C555.824 358.683 556.424 357.679 556.946 357.048C557.467 356.495 558.146 356.032 559.241 355.658C560.35 355.298 561.889 355.079 563.963 355.079H564.21C564.328 355.079 564.458 355.054 564.575 355.054C564.719 355.054 564.862 355.079 565.006 355.079H565.606H566.05C568.71 355.079 570.849 352.956 570.849 350.343C570.888 347.718 568.749 345.607 566.089 345.607ZM731.207 380.781C732.147 379.867 732.656 378.645 732.656 377.435C732.656 376.251 732.147 375.054 731.196 374.191H731.207C731.196 374.166 731.179 374.166 731.179 374.166C731.179 374.14 731.157 374.14 731.157 374.14H731.14C730.228 373.252 729.07 372.776 727.856 372.776C726.642 372.776 725.445 373.278 724.544 374.166L687.683 409.611V350.047C687.683 347.486 685.506 345.388 682.832 345.388C681.54 345.388 680.365 345.916 679.52 346.765C678.687 347.602 678.122 348.773 678.122 350.047V437.256C678.122 438.53 678.687 439.702 679.52 440.525C680.365 441.349 681.54 441.902 682.832 441.902C685.506 441.902 687.683 439.83 687.683 437.269V422.867L699.683 411.039L724.152 440.165C724.606 440.834 725.232 441.297 725.859 441.542C726.564 441.799 727.257 441.902 727.867 441.902C728.718 441.902 729.903 441.722 730.944 440.911L731 440.873L731.062 440.809C732.041 439.856 732.606 438.582 732.606 437.295C732.606 436.201 732.197 435.094 731.442 434.206V434.193L706.53 404.321L731.179 380.794H731.207V380.781ZM664.65 374.784C665.523 375.62 666.06 376.817 666.06 378.117V437.256C666.06 438.53 665.512 439.702 664.678 440.525C663.828 441.349 662.653 441.902 661.35 441.902C660.063 441.902 658.86 441.349 658.027 440.525C657.176 439.702 656.628 438.53 656.628 437.256V431.49C650.698 437.81 642.362 441.902 633.143 441.902C623.957 441.902 615.705 438.016 609.78 431.774C603.845 425.57 600.208 417.024 600.208 407.693C600.208 398.362 603.845 389.804 609.78 383.6C615.705 377.37 623.957 373.497 633.143 373.497C642.362 373.497 650.698 377.461 656.628 383.755V378.13C656.628 376.83 657.165 375.633 658.038 374.797C658.91 373.973 660.085 373.497 661.35 373.497C662.603 373.497 663.789 373.973 664.65 374.784ZM656.628 407.693C656.628 400.705 653.954 394.437 649.68 389.907C645.411 385.402 639.543 382.66 633.143 382.648C626.787 382.648 620.947 385.402 616.628 389.907C612.348 394.437 609.635 400.692 609.635 407.693C609.635 414.682 612.348 420.898 616.628 425.39C620.919 429.882 626.776 432.584 633.143 432.584C639.571 432.584 645.428 429.882 649.691 425.403C653.954 420.911 656.628 414.682 656.628 407.693ZM277.248 406.033C273.439 404.257 269.123 402.957 264.818 401.541C260.853 400.215 256.836 399.096 253.967 397.616C252.519 396.856 251.397 396.046 250.667 395.145C249.924 394.243 249.558 393.317 249.545 392.069C249.558 390.357 250.054 388.98 250.902 387.744C252.193 385.917 254.358 384.488 256.719 383.574C259.053 382.648 261.584 382.21 263.397 382.21C268.744 382.223 272.122 383.973 274.717 385.801C275.996 386.715 277.078 387.654 278.109 388.414C278.63 388.812 279.126 389.173 279.7 389.443C280.235 389.7 280.874 389.919 281.565 389.919C282.008 389.919 282.439 389.842 282.843 389.674C283.274 389.507 283.638 389.263 283.991 388.967C284.33 388.645 284.63 388.259 284.838 387.834C285.021 387.397 285.112 386.933 285.112 386.495C285.112 385.672 284.852 384.9 284.46 384.166C283.743 382.892 282.648 381.669 281.252 380.434C279.178 378.606 276.439 376.881 273.492 375.569C270.531 374.256 267.361 373.368 264.349 373.368C257.345 373.368 251.502 374.938 247.263 377.821C245.046 379.327 243.102 380.974 241.733 383.252C240.337 385.531 239.555 388.349 239.45 392.017C239.45 392.184 239.45 392.339 239.45 392.506C239.437 396.059 240.598 398.992 242.424 401.297C245.189 404.759 249.298 406.818 253.328 408.285C257.345 409.752 261.375 410.627 263.905 411.464C267.479 412.635 271.274 413.909 274.052 415.595C275.435 416.458 276.543 417.384 277.3 418.401C278.03 419.444 278.448 420.524 278.474 421.889V421.992C278.461 423.974 277.874 425.519 276.895 426.844C275.422 428.826 272.983 430.268 270.387 431.194C267.805 432.095 265.105 432.468 263.383 432.468C257.28 432.468 253.197 431.014 250.223 429.56C248.737 428.826 247.537 428.105 246.441 427.488C245.906 427.192 245.398 426.922 244.863 426.715C244.342 426.509 243.793 426.368 243.167 426.368C242.789 426.368 242.372 426.432 241.981 426.586C241.589 426.754 241.237 426.973 240.937 427.256C240.533 427.642 240.168 428.092 239.92 428.595C239.672 429.096 239.555 429.637 239.555 430.19C239.555 431.104 239.894 431.928 240.39 432.687C241.159 433.781 242.293 434.747 243.702 435.724C245.163 436.69 246.898 437.63 248.893 438.569C253.341 440.641 259.027 441.722 263.357 441.786H263.37C270.1 441.786 275.905 440.255 280.795 436.703V436.69H280.808C285.595 433.138 288.569 427.848 288.569 421.876C288.569 418.594 287.786 415.814 286.43 413.536C284.369 410.1 281.03 407.822 277.248 406.033ZM585.535 345.388C584.244 345.388 583.057 345.916 582.209 346.765C581.361 347.602 580.814 348.773 580.814 350.047V437.256C580.814 438.53 581.348 439.702 582.209 440.525C583.057 441.349 584.244 441.902 585.535 441.902C588.209 441.902 590.374 439.83 590.387 437.269V350.047C590.374 347.473 588.222 345.388 585.535 345.388ZM802.552 405.492V405.956C802.552 407.243 801.965 408.401 801.076 409.16C800.203 409.933 799.056 410.332 797.814 410.344H744.913C746.256 423.086 756.578 432.494 768.874 432.584H771.99C776.063 432.597 780.024 431.207 783.52 428.916C787.017 426.638 790.043 423.459 792.169 419.958C792.611 419.212 793.238 418.646 793.915 418.298C794.62 417.925 795.364 417.745 796.119 417.745C796.952 417.745 797.792 417.964 798.519 418.388L798.575 418.414L798.625 418.453C799.957 419.418 800.779 420.872 800.779 422.481C800.779 423.305 800.555 424.129 800.113 424.888L800.096 424.913L800.085 424.926C797.126 429.56 793.092 433.794 788.309 436.857C783.509 439.933 777.954 441.876 771.99 441.876H768.824C759.537 441.812 751.151 437.938 745.098 431.748C739.062 425.583 735.341 417.114 735.341 407.796C735.341 398.323 739.084 389.739 745.176 383.522C751.269 377.319 759.716 373.471 769.081 373.471C778.015 373.471 786.049 376.984 792.001 382.725C797.948 388.465 801.831 396.445 802.525 405.415L802.552 405.492ZM792.22 401.091C789.534 390.357 779.985 382.712 769.081 382.725C757.904 382.725 748.488 390.202 745.568 401.091H792.22ZM327.514 373.613C320.132 373.613 313.389 376.457 308.367 380.987V378.284C308.354 377.036 307.898 375.878 307.063 375.028C306.268 374.191 305.081 373.625 303.789 373.625C302.446 373.625 301.233 374.153 300.398 375.015C299.563 375.865 299.068 377.036 299.068 378.284V438.659L299.263 438.852L299.277 438.878C299.329 439.071 299.459 439.303 299.59 439.509C300.229 440.628 301.285 441.478 302.589 441.851L302.772 441.902H303.789C304.467 441.902 305.146 441.761 305.798 441.465C306.333 441.207 306.841 440.796 307.246 440.268H307.258C307.311 440.216 307.324 440.152 307.376 440.1C307.402 440.088 307.415 440.075 307.428 440.049C307.676 439.727 307.884 439.406 308.015 439.096C308.146 438.736 308.237 438.389 308.302 438.131L308.341 437.964V401.708C308.472 396.522 310.637 391.837 314.106 388.426C317.549 385.015 322.27 382.918 327.488 382.918C332.796 382.918 337.53 385.028 340.961 388.426C344.404 391.824 346.491 396.496 346.491 401.657V437.256C346.491 438.556 347.051 439.766 347.9 440.589C348.773 441.413 349.96 441.902 351.199 441.902C352.464 441.902 353.638 441.413 354.512 440.589C355.386 439.766 355.92 438.556 355.92 437.256V401.657C355.959 386.302 343.243 373.638 327.514 373.613ZM421.264 383.639C427.224 389.868 430.837 398.414 430.85 407.693C430.837 416.96 427.211 425.506 421.264 431.735C415.355 437.964 407.1 441.889 397.917 441.889C388.814 441.889 380.545 437.951 374.611 431.735C368.676 425.506 364.998 416.96 364.998 407.693C364.998 398.426 368.676 389.868 374.611 383.639C380.545 377.422 388.814 373.484 397.917 373.484C407.1 373.497 415.355 377.422 421.264 383.639ZM421.394 407.693C421.394 400.769 418.695 394.488 414.404 389.958C410.086 385.415 404.256 382.648 397.905 382.648C391.566 382.648 385.71 385.428 381.406 389.958C377.115 394.488 374.415 400.769 374.415 407.693C374.415 414.617 377.115 420.834 381.406 425.338C385.71 429.855 391.566 432.584 397.905 432.584C404.243 432.584 410.112 429.855 414.404 425.338C418.695 420.834 421.394 414.617 421.394 407.693ZM523.178 374.011L523.152 373.998C523.152 373.998 523.139 373.986 523.126 373.986C522.592 373.754 521.991 373.625 521.431 373.625C520.505 373.638 519.618 373.909 518.848 374.385C518.066 374.874 517.401 375.594 517.01 376.496V376.521L498.997 425.145L485.12 392.557L485.094 392.545C484.703 391.631 484.011 390.936 483.216 390.434C482.42 389.945 481.495 389.674 480.516 389.674C479.577 389.674 478.69 389.971 477.921 390.447C477.151 390.936 476.46 391.631 476.069 392.545L476.056 392.557L462.152 425.171L444.062 376.56H444.049C443.736 375.62 443.084 374.887 442.328 374.398C441.545 373.909 440.645 373.638 439.706 373.625C439.106 373.625 438.506 373.741 437.932 373.986H437.906L437.88 374.011C436.198 374.784 435.167 376.457 435.154 378.272C435.154 378.838 435.271 379.404 435.493 379.97L457.757 438.968V438.993C457.926 439.431 458.174 439.869 458.54 440.293C458.8 440.602 459.178 440.86 459.583 441.066C459.661 441.13 459.765 441.233 459.948 441.336C460.131 441.452 460.378 441.529 460.613 441.568C461.005 441.696 461.539 441.889 462.244 441.889C463.144 441.889 463.978 441.568 464.735 441.092C465.439 440.628 466.065 439.933 466.404 439.045L466.456 439.006L480.542 405.788L494.641 438.865H494.654C494.98 439.753 495.554 440.435 496.206 440.924C496.911 441.439 497.693 441.761 498.515 441.889H499.102C499.662 441.889 500.211 441.786 500.667 441.606C501.149 441.426 501.541 441.182 501.867 440.937C502.623 440.371 503.21 439.586 503.576 438.71V438.685L525.695 379.945C525.918 379.379 526.022 378.825 526.022 378.246C526.022 376.47 524.952 374.758 523.178 374.011Z" fill="#29B5E8"/>
</svg>
