<svg width="862" height="862" viewBox="0 0 862 862" fill="none" xmlns="http://www.w3.org/2000/svg">
<rect width="862" height="862" fill="white"/>
<rect x="197" y="356" width="468" height="150" rx="30" stroke="#D6D6D8" stroke-width="4"/>
<path d="M252.76 452V410.016H263.256C269.741 410.016 274.669 411.829 278.04 415.456C281.411 419.04 283.096 424.16 283.096 430.816C283.096 437.515 281.411 442.72 278.04 446.432C274.712 450.144 269.869 452 263.512 452H252.76ZM258.072 447.648H262.872C267.779 447.648 271.448 446.176 273.88 443.232C276.355 440.245 277.592 436.107 277.592 430.816C277.592 425.525 276.355 421.472 273.88 418.656C271.448 415.797 267.779 414.368 262.872 414.368H258.072V447.648ZM303.719 452.768C301.202 452.768 298.834 452.128 296.615 450.848C294.439 449.568 292.668 447.712 291.303 445.28C289.98 442.848 289.319 439.925 289.319 436.512C289.319 433.013 289.98 430.048 291.303 427.616C292.668 425.184 294.439 423.328 296.615 422.048C298.834 420.768 301.202 420.128 303.719 420.128C306.279 420.128 308.647 420.768 310.823 422.048C312.999 423.328 314.748 425.184 316.071 427.616C317.436 430.048 318.119 433.013 318.119 436.512C318.119 439.925 317.436 442.848 316.071 445.28C314.748 447.712 312.999 449.568 310.823 450.848C308.647 452.128 306.279 452.768 303.719 452.768ZM303.719 448.416C306.407 448.416 308.562 447.328 310.183 445.152C311.847 442.933 312.679 440.053 312.679 436.512C312.679 432.928 311.847 430.027 310.183 427.808C308.562 425.589 306.407 424.48 303.719 424.48C301.074 424.48 298.919 425.589 297.255 427.808C295.591 430.027 294.759 432.928 294.759 436.512C294.759 440.053 295.591 442.933 297.255 445.152C298.919 447.328 301.074 448.416 303.719 448.416ZM330.989 452L322.349 420.896H327.725L332.333 438.88C332.674 440.331 332.994 441.781 333.293 443.232C333.591 444.64 333.89 446.069 334.189 447.52H334.445C334.786 446.069 335.127 444.64 335.469 443.232C335.81 441.781 336.173 440.331 336.557 438.88L341.357 420.896H346.477L351.341 438.88C351.725 440.331 352.087 441.781 352.429 443.232C352.813 444.64 353.175 446.069 353.517 447.52H353.773C354.114 446.069 354.434 444.64 354.733 443.232C355.074 441.781 355.394 440.331 355.693 438.88L360.237 420.896H365.229L356.909 452H350.509L346.029 435.296C345.645 433.803 345.282 432.331 344.941 430.88C344.642 429.429 344.301 427.915 343.917 426.336H343.661C343.319 427.915 342.978 429.451 342.637 430.944C342.295 432.395 341.911 433.867 341.485 435.36L337.133 452H330.989ZM371.998 452V420.896H376.35L376.798 425.376H376.99C378.483 423.883 380.062 422.645 381.726 421.664C383.39 420.64 385.289 420.128 387.422 420.128C390.707 420.128 393.097 421.173 394.59 423.264C396.126 425.312 396.894 428.32 396.894 432.288V452H391.646V432.992C391.646 430.091 391.177 427.979 390.238 426.656C389.299 425.333 387.806 424.672 385.758 424.672C384.179 424.672 382.75 425.077 381.47 425.888C380.233 426.699 378.825 427.893 377.246 429.472V452H371.998ZM412.566 452.768C410.603 452.768 409.174 452.171 408.278 450.976C407.425 449.739 406.998 447.989 406.998 445.728V406.432H412.246V446.112C412.246 446.923 412.395 447.52 412.694 447.904C412.993 448.245 413.334 448.416 413.718 448.416C413.889 448.416 414.038 448.416 414.166 448.416C414.337 448.373 414.571 448.331 414.87 448.288L415.574 452.256C415.233 452.427 414.827 452.555 414.358 452.64C413.889 452.725 413.291 452.768 412.566 452.768ZM435.407 452.768C432.889 452.768 430.521 452.128 428.303 450.848C426.127 449.568 424.356 447.712 422.991 445.28C421.668 442.848 421.007 439.925 421.007 436.512C421.007 433.013 421.668 430.048 422.991 427.616C424.356 425.184 426.127 423.328 428.303 422.048C430.521 420.768 432.889 420.128 435.407 420.128C437.967 420.128 440.335 420.768 442.511 422.048C444.687 423.328 446.436 425.184 447.759 427.616C449.124 430.048 449.807 433.013 449.807 436.512C449.807 439.925 449.124 442.848 447.759 445.28C446.436 447.712 444.687 449.568 442.511 450.848C440.335 452.128 437.967 452.768 435.407 452.768ZM435.407 448.416C438.095 448.416 440.249 447.328 441.871 445.152C443.535 442.933 444.367 440.053 444.367 436.512C444.367 432.928 443.535 430.027 441.871 427.808C440.249 425.589 438.095 424.48 435.407 424.48C432.761 424.48 430.607 425.589 428.943 427.808C427.279 430.027 426.447 432.928 426.447 436.512C426.447 440.053 427.279 442.933 428.943 445.152C430.607 447.328 432.761 448.416 435.407 448.416ZM464.291 452.768C461.688 452.768 459.512 452 457.763 450.464C456.056 448.885 455.203 446.709 455.203 443.936C455.203 440.523 456.718 437.92 459.747 436.128C462.819 434.293 467.662 433.013 474.275 432.288C474.275 430.965 474.083 429.707 473.699 428.512C473.358 427.317 472.718 426.357 471.779 425.632C470.883 424.864 469.582 424.48 467.875 424.48C466.083 424.48 464.398 424.821 462.819 425.504C461.24 426.187 459.832 426.955 458.595 427.808L456.547 424.16C457.998 423.221 459.768 422.325 461.859 421.472C463.992 420.576 466.296 420.128 468.771 420.128C472.568 420.128 475.32 421.301 477.027 423.648C478.734 425.952 479.587 429.045 479.587 432.928V452H475.235L474.787 448.288H474.595C473.144 449.483 471.544 450.528 469.795 451.424C468.088 452.32 466.254 452.768 464.291 452.768ZM465.827 448.544C467.32 448.544 468.728 448.181 470.051 447.456C471.374 446.731 472.782 445.707 474.275 444.384V435.744C469.112 436.384 465.486 437.344 463.395 438.624C461.347 439.904 460.323 441.547 460.323 443.552C460.323 445.301 460.856 446.581 461.923 447.392C462.99 448.16 464.291 448.544 465.827 448.544ZM499.997 452.768C496.114 452.768 493 451.36 490.653 448.544C488.306 445.685 487.133 441.675 487.133 436.512C487.133 433.141 487.752 430.24 488.989 427.808C490.269 425.333 491.933 423.435 493.981 422.112C496.072 420.789 498.29 420.128 500.637 420.128C502.429 420.128 503.986 420.448 505.309 421.088C506.632 421.728 507.976 422.603 509.341 423.712L509.085 418.4V406.432H514.397V452H510.045L509.597 448.352H509.405C508.21 449.547 506.802 450.592 505.181 451.488C503.56 452.341 501.832 452.768 499.997 452.768ZM501.149 448.352C503.88 448.352 506.525 446.923 509.085 444.064V427.808C507.762 426.613 506.482 425.781 505.245 425.312C504.05 424.8 502.813 424.544 501.533 424.544C499.869 424.544 498.354 425.056 496.989 426.08C495.666 427.061 494.6 428.448 493.789 430.24C492.978 431.989 492.573 434.059 492.573 436.448C492.573 440.16 493.32 443.083 494.813 445.216C496.306 447.307 498.418 448.352 501.149 448.352ZM538.582 452V425.184H534.358V421.216L538.582 420.896V415.968C538.582 412.811 539.307 410.315 540.758 408.48C542.251 406.603 544.555 405.664 547.67 405.664C548.651 405.664 549.59 405.771 550.486 405.984C551.382 406.155 552.171 406.389 552.854 406.688L551.702 410.72C550.55 410.208 549.376 409.952 548.182 409.952C545.28 409.952 543.83 411.957 543.83 415.968V420.896H550.422V425.184H543.83V452H538.582ZM556.373 452V420.896H561.621V452H556.373ZM559.061 414.496C558.037 414.496 557.184 414.197 556.501 413.6C555.861 412.96 555.541 412.107 555.541 411.04C555.541 410.016 555.861 409.184 556.501 408.544C557.184 407.904 558.037 407.584 559.061 407.584C560.085 407.584 560.917 407.904 561.557 408.544C562.24 409.184 562.581 410.016 562.581 411.04C562.581 412.107 562.24 412.96 561.557 413.6C560.917 414.197 560.085 414.496 559.061 414.496ZM577.691 452.768C575.728 452.768 574.299 452.171 573.403 450.976C572.55 449.739 572.123 447.989 572.123 445.728V406.432H577.371V446.112C577.371 446.923 577.52 447.52 577.819 447.904C578.118 448.245 578.459 448.416 578.843 448.416C579.014 448.416 579.163 448.416 579.291 448.416C579.462 448.373 579.696 448.331 579.995 448.288L580.699 452.256C580.358 452.427 579.952 452.555 579.483 452.64C579.014 452.725 578.416 452.768 577.691 452.768ZM601.044 452.768C598.27 452.768 595.753 452.128 593.492 450.848C591.23 449.525 589.438 447.648 588.116 445.216C586.793 442.784 586.132 439.883 586.132 436.512C586.132 433.099 586.793 430.176 588.116 427.744C589.481 425.312 591.23 423.435 593.364 422.112C595.497 420.789 597.737 420.128 600.083 420.128C604.052 420.128 607.102 421.451 609.236 424.096C611.412 426.741 612.5 430.283 612.5 434.72C612.5 435.275 612.478 435.829 612.436 436.384C612.436 436.896 612.393 437.344 612.308 437.728H591.316C591.529 441.013 592.553 443.637 594.388 445.6C596.265 447.563 598.697 448.544 601.684 448.544C603.177 448.544 604.542 448.331 605.78 447.904C607.06 447.435 608.276 446.837 609.428 446.112L611.284 449.568C609.961 450.421 608.446 451.168 606.74 451.808C605.076 452.448 603.177 452.768 601.044 452.768ZM591.252 433.952H607.892C607.892 430.795 607.209 428.405 605.844 426.784C604.521 425.12 602.644 424.288 600.212 424.288C598.036 424.288 596.073 425.141 594.324 426.848C592.617 428.512 591.593 430.88 591.252 433.952Z" fill="#262730"/>
<rect x="716.401" y="241.302" width="116.445" height="85.3306" fill="white"/>
<g clip-path="url(#clip0_22_88)">
<path d="M469.917 608.417H420.25C413.421 608.417 407.896 614.004 407.896 620.833L407.833 720.167C407.833 726.996 413.359 732.583 420.188 732.583H494.75C501.579 732.583 507.167 726.996 507.167 720.167V645.667L469.917 608.417ZM482.334 707.75H432.667V695.333H482.334V707.75ZM482.334 682.917H432.667V670.5H482.334V682.917ZM463.709 651.875V617.729L497.854 651.875H463.709Z" fill="#FACA2B"/>
</g>
<path d="M520.031 462.596C515.942 461.935 512.091 464.713 511.43 468.802C510.768 472.891 513.547 476.742 517.636 477.404L520.031 462.596ZM538.34 613.064L531.064 614.883L532.699 621.424L539.376 620.492L538.34 613.064ZM518.833 470C517.636 477.404 517.632 477.403 517.629 477.403C517.628 477.402 517.625 477.402 517.623 477.402C517.62 477.401 517.617 477.401 517.615 477.4C517.61 477.4 517.608 477.399 517.609 477.399C517.611 477.4 517.623 477.402 517.645 477.406C517.688 477.413 517.772 477.429 517.893 477.452C518.135 477.5 518.526 477.581 519.046 477.702C520.087 477.946 521.637 478.353 523.542 478.979C527.368 480.237 532.532 482.351 537.857 485.755C548.372 492.477 559.574 504.211 562.539 524.969L577.388 522.848C573.68 496.891 559.316 481.67 545.935 473.117C539.312 468.883 532.944 466.28 528.226 464.729C525.859 463.951 523.884 463.43 522.468 463.098C521.759 462.932 521.188 462.813 520.776 462.732C520.57 462.692 520.403 462.661 520.278 462.639C520.215 462.627 520.163 462.618 520.122 462.611C520.102 462.608 520.084 462.605 520.069 462.602C520.061 462.601 520.054 462.6 520.048 462.599C520.045 462.598 520.041 462.598 520.039 462.598C520.035 462.597 520.031 462.596 518.833 470ZM562.539 524.969C565.555 546.079 558.426 566.685 550.031 582.485C545.874 590.31 541.51 596.758 538.192 601.24C536.536 603.477 535.149 605.212 534.191 606.372C533.712 606.952 533.34 607.387 533.097 607.668C532.975 607.809 532.886 607.911 532.831 607.973C532.803 608.004 532.784 608.025 532.774 608.036C532.769 608.042 532.767 608.045 532.766 608.046C532.766 608.046 532.766 608.045 532.767 608.044C532.768 608.044 532.769 608.043 532.769 608.042C532.77 608.041 532.772 608.039 538.34 613.064C543.908 618.089 543.91 618.087 543.912 618.085C543.912 618.084 543.914 618.081 543.916 618.08C543.919 618.076 543.923 618.072 543.927 618.067C543.936 618.057 543.947 618.045 543.961 618.03C543.988 618 544.024 617.959 544.068 617.909C544.158 617.807 544.282 617.665 544.44 617.484C544.754 617.12 545.199 616.598 545.754 615.926C546.864 614.583 548.417 612.637 550.247 610.165C553.901 605.23 558.695 598.148 563.278 589.524C572.363 572.425 581.046 548.453 577.388 522.848L562.539 524.969ZM545.616 611.245L532.532 558.911L517.98 562.549L531.064 614.883L545.616 611.245ZM539.376 620.492L590.521 613.356L588.448 598.499L537.303 605.636L539.376 620.492Z" fill="#FACA2B"/>
<g filter="url(#filter0_d_22_88)">
<path d="M484.865 495.303L431 441V515.181L448.031 499.025L462.165 532.971C463.012 535.007 465.347 535.972 467.385 535.13L472.178 533.149C474.229 532.301 475.197 529.946 474.336 527.9L460.607 495.303H484.865Z" fill="#0E1117" stroke="white" stroke-width="3"/>
</g>
<defs>
<filter id="filter0_d_22_88" x="421.5" y="433.358" width="74.9658" height="115.577" filterUnits="userSpaceOnUse" color-interpolation-filters="sRGB">
<feFlood flood-opacity="0" result="BackgroundImageFix"/>
<feColorMatrix in="SourceAlpha" type="matrix" values="0 0 0 0 0 0 0 0 0 0 0 0 0 0 0 0 0 0 127 0" result="hardAlpha"/>
<feOffset dy="4"/>
<feGaussianBlur stdDeviation="4"/>
<feComposite in2="hardAlpha" operator="out"/>
<feColorMatrix type="matrix" values="0 0 0 0 0 0 0 0 0 0 0 0 0 0 0 0 0 0 0.25 0"/>
<feBlend mode="normal" in2="BackgroundImageFix" result="effect1_dropShadow_22_88"/>
<feBlend mode="normal" in="SourceGraphic" in2="effect1_dropShadow_22_88" result="shape"/>
</filter>
<clipPath id="clip0_22_88">
<rect width="149" height="149" fill="white" transform="translate(383 596)"/>
</clipPath>
</defs>
</svg>
