<svg width="862" height="862" viewBox="0 0 862 862" fill="none" xmlns="http://www.w3.org/2000/svg">
<rect width="862" height="862" fill="white"/>
<rect x="245" y="356" width="372" height="150" rx="30" stroke="#D6D6D8" stroke-width="4"/>
<path d="M300.76 452V410.016H311.256C317.741 410.016 322.669 411.829 326.04 415.456C329.411 419.04 331.096 424.16 331.096 430.816C331.096 437.515 329.411 442.72 326.04 446.432C322.712 450.144 317.869 452 311.512 452H300.76ZM306.072 447.648H310.872C315.779 447.648 319.448 446.176 321.88 443.232C324.355 440.245 325.592 436.107 325.592 430.816C325.592 425.525 324.355 421.472 321.88 418.656C319.448 415.797 315.779 414.368 310.872 414.368H306.072V447.648ZM351.719 452.768C349.202 452.768 346.834 452.128 344.615 450.848C342.439 449.568 340.668 447.712 339.303 445.28C337.98 442.848 337.319 439.925 337.319 436.512C337.319 433.013 337.98 430.048 339.303 427.616C340.668 425.184 342.439 423.328 344.615 422.048C346.834 420.768 349.202 420.128 351.719 420.128C354.279 420.128 356.647 420.768 358.823 422.048C360.999 423.328 362.748 425.184 364.071 427.616C365.436 430.048 366.119 433.013 366.119 436.512C366.119 439.925 365.436 442.848 364.071 445.28C362.748 447.712 360.999 449.568 358.823 450.848C356.647 452.128 354.279 452.768 351.719 452.768ZM351.719 448.416C354.407 448.416 356.562 447.328 358.183 445.152C359.847 442.933 360.679 440.053 360.679 436.512C360.679 432.928 359.847 430.027 358.183 427.808C356.562 425.589 354.407 424.48 351.719 424.48C349.074 424.48 346.919 425.589 345.255 427.808C343.591 430.027 342.759 432.928 342.759 436.512C342.759 440.053 343.591 442.933 345.255 445.152C346.919 447.328 349.074 448.416 351.719 448.416ZM378.989 452L370.349 420.896H375.725L380.333 438.88C380.674 440.331 380.994 441.781 381.293 443.232C381.591 444.64 381.89 446.069 382.189 447.52H382.445C382.786 446.069 383.127 444.64 383.469 443.232C383.81 441.781 384.173 440.331 384.557 438.88L389.357 420.896H394.477L399.341 438.88C399.725 440.331 400.087 441.781 400.429 443.232C400.813 444.64 401.175 446.069 401.517 447.52H401.773C402.114 446.069 402.434 444.64 402.733 443.232C403.074 441.781 403.394 440.331 403.693 438.88L408.237 420.896H413.229L404.909 452H398.509L394.029 435.296C393.645 433.803 393.282 432.331 392.941 430.88C392.642 429.429 392.301 427.915 391.917 426.336H391.661C391.319 427.915 390.978 429.451 390.637 430.944C390.295 432.395 389.911 433.867 389.485 435.36L385.133 452H378.989ZM419.998 452V420.896H424.35L424.798 425.376H424.99C426.483 423.883 428.062 422.645 429.726 421.664C431.39 420.64 433.289 420.128 435.422 420.128C438.707 420.128 441.097 421.173 442.59 423.264C444.126 425.312 444.894 428.32 444.894 432.288V452H439.646V432.992C439.646 430.091 439.177 427.979 438.238 426.656C437.299 425.333 435.806 424.672 433.758 424.672C432.179 424.672 430.75 425.077 429.47 425.888C428.233 426.699 426.825 427.893 425.246 429.472V452H419.998ZM460.566 452.768C458.603 452.768 457.174 452.171 456.278 450.976C455.425 449.739 454.998 447.989 454.998 445.728V406.432H460.246V446.112C460.246 446.923 460.395 447.52 460.694 447.904C460.993 448.245 461.334 448.416 461.718 448.416C461.889 448.416 462.038 448.416 462.166 448.416C462.337 448.373 462.571 448.331 462.87 448.288L463.574 452.256C463.233 452.427 462.827 452.555 462.358 452.64C461.889 452.725 461.291 452.768 460.566 452.768ZM483.407 452.768C480.889 452.768 478.521 452.128 476.303 450.848C474.127 449.568 472.356 447.712 470.991 445.28C469.668 442.848 469.007 439.925 469.007 436.512C469.007 433.013 469.668 430.048 470.991 427.616C472.356 425.184 474.127 423.328 476.303 422.048C478.521 420.768 480.889 420.128 483.407 420.128C485.967 420.128 488.335 420.768 490.511 422.048C492.687 423.328 494.436 425.184 495.759 427.616C497.124 430.048 497.807 433.013 497.807 436.512C497.807 439.925 497.124 442.848 495.759 445.28C494.436 447.712 492.687 449.568 490.511 450.848C488.335 452.128 485.967 452.768 483.407 452.768ZM483.407 448.416C486.095 448.416 488.249 447.328 489.871 445.152C491.535 442.933 492.367 440.053 492.367 436.512C492.367 432.928 491.535 430.027 489.871 427.808C488.249 425.589 486.095 424.48 483.407 424.48C480.761 424.48 478.607 425.589 476.943 427.808C475.279 430.027 474.447 432.928 474.447 436.512C474.447 440.053 475.279 442.933 476.943 445.152C478.607 447.328 480.761 448.416 483.407 448.416ZM512.291 452.768C509.688 452.768 507.512 452 505.763 450.464C504.056 448.885 503.203 446.709 503.203 443.936C503.203 440.523 504.718 437.92 507.747 436.128C510.819 434.293 515.662 433.013 522.275 432.288C522.275 430.965 522.083 429.707 521.699 428.512C521.358 427.317 520.718 426.357 519.779 425.632C518.883 424.864 517.582 424.48 515.875 424.48C514.083 424.48 512.398 424.821 510.819 425.504C509.24 426.187 507.832 426.955 506.595 427.808L504.547 424.16C505.998 423.221 507.768 422.325 509.859 421.472C511.992 420.576 514.296 420.128 516.771 420.128C520.568 420.128 523.32 421.301 525.027 423.648C526.734 425.952 527.587 429.045 527.587 432.928V452H523.235L522.787 448.288H522.595C521.144 449.483 519.544 450.528 517.795 451.424C516.088 452.32 514.254 452.768 512.291 452.768ZM513.827 448.544C515.32 448.544 516.728 448.181 518.051 447.456C519.374 446.731 520.782 445.707 522.275 444.384V435.744C517.112 436.384 513.486 437.344 511.395 438.624C509.347 439.904 508.323 441.547 508.323 443.552C508.323 445.301 508.856 446.581 509.923 447.392C510.99 448.16 512.291 448.544 513.827 448.544ZM547.997 452.768C544.114 452.768 541 451.36 538.653 448.544C536.306 445.685 535.133 441.675 535.133 436.512C535.133 433.141 535.752 430.24 536.989 427.808C538.269 425.333 539.933 423.435 541.981 422.112C544.072 420.789 546.29 420.128 548.637 420.128C550.429 420.128 551.986 420.448 553.309 421.088C554.632 421.728 555.976 422.603 557.341 423.712L557.085 418.4V406.432H562.397V452H558.045L557.597 448.352H557.405C556.21 449.547 554.802 450.592 553.181 451.488C551.56 452.341 549.832 452.768 547.997 452.768ZM549.149 448.352C551.88 448.352 554.525 446.923 557.085 444.064V427.808C555.762 426.613 554.482 425.781 553.245 425.312C552.05 424.8 550.813 424.544 549.533 424.544C547.869 424.544 546.354 425.056 544.989 426.08C543.666 427.061 542.6 428.448 541.789 430.24C540.978 431.989 540.573 434.059 540.573 436.448C540.573 440.16 541.32 443.083 542.813 445.216C544.306 447.307 546.418 448.352 549.149 448.352Z" fill="#262730"/>
<rect x="716.401" y="241.302" width="116.445" height="85.3306" fill="white"/>
<g clip-path="url(#clip0_22_88)">
<path d="M478.417 606.417H428.75C421.921 606.417 416.396 612.004 416.396 618.833L416.333 718.167C416.333 724.996 421.859 730.583 428.688 730.583H503.25C510.079 730.583 515.667 724.996 515.667 718.167V643.667L478.417 606.417ZM490.834 705.75H441.167V693.333H490.834V705.75ZM490.834 680.917H441.167V668.5H490.834V680.917ZM472.209 649.875V615.729L506.354 649.875H472.209Z" fill="#FACA2B"/>
</g>
<path d="M520.031 463.596C515.942 462.935 512.091 465.713 511.43 469.802C510.768 473.891 513.547 477.742 517.636 478.404L520.031 463.596ZM538.34 614.064L531.064 615.883L532.699 622.424L539.376 621.492L538.34 614.064ZM518.833 471C517.636 478.404 517.632 478.403 517.629 478.403C517.628 478.402 517.625 478.402 517.623 478.402C517.62 478.401 517.617 478.401 517.615 478.4C517.61 478.4 517.608 478.399 517.609 478.399C517.611 478.4 517.623 478.402 517.645 478.406C517.688 478.413 517.772 478.429 517.893 478.452C518.135 478.5 518.526 478.581 519.046 478.702C520.087 478.946 521.637 479.353 523.542 479.979C527.368 481.237 532.532 483.351 537.857 486.755C548.372 493.477 559.574 505.211 562.539 525.969L577.388 523.848C573.68 497.891 559.316 482.67 545.935 474.117C539.312 469.883 532.944 467.28 528.226 465.729C525.859 464.951 523.884 464.43 522.468 464.098C521.759 463.932 521.188 463.813 520.776 463.732C520.57 463.692 520.403 463.661 520.278 463.639C520.215 463.627 520.163 463.618 520.122 463.611C520.102 463.608 520.084 463.605 520.069 463.602C520.061 463.601 520.054 463.6 520.048 463.599C520.045 463.598 520.041 463.598 520.039 463.598C520.035 463.597 520.031 463.596 518.833 471ZM562.539 525.969C565.555 547.079 558.426 567.685 550.031 583.485C545.874 591.31 541.51 597.758 538.192 602.24C536.536 604.477 535.149 606.212 534.191 607.372C533.712 607.952 533.34 608.387 533.097 608.668C532.975 608.809 532.886 608.911 532.831 608.973C532.803 609.004 532.784 609.025 532.774 609.036C532.769 609.042 532.767 609.045 532.766 609.046C532.766 609.046 532.766 609.045 532.767 609.044C532.768 609.044 532.769 609.043 532.769 609.042C532.77 609.041 532.772 609.039 538.34 614.064C543.908 619.089 543.91 619.087 543.912 619.085C543.912 619.084 543.914 619.081 543.916 619.08C543.919 619.076 543.923 619.072 543.927 619.067C543.936 619.057 543.947 619.045 543.961 619.03C543.988 619 544.024 618.959 544.068 618.909C544.158 618.807 544.282 618.665 544.44 618.484C544.754 618.12 545.199 617.598 545.754 616.926C546.864 615.583 548.417 613.637 550.247 611.165C553.901 606.23 558.695 599.148 563.278 590.524C572.363 573.425 581.046 549.453 577.388 523.848L562.539 525.969ZM545.616 612.245L532.532 559.911L517.98 563.549L531.064 615.883L545.616 612.245ZM539.376 621.492L590.521 614.356L588.448 599.499L537.303 606.636L539.376 621.492Z" fill="#FACA2B"/>
<g filter="url(#filter0_d_22_88)">
<path d="M484.865 524.303L431 470V544.181L448.031 528.025L462.165 561.971C463.012 564.007 465.347 564.972 467.385 564.13L472.178 562.149C474.229 561.301 475.197 558.946 474.336 556.9L460.607 524.303H484.865Z" fill="#0E1117" stroke="white" stroke-width="3"/>
</g>
<defs>
<filter id="filter0_d_22_88" x="421.5" y="462.358" width="74.9658" height="115.577" filterUnits="userSpaceOnUse" color-interpolation-filters="sRGB">
<feFlood flood-opacity="0" result="BackgroundImageFix"/>
<feColorMatrix in="SourceAlpha" type="matrix" values="0 0 0 0 0 0 0 0 0 0 0 0 0 0 0 0 0 0 127 0" result="hardAlpha"/>
<feOffset dy="4"/>
<feGaussianBlur stdDeviation="4"/>
<feComposite in2="hardAlpha" operator="out"/>
<feColorMatrix type="matrix" values="0 0 0 0 0 0 0 0 0 0 0 0 0 0 0 0 0 0 0.25 0"/>
<feBlend mode="normal" in2="BackgroundImageFix" result="effect1_dropShadow_22_88"/>
<feBlend mode="normal" in="SourceGraphic" in2="effect1_dropShadow_22_88" result="shape"/>
</filter>
<clipPath id="clip0_22_88">
<rect width="149" height="149" fill="white" transform="translate(391.5 594)"/>
</clipPath>
</defs>
</svg>
