<svg width="862" height="862" viewBox="0 0 862 862" fill="none" xmlns="http://www.w3.org/2000/svg">
<g clip-path="url(#clip0_1389_346)">
<rect width="862" height="862" fill="white"/>
<rect x="267" y="356" width="296" height="150" rx="30" stroke="#D6D6D8" stroke-width="4"/>
<path d="M334.408 452.768C331.464 452.768 328.733 452.213 326.216 451.104C323.699 449.952 321.523 448.437 319.688 446.56L322.888 442.848C324.381 444.427 326.131 445.707 328.136 446.688C330.184 447.627 332.296 448.096 334.472 448.096C337.245 448.096 339.4 447.477 340.936 446.24C342.472 444.96 343.24 443.296 343.24 441.248C343.24 439.797 342.92 438.645 342.28 437.792C341.683 436.939 340.851 436.213 339.784 435.616C338.76 435.019 337.587 434.421 336.264 433.824L330.248 431.2C328.925 430.645 327.603 429.92 326.28 429.024C325 428.128 323.912 426.976 323.016 425.568C322.163 424.16 321.736 422.432 321.736 420.384C321.736 418.251 322.291 416.352 323.4 414.688C324.552 412.981 326.131 411.659 328.136 410.72C330.141 409.739 332.403 409.248 334.92 409.248C337.437 409.248 339.763 409.739 341.896 410.72C344.029 411.659 345.843 412.896 347.336 414.432L344.456 417.888C343.176 416.651 341.747 415.691 340.168 415.008C338.632 414.283 336.883 413.92 334.92 413.92C332.573 413.92 330.675 414.475 329.224 415.584C327.816 416.693 327.112 418.187 327.112 420.064C327.112 421.387 327.453 422.496 328.136 423.392C328.861 424.245 329.757 424.949 330.824 425.504C331.891 426.059 332.979 426.571 334.088 427.04L340.04 429.6C341.661 430.283 343.112 431.115 344.392 432.096C345.715 433.035 346.76 434.208 347.528 435.616C348.296 436.981 348.68 438.709 348.68 440.8C348.68 443.019 348.104 445.045 346.952 446.88C345.8 448.672 344.157 450.101 342.024 451.168C339.891 452.235 337.352 452.768 334.408 452.768ZM365.524 452.768C362.238 452.768 359.828 451.744 358.292 449.696C356.756 447.605 355.988 444.576 355.988 440.608V420.896H361.3V439.904C361.3 442.805 361.748 444.917 362.644 446.24C363.582 447.563 365.076 448.224 367.124 448.224C368.745 448.224 370.174 447.819 371.412 447.008C372.692 446.155 374.057 444.811 375.508 442.976V420.896H380.756V452H376.404L375.956 447.136H375.764C374.313 448.843 372.777 450.208 371.156 451.232C369.534 452.256 367.657 452.768 365.524 452.768ZM405.008 452.768C403.557 452.768 402.043 452.427 400.464 451.744C398.928 451.019 397.477 450.037 396.112 448.8H395.92L395.472 452H391.248V406.432H396.496V418.848L396.368 424.48C397.776 423.243 399.312 422.219 400.976 421.408C402.683 420.555 404.389 420.128 406.096 420.128C410.149 420.128 413.221 421.557 415.312 424.416C417.403 427.275 418.448 431.115 418.448 435.936C418.448 439.477 417.808 442.507 416.528 445.024C415.291 447.541 413.648 449.461 411.6 450.784C409.595 452.107 407.397 452.768 405.008 452.768ZM404.112 448.352C406.672 448.352 408.784 447.264 410.448 445.088C412.155 442.869 413.008 439.84 413.008 436C413.008 432.587 412.368 429.835 411.088 427.744C409.851 425.611 407.76 424.544 404.816 424.544C403.493 424.544 402.149 424.907 400.784 425.632C399.419 426.357 397.989 427.403 396.496 428.768V445.088C397.861 446.283 399.205 447.136 400.528 447.648C401.893 448.117 403.088 448.352 404.112 448.352ZM426.623 452V420.896H430.975L431.423 425.376H431.615C432.98 423.883 434.474 422.645 436.095 421.664C437.716 420.64 439.444 420.128 441.279 420.128C443.668 420.128 445.524 420.661 446.847 421.728C448.212 422.752 449.215 424.203 449.855 426.08C451.476 424.331 453.119 422.901 454.783 421.792C456.447 420.683 458.218 420.128 460.095 420.128C463.295 420.128 465.663 421.173 467.199 423.264C468.778 425.312 469.567 428.32 469.567 432.288V452H464.319V432.992C464.319 430.091 463.85 427.979 462.911 426.656C461.972 425.333 460.522 424.672 458.559 424.672C456.255 424.672 453.652 426.272 450.751 429.472V452H445.503V432.992C445.503 430.091 445.034 427.979 444.095 426.656C443.156 425.333 441.684 424.672 439.679 424.672C437.375 424.672 434.772 426.272 431.871 429.472V452H426.623ZM479.686 452V420.896H484.934V452H479.686ZM482.374 414.496C481.35 414.496 480.496 414.197 479.814 413.6C479.174 412.96 478.854 412.107 478.854 411.04C478.854 410.016 479.174 409.184 479.814 408.544C480.496 407.904 481.35 407.584 482.374 407.584C483.398 407.584 484.23 407.904 484.87 408.544C485.552 409.184 485.894 410.016 485.894 411.04C485.894 412.107 485.552 412.96 484.87 413.6C484.23 414.197 483.398 414.496 482.374 414.496ZM505.228 452.768C501.9 452.768 499.574 451.808 498.252 449.888C496.972 447.968 496.332 445.472 496.332 442.4V425.184H491.724V421.216L496.588 420.896L497.228 412.192H501.644V420.896H510.028V425.184H501.644V442.464C501.644 444.384 501.985 445.877 502.668 446.944C503.393 447.968 504.652 448.48 506.444 448.48C506.998 448.48 507.596 448.395 508.236 448.224C508.876 448.011 509.452 447.819 509.964 447.648L510.988 451.616C510.134 451.915 509.196 452.171 508.172 452.384C507.19 452.64 506.209 452.768 505.228 452.768Z" fill="#262730"/>
<rect x="201" y="-46" width="719" height="616" rx="30" stroke="#D6D6D8" stroke-width="4"/>
<g filter="url(#filter0_d_1389_346)">
<path d="M484.865 495.303L431 441V515.181L448.031 499.025L462.165 532.971C463.012 535.007 465.347 535.972 467.385 535.13L472.178 533.149C474.229 532.301 475.197 529.946 474.336 527.9L460.607 495.303H484.865Z" fill="#0E1117" stroke="white" stroke-width="3"/>
</g>
</g>
<defs>
<filter id="filter0_d_1389_346" x="421.5" y="433.358" width="74.9648" height="115.577" filterUnits="userSpaceOnUse" color-interpolation-filters="sRGB">
<feFlood flood-opacity="0" result="BackgroundImageFix"/>
<feColorMatrix in="SourceAlpha" type="matrix" values="0 0 0 0 0 0 0 0 0 0 0 0 0 0 0 0 0 0 127 0" result="hardAlpha"/>
<feOffset dy="4"/>
<feGaussianBlur stdDeviation="4"/>
<feComposite in2="hardAlpha" operator="out"/>
<feColorMatrix type="matrix" values="0 0 0 0 0 0 0 0 0 0 0 0 0 0 0 0 0 0 0.25 0"/>
<feBlend mode="normal" in2="BackgroundImageFix" result="effect1_dropShadow_1389_346"/>
<feBlend mode="normal" in="SourceGraphic" in2="effect1_dropShadow_1389_346" result="shape"/>
</filter>
<clipPath id="clip0_1389_346">
<rect width="862" height="862" fill="white"/>
</clipPath>
</defs>
</svg>
