<svg width="862" height="862" viewBox="0 0 862 862" fill="none" xmlns="http://www.w3.org/2000/svg">
<rect width="862" height="862" fill="white"/>
<rect x="213" y="356" width="436" height="150" rx="30" stroke="#D6D6D8" stroke-width="4"/>
<path d="M285.272 452.768C281.603 452.768 278.339 451.915 275.48 450.208C272.621 448.459 270.381 445.963 268.76 442.72C267.139 439.477 266.328 435.573 266.328 431.008C266.328 426.485 267.16 422.603 268.824 419.36C270.488 416.117 272.771 413.621 275.672 411.872C278.573 410.123 281.88 409.248 285.592 409.248C288.493 409.248 290.925 409.803 292.888 410.912C294.893 411.979 296.493 413.152 297.688 414.432L294.744 417.888C293.677 416.779 292.44 415.84 291.032 415.072C289.624 414.304 287.853 413.92 285.72 413.92C282.904 413.92 280.451 414.624 278.36 416.032C276.269 417.397 274.648 419.339 273.496 421.856C272.387 424.373 271.832 427.381 271.832 430.88C271.832 436.171 273.027 440.373 275.416 443.488C277.848 446.56 281.304 448.096 285.784 448.096C287.277 448.096 288.707 447.883 290.072 447.456C291.437 446.987 292.525 446.368 293.336 445.6V434.656H284.44V430.24H298.2V447.904C296.877 449.312 295.085 450.485 292.824 451.424C290.605 452.32 288.088 452.768 285.272 452.768ZM319.844 452.768C317.327 452.768 314.959 452.128 312.74 450.848C310.564 449.568 308.793 447.712 307.428 445.28C306.105 442.848 305.444 439.925 305.444 436.512C305.444 433.013 306.105 430.048 307.428 427.616C308.793 425.184 310.564 423.328 312.74 422.048C314.959 420.768 317.327 420.128 319.844 420.128C322.404 420.128 324.772 420.768 326.948 422.048C329.124 423.328 330.873 425.184 332.196 427.616C333.561 430.048 334.244 433.013 334.244 436.512C334.244 439.925 333.561 442.848 332.196 445.28C330.873 447.712 329.124 449.568 326.948 450.848C324.772 452.128 322.404 452.768 319.844 452.768ZM319.844 448.416C322.532 448.416 324.687 447.328 326.308 445.152C327.972 442.933 328.804 440.053 328.804 436.512C328.804 432.928 327.972 430.027 326.308 427.808C324.687 425.589 322.532 424.48 319.844 424.48C317.199 424.48 315.044 425.589 313.38 427.808C311.716 430.027 310.884 432.928 310.884 436.512C310.884 440.053 311.716 442.933 313.38 445.152C315.044 447.328 317.199 448.416 319.844 448.416ZM365.04 452.768C361.712 452.768 359.387 451.808 358.064 449.888C356.784 447.968 356.144 445.472 356.144 442.4V425.184H351.536V421.216L356.4 420.896L357.04 412.192H361.456V420.896H369.84V425.184H361.456V442.464C361.456 444.384 361.797 445.877 362.48 446.944C363.205 447.968 364.464 448.48 366.256 448.48C366.811 448.48 367.408 448.395 368.048 448.224C368.688 448.011 369.264 447.819 369.776 447.648L370.8 451.616C369.947 451.915 369.008 452.171 367.984 452.384C367.003 452.64 366.021 452.768 365.04 452.768ZM388.094 452.768C385.577 452.768 383.209 452.128 380.99 450.848C378.814 449.568 377.043 447.712 375.678 445.28C374.355 442.848 373.694 439.925 373.694 436.512C373.694 433.013 374.355 430.048 375.678 427.616C377.043 425.184 378.814 423.328 380.99 422.048C383.209 420.768 385.577 420.128 388.094 420.128C390.654 420.128 393.022 420.768 395.198 422.048C397.374 423.328 399.123 425.184 400.446 427.616C401.811 430.048 402.494 433.013 402.494 436.512C402.494 439.925 401.811 442.848 400.446 445.28C399.123 447.712 397.374 449.568 395.198 450.848C393.022 452.128 390.654 452.768 388.094 452.768ZM388.094 448.416C390.782 448.416 392.937 447.328 394.558 445.152C396.222 442.933 397.054 440.053 397.054 436.512C397.054 432.928 396.222 430.027 394.558 427.808C392.937 425.589 390.782 424.48 388.094 424.48C385.449 424.48 383.294 425.589 381.63 427.808C379.966 430.027 379.134 432.928 379.134 436.512C379.134 440.053 379.966 442.933 381.63 445.152C383.294 447.328 385.449 448.416 388.094 448.416ZM433.994 466.336C430.197 466.336 427.103 465.611 424.714 464.16C422.325 462.709 421.13 460.64 421.13 457.952C421.13 456.629 421.535 455.349 422.346 454.112C423.157 452.917 424.266 451.851 425.674 450.912V450.656C424.906 450.187 424.245 449.525 423.69 448.672C423.178 447.819 422.922 446.795 422.922 445.6C422.922 444.277 423.285 443.125 424.01 442.144C424.735 441.163 425.503 440.395 426.314 439.84V439.584C425.29 438.731 424.351 437.579 423.498 436.128C422.687 434.677 422.282 433.035 422.282 431.2C422.282 428.939 422.815 426.976 423.882 425.312C424.949 423.648 426.378 422.368 428.17 421.472C429.962 420.576 431.903 420.128 433.994 420.128C434.847 420.128 435.658 420.213 436.426 420.384C437.194 420.512 437.855 420.683 438.41 420.896H449.226V424.928H442.826C443.551 425.611 444.149 426.528 444.618 427.68C445.13 428.789 445.386 430.005 445.386 431.328C445.386 433.547 444.874 435.467 443.85 437.088C442.826 438.709 441.461 439.968 439.754 440.864C438.047 441.717 436.127 442.144 433.994 442.144C432.33 442.144 430.773 441.781 429.322 441.056C428.767 441.525 428.298 442.059 427.914 442.656C427.53 443.211 427.338 443.915 427.338 444.768C427.338 445.749 427.722 446.56 428.49 447.2C429.301 447.84 430.751 448.16 432.842 448.16H438.858C442.485 448.16 445.194 448.757 446.986 449.952C448.821 451.104 449.738 452.981 449.738 455.584C449.738 457.504 449.098 459.275 447.818 460.896C446.538 462.517 444.725 463.819 442.378 464.8C440.031 465.824 437.237 466.336 433.994 466.336ZM433.994 438.624C435.786 438.624 437.322 437.963 438.602 436.64C439.925 435.275 440.586 433.461 440.586 431.2C440.586 428.939 439.946 427.168 438.666 425.888C437.386 424.608 435.829 423.968 433.994 423.968C432.159 423.968 430.602 424.608 429.322 425.888C428.042 427.168 427.402 428.939 427.402 431.2C427.402 433.461 428.042 435.275 429.322 436.64C430.645 437.963 432.202 438.624 433.994 438.624ZM434.762 462.688C437.749 462.688 440.138 462.027 441.93 460.704C443.722 459.424 444.618 457.973 444.618 456.352C444.618 454.901 444.063 453.899 442.954 453.344C441.887 452.789 440.351 452.512 438.346 452.512H432.97C432.373 452.512 431.711 452.469 430.986 452.384C430.303 452.299 429.621 452.171 428.938 452C427.829 452.811 427.018 453.664 426.506 454.56C425.994 455.456 425.738 456.352 425.738 457.248C425.738 458.912 426.527 460.235 428.106 461.216C429.727 462.197 431.946 462.688 434.762 462.688ZM461.916 452.768C459.313 452.768 457.137 452 455.388 450.464C453.681 448.885 452.828 446.709 452.828 443.936C452.828 440.523 454.343 437.92 457.372 436.128C460.444 434.293 465.287 433.013 471.9 432.288C471.9 430.965 471.708 429.707 471.324 428.512C470.983 427.317 470.343 426.357 469.404 425.632C468.508 424.864 467.207 424.48 465.5 424.48C463.708 424.48 462.023 424.821 460.444 425.504C458.865 426.187 457.457 426.955 456.22 427.808L454.172 424.16C455.623 423.221 457.393 422.325 459.484 421.472C461.617 420.576 463.921 420.128 466.396 420.128C470.193 420.128 472.945 421.301 474.652 423.648C476.359 425.952 477.212 429.045 477.212 432.928V452H472.86L472.412 448.288H472.22C470.769 449.483 469.169 450.528 467.42 451.424C465.713 452.32 463.879 452.768 461.916 452.768ZM463.452 448.544C464.945 448.544 466.353 448.181 467.676 447.456C468.999 446.731 470.407 445.707 471.9 444.384V435.744C466.737 436.384 463.111 437.344 461.02 438.624C458.972 439.904 457.948 441.547 457.948 443.552C457.948 445.301 458.481 446.581 459.548 447.392C460.615 448.16 461.916 448.544 463.452 448.544ZM492.566 452.768C490.603 452.768 489.174 452.171 488.278 450.976C487.425 449.739 486.998 447.989 486.998 445.728V406.432H492.246V446.112C492.246 446.923 492.395 447.52 492.694 447.904C492.993 448.245 493.334 448.416 493.718 448.416C493.889 448.416 494.038 448.416 494.166 448.416C494.337 448.373 494.571 448.331 494.87 448.288L495.574 452.256C495.233 452.427 494.827 452.555 494.358 452.64C493.889 452.725 493.291 452.768 492.566 452.768ZM508.879 452.768C506.916 452.768 505.487 452.171 504.591 450.976C503.737 449.739 503.311 447.989 503.311 445.728V406.432H508.559V446.112C508.559 446.923 508.708 447.52 509.007 447.904C509.305 448.245 509.647 448.416 510.031 448.416C510.201 448.416 510.351 448.416 510.479 448.416C510.649 448.373 510.884 448.331 511.183 448.288L511.887 452.256C511.545 452.427 511.14 452.555 510.671 452.64C510.201 452.725 509.604 452.768 508.879 452.768ZM532.231 452.768C529.458 452.768 526.94 452.128 524.679 450.848C522.418 449.525 520.626 447.648 519.303 445.216C517.98 442.784 517.319 439.883 517.319 436.512C517.319 433.099 517.98 430.176 519.303 427.744C520.668 425.312 522.418 423.435 524.551 422.112C526.684 420.789 528.924 420.128 531.271 420.128C535.239 420.128 538.29 421.451 540.423 424.096C542.599 426.741 543.687 430.283 543.687 434.72C543.687 435.275 543.666 435.829 543.623 436.384C543.623 436.896 543.58 437.344 543.495 437.728H522.503C522.716 441.013 523.74 443.637 525.575 445.6C527.452 447.563 529.884 448.544 532.871 448.544C534.364 448.544 535.73 448.331 536.967 447.904C538.247 447.435 539.463 446.837 540.615 446.112L542.471 449.568C541.148 450.421 539.634 451.168 537.927 451.808C536.263 452.448 534.364 452.768 532.231 452.768ZM522.439 433.952H539.079C539.079 430.795 538.396 428.405 537.031 426.784C535.708 425.12 533.831 424.288 531.399 424.288C529.223 424.288 527.26 425.141 525.511 426.848C523.804 428.512 522.78 430.88 522.439 433.952ZM551.373 452V420.896H555.725L556.173 426.528H556.365C557.432 424.565 558.733 423.008 560.269 421.856C561.805 420.704 563.448 420.128 565.197 420.128C566.434 420.128 567.544 420.341 568.525 420.768L567.501 425.376C566.989 425.205 566.52 425.077 566.093 424.992C565.666 424.907 565.133 424.864 564.493 424.864C563.17 424.864 561.784 425.397 560.333 426.464C558.925 427.531 557.688 429.387 556.621 432.032V452H551.373ZM575.698 465.376C575.015 465.376 574.354 465.312 573.714 465.184C573.116 465.056 572.562 464.907 572.049 464.736L573.074 460.576C573.415 460.661 573.799 460.747 574.226 460.832C574.652 460.96 575.058 461.024 575.442 461.024C577.191 461.024 578.642 460.384 579.794 459.104C580.946 457.867 581.842 456.288 582.482 454.368L583.186 452.064L570.706 420.896H576.146L582.482 438.112C582.951 439.435 583.442 440.864 583.954 442.4C584.508 443.936 585.02 445.429 585.49 446.88H585.746C586.215 445.472 586.663 444 587.09 442.464C587.516 440.928 587.943 439.477 588.37 438.112L593.938 420.896H599.058L587.346 454.56C586.62 456.608 585.746 458.443 584.722 460.064C583.74 461.685 582.503 462.965 581.01 463.904C579.559 464.885 577.788 465.376 575.698 465.376Z" fill="#262730"/>
<g filter="url(#filter0_d_1333_338)">
<path d="M545.865 523.303L492 469V543.181L509.031 527.025L523.165 560.971C524.012 563.007 526.347 563.972 528.385 563.13L533.178 561.149C535.229 560.301 536.197 557.946 535.336 555.9L521.607 523.303H545.865Z" fill="#0E1117" stroke="white" stroke-width="3"/>
</g>
<defs>
<filter id="filter0_d_1333_338" x="482.5" y="461.358" width="74.9648" height="115.577" filterUnits="userSpaceOnUse" color-interpolation-filters="sRGB">
<feFlood flood-opacity="0" result="BackgroundImageFix"/>
<feColorMatrix in="SourceAlpha" type="matrix" values="0 0 0 0 0 0 0 0 0 0 0 0 0 0 0 0 0 0 127 0" result="hardAlpha"/>
<feOffset dy="4"/>
<feGaussianBlur stdDeviation="4"/>
<feComposite in2="hardAlpha" operator="out"/>
<feColorMatrix type="matrix" values="0 0 0 0 0 0 0 0 0 0 0 0 0 0 0 0 0 0 0.25 0"/>
<feBlend mode="normal" in2="BackgroundImageFix" result="effect1_dropShadow_1333_338"/>
<feBlend mode="normal" in="SourceGraphic" in2="effect1_dropShadow_1333_338" result="shape"/>
</filter>
</defs>
</svg>
