<svg width="862" height="862" viewBox="0 0 862 862" fill="none" xmlns="http://www.w3.org/2000/svg">
<rect width="862" height="862" fill="white"/>
<rect x="198" y="356" width="466" height="150" rx="30" stroke="#D6D6D8" stroke-width="4"/>
<path d="M274.272 452.768C270.603 452.768 267.339 451.915 264.48 450.208C261.621 448.459 259.381 445.963 257.76 442.72C256.139 439.477 255.328 435.573 255.328 431.008C255.328 426.485 256.16 422.603 257.824 419.36C259.488 416.117 261.771 413.621 264.672 411.872C267.573 410.123 270.88 409.248 274.592 409.248C277.493 409.248 279.925 409.803 281.888 410.912C283.893 411.979 285.493 413.152 286.688 414.432L283.744 417.888C282.677 416.779 281.44 415.84 280.032 415.072C278.624 414.304 276.853 413.92 274.72 413.92C271.904 413.92 269.451 414.624 267.36 416.032C265.269 417.397 263.648 419.339 262.496 421.856C261.387 424.373 260.832 427.381 260.832 430.88C260.832 436.171 262.027 440.373 264.416 443.488C266.848 446.56 270.304 448.096 274.784 448.096C276.277 448.096 277.707 447.883 279.072 447.456C280.437 446.987 281.525 446.368 282.336 445.6V434.656H273.44V430.24H287.2V447.904C285.877 449.312 284.085 450.485 281.824 451.424C279.605 452.32 277.088 452.768 274.272 452.768ZM308.844 452.768C306.327 452.768 303.959 452.128 301.74 450.848C299.564 449.568 297.793 447.712 296.428 445.28C295.105 442.848 294.444 439.925 294.444 436.512C294.444 433.013 295.105 430.048 296.428 427.616C297.793 425.184 299.564 423.328 301.74 422.048C303.959 420.768 306.327 420.128 308.844 420.128C311.404 420.128 313.772 420.768 315.948 422.048C318.124 423.328 319.873 425.184 321.196 427.616C322.561 430.048 323.244 433.013 323.244 436.512C323.244 439.925 322.561 442.848 321.196 445.28C319.873 447.712 318.124 449.568 315.948 450.848C313.772 452.128 311.404 452.768 308.844 452.768ZM308.844 448.416C311.532 448.416 313.687 447.328 315.308 445.152C316.972 442.933 317.804 440.053 317.804 436.512C317.804 432.928 316.972 430.027 315.308 427.808C313.687 425.589 311.532 424.48 308.844 424.48C306.199 424.48 304.044 425.589 302.38 427.808C300.716 430.027 299.884 432.928 299.884 436.512C299.884 440.053 300.716 442.933 302.38 445.152C304.044 447.328 306.199 448.416 308.844 448.416ZM354.04 452.768C350.712 452.768 348.387 451.808 347.064 449.888C345.784 447.968 345.144 445.472 345.144 442.4V425.184H340.536V421.216L345.4 420.896L346.04 412.192H350.456V420.896H358.84V425.184H350.456V442.464C350.456 444.384 350.797 445.877 351.48 446.944C352.205 447.968 353.464 448.48 355.256 448.48C355.811 448.48 356.408 448.395 357.048 448.224C357.688 448.011 358.264 447.819 358.776 447.648L359.8 451.616C358.947 451.915 358.008 452.171 356.984 452.384C356.003 452.64 355.021 452.768 354.04 452.768ZM377.094 452.768C374.577 452.768 372.209 452.128 369.99 450.848C367.814 449.568 366.043 447.712 364.678 445.28C363.355 442.848 362.694 439.925 362.694 436.512C362.694 433.013 363.355 430.048 364.678 427.616C366.043 425.184 367.814 423.328 369.99 422.048C372.209 420.768 374.577 420.128 377.094 420.128C379.654 420.128 382.022 420.768 384.198 422.048C386.374 423.328 388.123 425.184 389.446 427.616C390.811 430.048 391.494 433.013 391.494 436.512C391.494 439.925 390.811 442.848 389.446 445.28C388.123 447.712 386.374 449.568 384.198 450.848C382.022 452.128 379.654 452.768 377.094 452.768ZM377.094 448.416C379.782 448.416 381.937 447.328 383.558 445.152C385.222 442.933 386.054 440.053 386.054 436.512C386.054 432.928 385.222 430.027 383.558 427.808C381.937 425.589 379.782 424.48 377.094 424.48C374.449 424.48 372.294 425.589 370.63 427.808C368.966 430.027 368.134 432.928 368.134 436.512C368.134 440.053 368.966 442.933 370.63 445.152C372.294 447.328 374.449 448.416 377.094 448.416ZM422.994 466.336C419.197 466.336 416.103 465.611 413.714 464.16C411.325 462.709 410.13 460.64 410.13 457.952C410.13 456.629 410.535 455.349 411.346 454.112C412.157 452.917 413.266 451.851 414.674 450.912V450.656C413.906 450.187 413.245 449.525 412.69 448.672C412.178 447.819 411.922 446.795 411.922 445.6C411.922 444.277 412.285 443.125 413.01 442.144C413.735 441.163 414.503 440.395 415.314 439.84V439.584C414.29 438.731 413.351 437.579 412.498 436.128C411.687 434.677 411.282 433.035 411.282 431.2C411.282 428.939 411.815 426.976 412.882 425.312C413.949 423.648 415.378 422.368 417.17 421.472C418.962 420.576 420.903 420.128 422.994 420.128C423.847 420.128 424.658 420.213 425.426 420.384C426.194 420.512 426.855 420.683 427.41 420.896H438.226V424.928H431.826C432.551 425.611 433.149 426.528 433.618 427.68C434.13 428.789 434.386 430.005 434.386 431.328C434.386 433.547 433.874 435.467 432.85 437.088C431.826 438.709 430.461 439.968 428.754 440.864C427.047 441.717 425.127 442.144 422.994 442.144C421.33 442.144 419.773 441.781 418.322 441.056C417.767 441.525 417.298 442.059 416.914 442.656C416.53 443.211 416.338 443.915 416.338 444.768C416.338 445.749 416.722 446.56 417.49 447.2C418.301 447.84 419.751 448.16 421.842 448.16H427.858C431.485 448.16 434.194 448.757 435.986 449.952C437.821 451.104 438.738 452.981 438.738 455.584C438.738 457.504 438.098 459.275 436.818 460.896C435.538 462.517 433.725 463.819 431.378 464.8C429.031 465.824 426.237 466.336 422.994 466.336ZM422.994 438.624C424.786 438.624 426.322 437.963 427.602 436.64C428.925 435.275 429.586 433.461 429.586 431.2C429.586 428.939 428.946 427.168 427.666 425.888C426.386 424.608 424.829 423.968 422.994 423.968C421.159 423.968 419.602 424.608 418.322 425.888C417.042 427.168 416.402 428.939 416.402 431.2C416.402 433.461 417.042 435.275 418.322 436.64C419.645 437.963 421.202 438.624 422.994 438.624ZM423.762 462.688C426.749 462.688 429.138 462.027 430.93 460.704C432.722 459.424 433.618 457.973 433.618 456.352C433.618 454.901 433.063 453.899 431.954 453.344C430.887 452.789 429.351 452.512 427.346 452.512H421.97C421.373 452.512 420.711 452.469 419.986 452.384C419.303 452.299 418.621 452.171 417.938 452C416.829 452.811 416.018 453.664 415.506 454.56C414.994 455.456 414.738 456.352 414.738 457.248C414.738 458.912 415.527 460.235 417.106 461.216C418.727 462.197 420.946 462.688 423.762 462.688ZM450.916 452.768C448.313 452.768 446.137 452 444.388 450.464C442.681 448.885 441.828 446.709 441.828 443.936C441.828 440.523 443.343 437.92 446.372 436.128C449.444 434.293 454.287 433.013 460.9 432.288C460.9 430.965 460.708 429.707 460.324 428.512C459.983 427.317 459.343 426.357 458.404 425.632C457.508 424.864 456.207 424.48 454.5 424.48C452.708 424.48 451.023 424.821 449.444 425.504C447.865 426.187 446.457 426.955 445.22 427.808L443.172 424.16C444.623 423.221 446.393 422.325 448.484 421.472C450.617 420.576 452.921 420.128 455.396 420.128C459.193 420.128 461.945 421.301 463.652 423.648C465.359 425.952 466.212 429.045 466.212 432.928V452H461.86L461.412 448.288H461.22C459.769 449.483 458.169 450.528 456.42 451.424C454.713 452.32 452.879 452.768 450.916 452.768ZM452.452 448.544C453.945 448.544 455.353 448.181 456.676 447.456C457.999 446.731 459.407 445.707 460.9 444.384V435.744C455.737 436.384 452.111 437.344 450.02 438.624C447.972 439.904 446.948 441.547 446.948 443.552C446.948 445.301 447.481 446.581 448.548 447.392C449.615 448.16 450.916 448.544 452.452 448.544ZM481.566 452.768C479.603 452.768 478.174 452.171 477.278 450.976C476.425 449.739 475.998 447.989 475.998 445.728V406.432H481.246V446.112C481.246 446.923 481.395 447.52 481.694 447.904C481.993 448.245 482.334 448.416 482.718 448.416C482.889 448.416 483.038 448.416 483.166 448.416C483.337 448.373 483.571 448.331 483.87 448.288L484.574 452.256C484.233 452.427 483.827 452.555 483.358 452.64C482.889 452.725 482.291 452.768 481.566 452.768ZM497.879 452.768C495.916 452.768 494.487 452.171 493.591 450.976C492.737 449.739 492.311 447.989 492.311 445.728V406.432H497.559V446.112C497.559 446.923 497.708 447.52 498.007 447.904C498.305 448.245 498.647 448.416 499.031 448.416C499.201 448.416 499.351 448.416 499.479 448.416C499.649 448.373 499.884 448.331 500.183 448.288L500.887 452.256C500.545 452.427 500.14 452.555 499.671 452.64C499.201 452.725 498.604 452.768 497.879 452.768ZM521.231 452.768C518.458 452.768 515.94 452.128 513.679 450.848C511.418 449.525 509.626 447.648 508.303 445.216C506.98 442.784 506.319 439.883 506.319 436.512C506.319 433.099 506.98 430.176 508.303 427.744C509.668 425.312 511.418 423.435 513.551 422.112C515.684 420.789 517.924 420.128 520.271 420.128C524.239 420.128 527.29 421.451 529.423 424.096C531.599 426.741 532.687 430.283 532.687 434.72C532.687 435.275 532.666 435.829 532.623 436.384C532.623 436.896 532.58 437.344 532.495 437.728H511.503C511.716 441.013 512.74 443.637 514.575 445.6C516.452 447.563 518.884 448.544 521.871 448.544C523.364 448.544 524.73 448.331 525.967 447.904C527.247 447.435 528.463 446.837 529.615 446.112L531.471 449.568C530.148 450.421 528.634 451.168 526.927 451.808C525.263 452.448 523.364 452.768 521.231 452.768ZM511.439 433.952H528.079C528.079 430.795 527.396 428.405 526.031 426.784C524.708 425.12 522.831 424.288 520.399 424.288C518.223 424.288 516.26 425.141 514.511 426.848C512.804 428.512 511.78 430.88 511.439 433.952ZM540.373 452V420.896H544.725L545.173 426.528H545.365C546.432 424.565 547.733 423.008 549.269 421.856C550.805 420.704 552.448 420.128 554.197 420.128C555.434 420.128 556.544 420.341 557.525 420.768L556.501 425.376C555.989 425.205 555.52 425.077 555.093 424.992C554.666 424.907 554.133 424.864 553.493 424.864C552.17 424.864 550.784 425.397 549.333 426.464C547.925 427.531 546.688 429.387 545.621 432.032V452H540.373ZM564.698 465.376C564.015 465.376 563.354 465.312 562.714 465.184C562.116 465.056 561.562 464.907 561.049 464.736L562.074 460.576C562.415 460.661 562.799 460.747 563.226 460.832C563.652 460.96 564.058 461.024 564.442 461.024C566.191 461.024 567.642 460.384 568.794 459.104C569.946 457.867 570.842 456.288 571.482 454.368L572.186 452.064L559.706 420.896H565.146L571.482 438.112C571.951 439.435 572.442 440.864 572.954 442.4C573.508 443.936 574.02 445.429 574.49 446.88H574.746C575.215 445.472 575.663 444 576.09 442.464C576.516 440.928 576.943 439.477 577.37 438.112L582.938 420.896H588.058L576.346 454.56C575.62 456.608 574.746 458.443 573.722 460.064C572.74 461.685 571.503 462.965 570.01 463.904C568.559 464.885 566.788 465.376 564.698 465.376Z" fill="#262730"/>
<g filter="url(#filter0_d_1333_338)">
<path d="M484.865 495.303L431 441V515.181L448.031 499.025L462.165 532.971C463.012 535.007 465.347 535.972 467.385 535.13L472.178 533.149C474.229 532.301 475.197 529.946 474.336 527.9L460.607 495.303H484.865Z" fill="#0E1117" stroke="white" stroke-width="3"/>
</g>
<g clip-path="url(#clip0_1333_338)">
<path d="M457.75 238.292H403.25C400.752 238.292 398.708 236.248 398.708 233.75V179.25C398.708 176.752 400.752 174.708 403.25 174.708H425.958C428.456 174.708 430.5 172.665 430.5 170.167C430.5 167.669 428.456 165.625 425.958 165.625H398.708C393.667 165.625 389.625 169.712 389.625 174.708V238.292C389.625 243.287 393.712 247.375 398.708 247.375H462.292C467.287 247.375 471.375 243.287 471.375 238.292V211.042C471.375 208.544 469.331 206.5 466.833 206.5C464.335 206.5 462.292 208.544 462.292 211.042V233.75C462.292 236.248 460.248 238.292 457.75 238.292ZM439.583 170.167C439.583 172.665 441.627 174.708 444.125 174.708H455.888L414.422 216.174C412.651 217.945 412.651 220.806 414.422 222.577C416.194 224.349 419.055 224.349 420.826 222.577L462.292 181.112V192.875C462.292 195.373 464.335 197.417 466.833 197.417C469.331 197.417 471.375 195.373 471.375 192.875V170.167C471.375 167.669 469.331 165.625 466.833 165.625H444.125C441.627 165.625 439.583 167.669 439.583 170.167Z" fill="#FACA2B"/>
</g>
<path d="M388.931 396.423C393.03 397.014 396.833 394.169 397.423 390.069C398.014 385.97 395.169 382.167 391.069 381.577L388.931 396.423ZM370.397 261L377.618 258.972L375.874 252.762L369.473 253.557L370.397 261ZM390 389C391.069 381.577 391.072 381.577 391.075 381.577C391.076 381.578 391.079 381.578 391.08 381.578C391.083 381.579 391.086 381.579 391.087 381.579C391.091 381.58 391.091 381.58 391.09 381.58C391.086 381.579 391.072 381.577 391.048 381.573C390.999 381.565 390.911 381.551 390.785 381.529C390.533 381.485 390.131 381.411 389.599 381.3C388.534 381.078 386.956 380.709 385.021 380.143C381.132 379.005 375.908 377.098 370.533 374.039C359.85 367.959 348.911 357.584 346.022 339.58L331.212 341.956C335.029 365.748 349.782 379.489 363.114 387.076C369.747 390.851 376.11 393.165 380.808 394.539C383.166 395.23 385.131 395.691 386.535 395.984C387.238 396.13 387.803 396.235 388.208 396.306C388.411 396.341 388.574 396.368 388.696 396.387C388.756 396.397 388.806 396.405 388.846 396.411C388.865 396.414 388.882 396.416 388.896 396.418C388.903 396.419 388.91 396.42 388.916 396.421C388.918 396.422 388.922 396.422 388.924 396.422C388.927 396.423 388.931 396.423 390 389ZM346.022 339.58C343.075 321.213 350.029 303.134 358.432 289.054C362.579 282.107 366.936 276.373 370.255 272.382C371.911 270.391 373.297 268.846 374.254 267.815C374.732 267.299 375.103 266.913 375.345 266.664C375.466 266.54 375.554 266.45 375.609 266.395C375.636 266.368 375.654 266.349 375.664 266.34C375.668 266.335 375.671 266.333 375.671 266.333C375.671 266.333 375.671 266.333 375.67 266.334C375.669 266.335 375.668 266.336 375.668 266.336C375.666 266.337 375.665 266.339 370.397 261C365.13 255.661 365.128 255.663 365.126 255.665C365.125 255.666 365.123 255.668 365.121 255.669C365.118 255.673 365.114 255.677 365.109 255.681C365.1 255.69 365.089 255.702 365.075 255.715C365.048 255.743 365.011 255.779 364.965 255.825C364.874 255.917 364.748 256.045 364.589 256.209C364.27 256.537 363.82 257.007 363.259 257.612C362.138 258.82 360.57 260.569 358.722 262.791C355.034 267.225 350.189 273.597 345.552 281.367C336.388 296.721 327.452 318.526 331.212 341.956L346.022 339.58ZM363.176 263.028L376.325 309.851L390.766 305.796L377.618 258.972L363.176 263.028ZM369.473 253.557L318.075 259.942L319.925 274.828L371.322 268.443L369.473 253.557Z" fill="#FACA2B"/>
<defs>
<filter id="filter0_d_1333_338" x="421.5" y="433.358" width="74.9648" height="115.577" filterUnits="userSpaceOnUse" color-interpolation-filters="sRGB">
<feFlood flood-opacity="0" result="BackgroundImageFix"/>
<feColorMatrix in="SourceAlpha" type="matrix" values="0 0 0 0 0 0 0 0 0 0 0 0 0 0 0 0 0 0 127 0" result="hardAlpha"/>
<feOffset dy="4"/>
<feGaussianBlur stdDeviation="4"/>
<feComposite in2="hardAlpha" operator="out"/>
<feColorMatrix type="matrix" values="0 0 0 0 0 0 0 0 0 0 0 0 0 0 0 0 0 0 0.25 0"/>
<feBlend mode="normal" in2="BackgroundImageFix" result="effect1_dropShadow_1333_338"/>
<feBlend mode="normal" in="SourceGraphic" in2="effect1_dropShadow_1333_338" result="shape"/>
</filter>
<clipPath id="clip0_1333_338">
<rect width="109" height="109" fill="white" transform="translate(376 152)"/>
</clipPath>
</defs>
</svg>
