<svg width="862" height="862" viewBox="0 0 862 862" fill="none" xmlns="http://www.w3.org/2000/svg">
<rect width="862" height="862" fill="white"/>
<g filter="url(#filter0_d_1379_344)">
<rect x="32" y="315" width="798" height="347" rx="19" stroke="#D6D6D8" stroke-width="2" shape-rendering="crispEdges"/>
</g>
<rect x="32" y="200" width="240" height="94" rx="19" stroke="#D6D6D8" stroke-width="2"/>
<path d="M73.88 260.48C72.04 260.48 70.3333 260.133 68.76 259.44C67.1867 258.72 65.8267 257.773 64.68 256.6L66.68 254.28C67.6133 255.267 68.7067 256.067 69.96 256.68C71.24 257.267 72.56 257.56 73.92 257.56C75.6533 257.56 77 257.173 77.96 256.4C78.92 255.6 79.4 254.56 79.4 253.28C79.4 252.373 79.2 251.653 78.8 251.12C78.4267 250.587 77.9067 250.133 77.24 249.76C76.6 249.387 75.8667 249.013 75.04 248.64L71.28 247C70.4533 246.653 69.6267 246.2 68.8 245.64C68 245.08 67.32 244.36 66.76 243.48C66.2267 242.6 65.96 241.52 65.96 240.24C65.96 238.907 66.3067 237.72 67 236.68C67.72 235.613 68.7067 234.787 69.96 234.2C71.2133 233.587 72.6267 233.28 74.2 233.28C75.7733 233.28 77.2267 233.587 78.56 234.2C79.8933 234.787 81.0267 235.56 81.96 236.52L80.16 238.68C79.36 237.907 78.4667 237.307 77.48 236.88C76.52 236.427 75.4267 236.2 74.2 236.2C72.7333 236.2 71.5467 236.547 70.64 237.24C69.76 237.933 69.32 238.867 69.32 240.04C69.32 240.867 69.5333 241.56 69.96 242.12C70.4133 242.653 70.9733 243.093 71.64 243.44C72.3067 243.787 72.9867 244.107 73.68 244.4L77.4 246C78.4133 246.427 79.32 246.947 80.12 247.56C80.9467 248.147 81.6 248.88 82.08 249.76C82.56 250.613 82.8 251.693 82.8 253C82.8 254.387 82.44 255.653 81.72 256.8C81 257.92 79.9733 258.813 78.64 259.48C77.3067 260.147 75.72 260.48 73.88 260.48ZM95.5272 260.48C93.7939 260.48 92.2205 260.08 90.8072 259.28C89.3939 258.453 88.2739 257.28 87.4472 255.76C86.6205 254.24 86.2072 252.427 86.2072 250.32C86.2072 248.187 86.6205 246.36 87.4472 244.84C88.3005 243.32 89.3939 242.147 90.7272 241.32C92.0605 240.493 93.4605 240.08 94.9272 240.08C97.4072 240.08 99.3139 240.907 100.647 242.56C102.007 244.213 102.687 246.427 102.687 249.2C102.687 249.547 102.674 249.893 102.647 250.24C102.647 250.56 102.621 250.84 102.567 251.08H89.4472C89.5805 253.133 90.2205 254.773 91.3672 256C92.5405 257.227 94.0605 257.84 95.9272 257.84C96.8605 257.84 97.7139 257.707 98.4872 257.44C99.2872 257.147 100.047 256.773 100.767 256.32L101.927 258.48C101.101 259.013 100.154 259.48 99.0872 259.88C98.0472 260.28 96.8605 260.48 95.5272 260.48ZM89.4072 248.72H99.8072C99.8072 246.747 99.3805 245.253 98.5272 244.24C97.7005 243.2 96.5272 242.68 95.0072 242.68C93.6472 242.68 92.4205 243.213 91.3272 244.28C90.2605 245.32 89.6205 246.8 89.4072 248.72ZM113.22 260.48C111.14 260.48 109.687 259.88 108.86 258.68C108.06 257.48 107.66 255.92 107.66 254V243.24H104.78V240.76L107.82 240.56L108.22 235.12H110.98V240.56H116.22V243.24H110.98V254.04C110.98 255.24 111.194 256.173 111.62 256.84C112.074 257.48 112.86 257.8 113.98 257.8C114.327 257.8 114.7 257.747 115.1 257.64C115.5 257.507 115.86 257.387 116.18 257.28L116.82 259.76C116.287 259.947 115.7 260.107 115.06 260.24C114.447 260.4 113.834 260.48 113.22 260.48ZM125.955 260.48C123.875 260.48 122.421 259.88 121.595 258.68C120.795 257.48 120.395 255.92 120.395 254V243.24H117.515V240.76L120.555 240.56L120.955 235.12H123.715V240.56H128.955V243.24H123.715V254.04C123.715 255.24 123.928 256.173 124.355 256.84C124.808 257.48 125.595 257.8 126.715 257.8C127.061 257.8 127.435 257.747 127.835 257.64C128.235 257.507 128.595 257.387 128.915 257.28L129.555 259.76C129.021 259.947 128.435 260.107 127.795 260.24C127.181 260.4 126.568 260.48 125.955 260.48ZM133.35 260V240.56H136.63V260H133.35ZM135.03 236.56C134.39 236.56 133.857 236.373 133.43 236C133.03 235.6 132.83 235.067 132.83 234.4C132.83 233.76 133.03 233.24 133.43 232.84C133.857 232.44 134.39 232.24 135.03 232.24C135.67 232.24 136.19 232.44 136.59 232.84C137.017 233.24 137.23 233.76 137.23 234.4C137.23 235.067 137.017 235.6 136.59 236C136.19 236.373 135.67 236.56 135.03 236.56ZM143.194 260V240.56H145.914L146.194 243.36H146.314C147.247 242.427 148.234 241.653 149.274 241.04C150.314 240.4 151.501 240.08 152.834 240.08C154.887 240.08 156.381 240.733 157.314 242.04C158.274 243.32 158.754 245.2 158.754 247.68V260H155.474V248.12C155.474 246.307 155.181 244.987 154.594 244.16C154.007 243.333 153.074 242.92 151.794 242.92C150.807 242.92 149.914 243.173 149.114 243.68C148.341 244.187 147.461 244.933 146.474 245.92V260H143.194ZM171.629 268.96C169.256 268.96 167.322 268.507 165.829 267.6C164.336 266.693 163.589 265.4 163.589 263.72C163.589 262.893 163.842 262.093 164.349 261.32C164.856 260.573 165.549 259.907 166.429 259.32V259.16C165.949 258.867 165.536 258.453 165.189 257.92C164.869 257.387 164.709 256.747 164.709 256C164.709 255.173 164.936 254.453 165.389 253.84C165.842 253.227 166.322 252.747 166.829 252.4V252.24C166.189 251.707 165.602 250.987 165.069 250.08C164.562 249.173 164.309 248.147 164.309 247C164.309 245.587 164.642 244.36 165.309 243.32C165.976 242.28 166.869 241.48 167.989 240.92C169.109 240.36 170.322 240.08 171.629 240.08C172.162 240.08 172.669 240.133 173.149 240.24C173.629 240.32 174.042 240.427 174.389 240.56H181.149V243.08H177.149C177.602 243.507 177.976 244.08 178.269 244.8C178.589 245.493 178.749 246.253 178.749 247.08C178.749 248.467 178.429 249.667 177.789 250.68C177.149 251.693 176.296 252.48 175.229 253.04C174.162 253.573 172.962 253.84 171.629 253.84C170.589 253.84 169.616 253.613 168.709 253.16C168.362 253.453 168.069 253.787 167.829 254.16C167.589 254.507 167.469 254.947 167.469 255.48C167.469 256.093 167.709 256.6 168.189 257C168.696 257.4 169.602 257.6 170.909 257.6H174.669C176.936 257.6 178.629 257.973 179.749 258.72C180.896 259.44 181.469 260.613 181.469 262.24C181.469 263.44 181.069 264.547 180.269 265.56C179.469 266.573 178.336 267.387 176.869 268C175.402 268.64 173.656 268.96 171.629 268.96ZM171.629 251.64C172.749 251.64 173.709 251.227 174.509 250.4C175.336 249.547 175.749 248.413 175.749 247C175.749 245.587 175.349 244.48 174.549 243.68C173.749 242.88 172.776 242.48 171.629 242.48C170.482 242.48 169.509 242.88 168.709 243.68C167.909 244.48 167.509 245.587 167.509 247C167.509 248.413 167.909 249.547 168.709 250.4C169.536 251.227 170.509 251.64 171.629 251.64ZM172.109 266.68C173.976 266.68 175.469 266.267 176.589 265.44C177.709 264.64 178.269 263.733 178.269 262.72C178.269 261.813 177.922 261.187 177.229 260.84C176.562 260.493 175.602 260.32 174.349 260.32H170.989C170.616 260.32 170.202 260.293 169.749 260.24C169.322 260.187 168.896 260.107 168.469 260C167.776 260.507 167.269 261.04 166.949 261.6C166.629 262.16 166.469 262.72 166.469 263.28C166.469 264.32 166.962 265.147 167.949 265.76C168.962 266.373 170.349 266.68 172.109 266.68ZM190.305 260.48C188.919 260.48 187.599 260.227 186.345 259.72C185.092 259.187 183.999 258.547 183.065 257.8L184.705 255.6C185.559 256.267 186.439 256.827 187.345 257.28C188.252 257.707 189.279 257.92 190.425 257.92C191.705 257.92 192.665 257.627 193.305 257.04C193.945 256.427 194.265 255.707 194.265 254.88C194.265 254.213 194.039 253.653 193.585 253.2C193.159 252.747 192.599 252.373 191.905 252.08C191.239 251.76 190.545 251.467 189.825 251.2C188.919 250.853 188.025 250.467 187.145 250.04C186.265 249.587 185.545 249.013 184.985 248.32C184.425 247.6 184.145 246.693 184.145 245.6C184.145 244.027 184.732 242.72 185.905 241.68C187.105 240.613 188.759 240.08 190.865 240.08C192.065 240.08 193.185 240.293 194.225 240.72C195.265 241.147 196.159 241.667 196.905 242.28L195.305 244.36C194.639 243.853 193.945 243.44 193.225 243.12C192.505 242.8 191.719 242.64 190.865 242.64C189.639 242.64 188.732 242.92 188.145 243.48C187.585 244.04 187.305 244.693 187.305 245.44C187.305 246.053 187.505 246.56 187.905 246.96C188.305 247.333 188.825 247.667 189.465 247.96C190.105 248.227 190.785 248.507 191.505 248.8C192.439 249.147 193.359 249.547 194.265 250C195.172 250.427 195.919 251.013 196.505 251.76C197.119 252.48 197.425 253.453 197.425 254.68C197.425 255.72 197.145 256.68 196.585 257.56C196.052 258.44 195.252 259.147 194.185 259.68C193.145 260.213 191.852 260.48 190.305 260.48Z" fill="#262730"/>
<path d="M221.24 257.42L229 249.66L236.76 257.42C237.54 258.2 238.8 258.2 239.58 257.42C240.36 256.64 240.36 255.38 239.58 254.6L230.4 245.42C229.62 244.64 228.36 244.64 227.58 245.42L218.4 254.6C217.62 255.38 217.62 256.64 218.4 257.42C219.18 258.18 220.46 258.2 221.24 257.42V257.42Z" fill="#323232"/>
<rect x="58" y="341" width="746" height="295" fill="white"/>
<rect x="58" y="341" width="746" height="295" stroke="#00C0F2" stroke-width="10" stroke-linejoin="round" stroke-dasharray="50 20"/>
<rect x="75" y="358" width="712" height="76.3333" rx="3" fill="#E0FEFF"/>
<rect x="75" y="450.333" width="712" height="76.3333" rx="3" fill="#E0FEFF"/>
<rect x="75" y="542.667" width="712" height="76.3333" rx="3" fill="#E0FEFF"/>
<g style="mix-blend-mode:multiply">
<rect x="66.5" y="244.5" width="169" height="9" fill="white"/>
<rect x="66.5" y="244.5" width="169" height="9" stroke="#00C0F2" stroke-width="9" stroke-linejoin="round"/>
</g>
<path d="M300.198 232.596C296.109 231.935 292.258 234.713 291.596 238.802C290.935 242.891 293.713 246.742 297.802 247.404L300.198 232.596ZM291.558 415.865C292.072 419.975 295.82 422.891 299.93 422.377L366.91 414.008C371.02 413.495 373.935 409.746 373.422 405.636C372.908 401.526 369.16 398.61 365.05 399.124L305.513 406.563L298.073 347.026C297.56 342.916 293.811 340 289.701 340.514C285.591 341.028 282.675 344.776 283.189 348.886L291.558 415.865ZM299 240C297.802 247.404 297.799 247.403 297.795 247.403C297.794 247.402 297.791 247.402 297.79 247.402C297.786 247.401 297.783 247.401 297.781 247.4C297.777 247.4 297.775 247.399 297.776 247.399C297.777 247.4 297.789 247.402 297.811 247.406C297.855 247.413 297.938 247.429 298.059 247.452C298.301 247.5 298.692 247.581 299.212 247.702C300.253 247.946 301.803 248.353 303.709 248.979C307.535 250.237 312.698 252.351 318.023 255.755C328.539 262.477 339.74 274.211 342.706 294.969L357.555 292.848C353.847 266.891 339.483 251.67 326.102 243.117C319.479 238.883 313.111 236.28 308.393 234.729C306.026 233.951 304.051 233.43 302.635 233.098C301.926 232.932 301.355 232.813 300.942 232.732C300.736 232.692 300.569 232.661 300.444 232.639C300.382 232.627 300.33 232.618 300.289 232.611C300.268 232.608 300.25 232.605 300.235 232.602C300.228 232.601 300.221 232.6 300.214 232.599C300.211 232.598 300.207 232.598 300.206 232.598C300.202 232.597 300.198 232.596 299 240ZM342.706 294.969C344.14 305.007 342.151 317.136 337.837 330.17C333.556 343.101 327.192 356.318 320.518 368.287C313.857 380.231 306.978 390.772 301.756 398.333C299.149 402.108 296.964 405.129 295.437 407.196C294.674 408.23 294.077 409.024 293.674 409.555C293.472 409.821 293.32 410.02 293.22 410.15C293.17 410.215 293.133 410.263 293.109 410.293C293.098 410.308 293.089 410.319 293.085 410.325C293.082 410.328 293.081 410.33 293.08 410.331C293.08 410.332 293.08 410.332 293.08 410.332C293.08 410.331 293.081 410.33 299 414.935C304.92 419.54 304.921 419.539 304.923 419.537C304.923 419.536 304.925 419.534 304.926 419.533C304.929 419.529 304.933 419.524 304.937 419.518C304.947 419.506 304.959 419.49 304.975 419.469C305.008 419.428 305.053 419.368 305.113 419.291C305.231 419.137 305.402 418.914 305.622 418.624C306.063 418.043 306.7 417.195 307.505 416.106C309.114 413.927 311.392 410.777 314.1 406.856C319.508 399.024 326.662 388.067 333.618 375.593C340.56 363.145 347.396 349.025 352.077 334.884C356.723 320.846 359.458 306.167 357.555 292.848L342.706 294.969Z" fill="#00C0F2"/>
<g filter="url(#filter1_d_1379_344)">
<path d="M166.865 330.303L113 276V350.181L130.031 334.025L144.165 367.971C145.012 370.007 147.347 370.972 149.385 370.13L154.178 368.149C156.229 367.301 157.197 364.946 156.336 362.9L142.607 330.303H166.865Z" fill="#0E1117" stroke="white" stroke-width="3"/>
</g>
<defs>
<filter id="filter0_d_1379_344" x="1" y="288" width="860" height="409" filterUnits="userSpaceOnUse" color-interpolation-filters="sRGB">
<feFlood flood-opacity="0" result="BackgroundImageFix"/>
<feColorMatrix in="SourceAlpha" type="matrix" values="0 0 0 0 0 0 0 0 0 0 0 0 0 0 0 0 0 0 127 0" result="hardAlpha"/>
<feMorphology radius="10" operator="dilate" in="SourceAlpha" result="effect1_dropShadow_1379_344"/>
<feOffset dy="4"/>
<feGaussianBlur stdDeviation="10"/>
<feComposite in2="hardAlpha" operator="out"/>
<feColorMatrix type="matrix" values="0 0 0 0 0 0 0 0 0 0 0 0 0 0 0 0 0 0 0.1 0"/>
<feBlend mode="normal" in2="BackgroundImageFix" result="effect1_dropShadow_1379_344"/>
<feBlend mode="normal" in="SourceGraphic" in2="effect1_dropShadow_1379_344" result="shape"/>
</filter>
<filter id="filter1_d_1379_344" x="103.5" y="268.358" width="74.9657" height="115.577" filterUnits="userSpaceOnUse" color-interpolation-filters="sRGB">
<feFlood flood-opacity="0" result="BackgroundImageFix"/>
<feColorMatrix in="SourceAlpha" type="matrix" values="0 0 0 0 0 0 0 0 0 0 0 0 0 0 0 0 0 0 127 0" result="hardAlpha"/>
<feOffset dy="4"/>
<feGaussianBlur stdDeviation="4"/>
<feComposite in2="hardAlpha" operator="out"/>
<feColorMatrix type="matrix" values="0 0 0 0 0 0 0 0 0 0 0 0 0 0 0 0 0 0 0.25 0"/>
<feBlend mode="normal" in2="BackgroundImageFix" result="effect1_dropShadow_1379_344"/>
<feBlend mode="normal" in="SourceGraphic" in2="effect1_dropShadow_1379_344" result="shape"/>
</filter>
</defs>
</svg>
