<svg width="862" height="816" viewBox="0 0 862 816" fill="none" xmlns="http://www.w3.org/2000/svg">
<rect width="862" height="816" fill="white"/>
<g clip-path="url(#clip0_1042_370)">
<path d="M831 209H31V607H831V209Z" fill="white"/>
<path d="M73.6133 466.563H830.431" stroke="#E6EAF1" stroke-miterlimit="10"/>
<path d="M73.6133 409.706H830.431" stroke="#E6EAF1" stroke-miterlimit="10"/>
<path d="M73.6133 353.986H830.431" stroke="#E6EAF1" stroke-miterlimit="10"/>
<path d="M73.6133 297.128H830.431" stroke="#E6EAF1" stroke-miterlimit="10"/>
<path d="M73.6133 240.271H830.431" stroke="#E6EAF1" stroke-miterlimit="10"/>
<path d="M76.2285 521.894C75.5865 521.894 75.0396 521.719 74.5879 521.37C74.1362 521.017 73.791 520.507 73.5524 519.84C73.3137 519.169 73.1944 518.36 73.1944 517.411C73.1944 516.468 73.3137 515.662 73.5524 514.995C73.7939 514.324 74.1404 513.813 74.5922 513.46C75.0467 513.105 75.5922 512.928 76.2285 512.928C76.8649 512.928 77.4089 513.105 77.8606 513.46C78.3152 513.813 78.6618 514.324 78.9004 514.995C79.1419 515.662 79.2626 516.468 79.2626 517.411C79.2626 518.36 79.1433 519.169 78.9047 519.84C78.666 520.507 78.3208 521.017 77.8691 521.37C77.4174 521.719 76.8706 521.894 76.2285 521.894ZM76.2285 520.956C76.8649 520.956 77.3592 520.649 77.7115 520.036C78.0637 519.422 78.2399 518.547 78.2399 517.411C78.2399 516.655 78.1589 516.012 77.997 515.48C77.8379 514.949 77.6078 514.544 77.3066 514.266C77.0083 513.987 76.649 513.848 76.2285 513.848C75.5978 513.848 75.1049 514.159 74.7498 514.782C74.3947 515.401 74.2172 516.277 74.2172 517.411C74.2172 518.166 74.2967 518.809 74.4558 519.337C74.6149 519.865 74.8436 520.267 75.1419 520.543C75.443 520.818 75.8052 520.956 76.2285 520.956Z" fill="#808495"/>
<path d="M112.638 513.047V521.774H111.582V514.155H111.531L109.4 515.57V514.496L111.582 513.047H112.638Z" fill="#808495"/>
<path d="M146.568 521.774V521.007L149.449 517.854C149.787 517.485 150.065 517.164 150.284 516.891C150.503 516.615 150.665 516.357 150.77 516.115C150.878 515.871 150.932 515.615 150.932 515.348C150.932 515.041 150.858 514.776 150.71 514.551C150.565 514.327 150.366 514.154 150.113 514.032C149.861 513.909 149.577 513.848 149.261 513.848C148.926 513.848 148.633 513.918 148.383 514.057C148.136 514.193 147.944 514.385 147.808 514.632C147.675 514.88 147.608 515.169 147.608 515.502H146.602C146.602 514.99 146.72 514.541 146.956 514.155C147.192 513.769 147.513 513.468 147.919 513.252C148.328 513.036 148.787 512.928 149.295 512.928C149.807 512.928 150.26 513.036 150.655 513.252C151.05 513.468 151.359 513.759 151.584 514.125C151.808 514.492 151.92 514.899 151.92 515.348C151.92 515.669 151.862 515.983 151.746 516.29C151.632 516.594 151.433 516.934 151.149 517.309C150.868 517.681 150.477 518.135 149.977 518.672L148.017 520.769V520.837H152.074V521.774H146.568Z" fill="#808495"/>
<path d="M187.169 521.894C186.607 521.894 186.105 521.797 185.665 521.604C185.227 521.411 184.879 521.142 184.621 520.799C184.365 520.452 184.226 520.05 184.203 519.593H185.277C185.3 519.874 185.396 520.117 185.567 520.321C185.737 520.523 185.96 520.679 186.236 520.79C186.512 520.901 186.817 520.956 187.152 520.956C187.527 520.956 187.86 520.891 188.149 520.76C188.439 520.63 188.666 520.448 188.831 520.215C188.996 519.982 189.078 519.712 189.078 519.405C189.078 519.084 188.999 518.801 188.84 518.557C188.681 518.31 188.448 518.117 188.141 517.978C187.834 517.838 187.459 517.769 187.016 517.769H186.317V516.831H187.016C187.362 516.831 187.666 516.769 187.928 516.644C188.192 516.519 188.398 516.343 188.546 516.115C188.696 515.888 188.771 515.621 188.771 515.314C188.771 515.019 188.706 514.762 188.575 514.543C188.445 514.324 188.26 514.154 188.021 514.032C187.786 513.909 187.507 513.848 187.186 513.848C186.885 513.848 186.601 513.904 186.334 514.014C186.07 514.122 185.854 514.28 185.686 514.487C185.519 514.692 185.428 514.939 185.414 515.229H184.391C184.408 514.772 184.546 514.371 184.804 514.027C185.063 513.681 185.401 513.411 185.818 513.218C186.239 513.024 186.7 512.928 187.203 512.928C187.743 512.928 188.206 513.037 188.593 513.256C188.979 513.472 189.276 513.757 189.483 514.112C189.691 514.468 189.794 514.851 189.794 515.263C189.794 515.755 189.665 516.174 189.406 516.52C189.151 516.867 188.803 517.107 188.362 517.24V517.309C188.914 517.399 189.344 517.634 189.654 518.012C189.963 518.387 190.118 518.851 190.118 519.405C190.118 519.88 189.989 520.306 189.73 520.684C189.475 521.059 189.125 521.354 188.682 521.57C188.239 521.786 187.735 521.894 187.169 521.894Z" fill="#808495"/>
<path d="M221.828 519.985V519.115L225.664 513.047H226.294V514.394H225.868L222.97 518.979V519.047H228.135V519.985H221.828ZM225.936 521.774V519.72V519.316V513.047H226.942V521.774H225.936Z" fill="#808495"/>
<path d="M262.799 521.894C262.299 521.894 261.849 521.794 261.448 521.595C261.048 521.397 260.727 521.124 260.485 520.777C260.244 520.431 260.112 520.036 260.089 519.593H261.112C261.151 519.987 261.33 520.314 261.649 520.573C261.97 520.828 262.353 520.956 262.799 520.956C263.157 520.956 263.475 520.872 263.754 520.705C264.035 520.537 264.255 520.307 264.414 520.014C264.576 519.719 264.657 519.385 264.657 519.013C264.657 518.632 264.573 518.293 264.406 517.995C264.241 517.693 264.014 517.456 263.724 517.283C263.434 517.11 263.103 517.022 262.731 517.019C262.464 517.016 262.19 517.057 261.909 517.142C261.627 517.225 261.396 517.331 261.214 517.462L260.225 517.343L260.754 513.047H265.288V513.985H261.64L261.333 516.559H261.384C261.563 516.416 261.788 516.299 262.058 516.205C262.328 516.111 262.609 516.064 262.901 516.064C263.436 516.064 263.911 516.192 264.329 516.448C264.749 516.701 265.079 517.047 265.318 517.487C265.559 517.928 265.68 518.431 265.68 518.996C265.68 519.553 265.555 520.05 265.305 520.487C265.058 520.922 264.717 521.266 264.282 521.519C263.847 521.769 263.353 521.894 262.799 521.894Z" fill="#808495"/>
<path d="M300.718 521.894C300.36 521.888 300.002 521.82 299.644 521.689C299.286 521.559 298.959 521.338 298.664 521.029C298.368 520.716 298.131 520.294 297.952 519.763C297.773 519.229 297.684 518.559 297.684 517.752C297.684 516.979 297.756 516.294 297.901 515.698C298.046 515.098 298.256 514.594 298.532 514.185C298.807 513.773 299.14 513.46 299.529 513.247C299.921 513.034 300.363 512.928 300.854 512.928C301.343 512.928 301.777 513.026 302.158 513.222C302.542 513.415 302.854 513.685 303.096 514.032C303.337 514.378 303.493 514.777 303.564 515.229H302.525C302.428 514.837 302.24 514.512 301.962 514.253C301.684 513.995 301.314 513.865 300.854 513.865C300.178 513.865 299.645 514.159 299.256 514.747C298.87 515.335 298.675 516.161 298.672 517.223H298.74C298.9 516.982 299.088 516.776 299.307 516.605C299.529 516.432 299.773 516.299 300.04 516.205C300.307 516.111 300.59 516.064 300.888 516.064C301.388 516.064 301.846 516.189 302.26 516.439C302.675 516.686 303.007 517.029 303.257 517.466C303.507 517.901 303.632 518.399 303.632 518.962C303.632 519.502 303.512 519.996 303.27 520.445C303.029 520.891 302.689 521.246 302.252 521.51C301.817 521.772 301.306 521.899 300.718 521.894ZM300.718 520.956C301.076 520.956 301.397 520.867 301.681 520.688C301.968 520.509 302.194 520.269 302.358 519.968C302.526 519.666 302.61 519.331 302.61 518.962C302.61 518.601 302.529 518.273 302.367 517.978C302.208 517.679 301.988 517.442 301.706 517.266C301.428 517.09 301.11 517.002 300.752 517.002C300.482 517.002 300.23 517.056 299.998 517.164C299.765 517.269 299.56 517.414 299.384 517.598C299.211 517.783 299.074 517.995 298.975 518.233C298.875 518.469 298.826 518.718 298.826 518.979C298.826 519.326 298.907 519.649 299.069 519.951C299.233 520.252 299.458 520.495 299.742 520.679C300.029 520.864 300.354 520.956 300.718 520.956Z" fill="#808495"/>
<path d="M336.249 521.774L340.153 514.053V513.985H335.653V513.047H341.243V514.036L337.357 521.774H336.249Z" fill="#808495"/>
<path d="M376.344 521.894C375.759 521.894 375.242 521.79 374.793 521.583C374.347 521.372 373.999 521.084 373.749 520.718C373.499 520.348 373.375 519.928 373.378 519.456C373.375 519.087 373.448 518.746 373.595 518.434C373.743 518.118 373.945 517.855 374.2 517.645C374.459 517.432 374.747 517.297 375.066 517.24V517.189C374.648 517.081 374.316 516.847 374.068 516.486C373.821 516.122 373.699 515.709 373.702 515.246C373.699 514.803 373.811 514.407 374.039 514.057C374.266 513.708 374.578 513.432 374.976 513.23C375.377 513.029 375.833 512.928 376.344 512.928C376.85 512.928 377.301 513.029 377.699 513.23C378.097 513.432 378.409 513.708 378.637 514.057C378.867 514.407 378.983 514.803 378.986 515.246C378.983 515.709 378.857 516.122 378.607 516.486C378.36 516.847 378.031 517.081 377.622 517.189V517.24C377.938 517.297 378.222 517.432 378.475 517.645C378.727 517.855 378.929 518.118 379.08 518.434C379.23 518.746 379.307 519.087 379.31 519.456C379.307 519.928 379.179 520.348 378.926 520.718C378.676 521.084 378.328 521.372 377.882 521.583C377.439 521.79 376.926 521.894 376.344 521.894ZM376.344 520.956C376.739 520.956 377.08 520.892 377.367 520.764C377.654 520.637 377.875 520.456 378.031 520.223C378.188 519.99 378.267 519.718 378.27 519.405C378.267 519.076 378.182 518.784 378.014 518.532C377.847 518.279 377.618 518.08 377.328 517.935C377.041 517.79 376.713 517.718 376.344 517.718C375.972 517.718 375.639 517.79 375.347 517.935C375.057 518.08 374.828 518.279 374.661 518.532C374.496 518.784 374.415 519.076 374.418 519.405C374.415 519.718 374.49 519.99 374.644 520.223C374.8 520.456 375.023 520.637 375.313 520.764C375.602 520.892 375.946 520.956 376.344 520.956ZM376.344 516.814C376.656 516.814 376.933 516.752 377.175 516.627C377.419 516.502 377.611 516.327 377.75 516.103C377.889 515.878 377.96 515.615 377.963 515.314C377.96 515.019 377.891 514.762 377.754 514.543C377.618 514.321 377.429 514.151 377.188 514.032C376.946 513.909 376.665 513.848 376.344 513.848C376.017 513.848 375.732 513.909 375.487 514.032C375.243 514.151 375.054 514.321 374.921 514.543C374.787 514.762 374.722 515.019 374.725 515.314C374.722 515.615 374.789 515.878 374.925 516.103C375.064 516.327 375.256 516.502 375.5 516.627C375.744 516.752 376.026 516.814 376.344 516.814Z" fill="#808495"/>
<path d="M414.12 512.928C414.478 512.931 414.836 512.999 415.194 513.132C415.552 513.266 415.878 513.487 416.174 513.797C416.469 514.104 416.706 514.523 416.885 515.054C417.064 515.585 417.154 516.252 417.154 517.053C417.154 517.828 417.08 518.517 416.932 519.12C416.787 519.719 416.577 520.225 416.302 520.637C416.029 521.049 415.697 521.361 415.305 521.574C414.915 521.787 414.475 521.894 413.983 521.894C413.495 521.894 413.059 521.797 412.675 521.604C412.295 521.408 411.982 521.137 411.738 520.79C411.496 520.441 411.341 520.036 411.273 519.576H412.313C412.407 519.976 412.593 520.307 412.871 520.568C413.153 520.827 413.523 520.956 413.983 520.956C414.657 520.956 415.188 520.662 415.577 520.074C415.969 519.486 416.165 518.655 416.165 517.581H416.097C415.938 517.82 415.749 518.026 415.53 518.199C415.312 518.372 415.069 518.506 414.802 518.6C414.535 518.693 414.251 518.74 413.949 518.74C413.449 518.74 412.991 518.617 412.573 518.37C412.158 518.12 411.826 517.777 411.576 517.343C411.329 516.905 411.205 516.405 411.205 515.843C411.205 515.309 411.324 514.82 411.563 514.377C411.805 513.931 412.143 513.576 412.577 513.311C413.015 513.047 413.529 512.919 414.12 512.928ZM414.12 513.865C413.762 513.865 413.439 513.955 413.153 514.134C412.868 514.31 412.643 514.549 412.475 514.85C412.31 515.148 412.228 515.479 412.228 515.843C412.228 516.206 412.307 516.537 412.466 516.835C412.628 517.131 412.849 517.367 413.127 517.543C413.408 517.716 413.728 517.803 414.086 517.803C414.356 517.803 414.607 517.75 414.84 517.645C415.073 517.537 415.276 517.391 415.449 517.206C415.626 517.019 415.763 516.807 415.863 516.571C415.962 516.333 416.012 516.084 416.012 515.826C416.012 515.485 415.93 515.165 415.765 514.867C415.603 514.568 415.378 514.327 415.091 514.142C414.807 513.958 414.483 513.865 414.12 513.865Z" fill="#808495"/>
<path d="M449.457 513.047V521.774H448.401V514.155H448.349L446.219 515.57V514.496L448.401 513.047H449.457ZM454.814 521.894C454.172 521.894 453.625 521.719 453.173 521.37C452.722 521.017 452.376 520.507 452.138 519.84C451.899 519.169 451.78 518.36 451.78 517.411C451.78 516.468 451.899 515.662 452.138 514.995C452.379 514.324 452.726 513.813 453.178 513.46C453.632 513.105 454.178 512.928 454.814 512.928C455.45 512.928 455.994 513.105 456.446 513.46C456.901 513.813 457.247 514.324 457.486 514.995C457.727 515.662 457.848 516.468 457.848 517.411C457.848 518.36 457.729 519.169 457.49 519.84C457.251 520.507 456.906 521.017 456.455 521.37C456.003 521.719 455.456 521.894 454.814 521.894ZM454.814 520.956C455.45 520.956 455.945 520.649 456.297 520.036C456.649 519.422 456.825 518.547 456.825 517.411C456.825 516.655 456.744 516.012 456.582 515.48C456.423 514.949 456.193 514.544 455.892 514.266C455.594 513.987 455.234 513.848 454.814 513.848C454.183 513.848 453.69 514.159 453.335 514.782C452.98 515.401 452.803 516.277 452.803 517.411C452.803 518.166 452.882 518.809 453.041 519.337C453.2 519.865 453.429 520.267 453.727 520.543C454.028 520.818 454.391 520.956 454.814 520.956Z" fill="#808495"/>
<path d="M488.259 513.047V521.774H487.202V514.155H487.151L485.02 515.57V514.496L487.202 513.047H488.259ZM493.837 513.047V521.774H492.78V514.155H492.729L490.598 515.57V514.496L492.78 513.047H493.837Z" fill="#808495"/>
<path d="M525.256 513.047V521.774H524.2V514.155H524.148L522.018 515.57V514.496L524.2 513.047H525.256ZM527.766 521.774V521.007L530.647 517.854C530.985 517.485 531.263 517.164 531.482 516.891C531.701 516.615 531.863 516.357 531.968 516.115C532.076 515.871 532.13 515.615 532.13 515.348C532.13 515.041 532.056 514.776 531.908 514.551C531.763 514.327 531.565 514.154 531.312 514.032C531.059 513.909 530.775 513.848 530.46 513.848C530.124 513.848 529.832 513.918 529.582 514.057C529.335 514.193 529.143 514.385 529.006 514.632C528.873 514.88 528.806 515.169 528.806 515.502H527.8C527.8 514.99 527.918 514.541 528.154 514.155C528.39 513.769 528.711 513.468 529.117 513.252C529.526 513.036 529.985 512.928 530.494 512.928C531.005 512.928 531.458 513.036 531.853 513.252C532.248 513.468 532.558 513.759 532.782 514.125C533.006 514.492 533.119 514.899 533.119 515.348C533.119 515.669 533.06 515.983 532.944 516.29C532.83 516.594 532.631 516.934 532.347 517.309C532.066 517.681 531.675 518.135 531.175 518.672L529.215 520.769V520.837H533.272V521.774H527.766Z" fill="#808495"/>
<path d="M562.909 513.047V521.774H561.852V514.155H561.801L559.67 515.57V514.496L561.852 513.047H562.909ZM568.367 521.894C567.805 521.894 567.303 521.797 566.863 521.604C566.426 521.411 566.078 521.142 565.819 520.799C565.563 520.452 565.424 520.05 565.401 519.593H566.475C566.498 519.874 566.595 520.117 566.765 520.321C566.936 520.523 567.159 520.679 567.434 520.79C567.71 520.901 568.015 520.956 568.35 520.956C568.725 520.956 569.058 520.891 569.347 520.76C569.637 520.63 569.865 520.448 570.029 520.215C570.194 519.982 570.276 519.712 570.276 519.405C570.276 519.084 570.197 518.801 570.038 518.557C569.879 518.31 569.646 518.117 569.339 517.978C569.032 517.838 568.657 517.769 568.214 517.769H567.515V516.831H568.214C568.561 516.831 568.865 516.769 569.126 516.644C569.39 516.519 569.596 516.343 569.744 516.115C569.894 515.888 569.97 515.621 569.97 515.314C569.97 515.019 569.904 514.762 569.774 514.543C569.643 514.324 569.458 514.154 569.22 514.032C568.984 513.909 568.705 513.848 568.384 513.848C568.083 513.848 567.799 513.904 567.532 514.014C567.268 514.122 567.052 514.28 566.884 514.487C566.717 514.692 566.626 514.939 566.612 515.229H565.589C565.606 514.772 565.744 514.371 566.002 514.027C566.261 513.681 566.599 513.411 567.017 513.218C567.437 513.024 567.899 512.928 568.401 512.928C568.941 512.928 569.404 513.037 569.791 513.256C570.177 513.472 570.474 513.757 570.681 514.112C570.889 514.468 570.992 514.851 570.992 515.263C570.992 515.755 570.863 516.174 570.605 516.52C570.349 516.867 570.001 517.107 569.561 517.24V517.309C570.112 517.399 570.542 517.634 570.852 518.012C571.161 518.387 571.316 518.851 571.316 519.405C571.316 519.88 571.187 520.306 570.928 520.684C570.673 521.059 570.323 521.354 569.88 521.57C569.437 521.786 568.933 521.894 568.367 521.894Z" fill="#808495"/>
<path d="M600.721 513.047V521.774H599.664V514.155H599.613L597.482 515.57V514.496L599.664 513.047H600.721ZM603.026 519.985V519.115L606.862 513.047H607.492V514.394H607.066L604.169 518.979V519.047H609.333V519.985H603.026ZM607.134 521.774V519.72V519.316V513.047H608.14V521.774H607.134Z" fill="#808495"/>
<path d="M638.76 513.047V521.774H637.703V514.155H637.652L635.522 515.57V514.496L637.703 513.047H638.76ZM643.998 521.894C643.498 521.894 643.047 521.794 642.647 521.595C642.246 521.397 641.925 521.124 641.684 520.777C641.442 520.431 641.31 520.036 641.287 519.593H642.31C642.35 519.987 642.529 520.314 642.847 520.573C643.168 520.828 643.551 520.956 643.998 520.956C644.355 520.956 644.674 520.872 644.952 520.705C645.233 520.537 645.453 520.307 645.613 520.014C645.775 519.719 645.855 519.385 645.855 519.013C645.855 518.632 645.772 518.293 645.604 517.995C645.439 517.693 645.212 517.456 644.922 517.283C644.632 517.11 644.301 517.022 643.929 517.019C643.662 517.016 643.388 517.057 643.107 517.142C642.826 517.225 642.594 517.331 642.412 517.462L641.424 517.343L641.952 513.047H646.486V513.985H642.838L642.532 516.559H642.583C642.762 516.416 642.986 516.299 643.256 516.205C643.526 516.111 643.807 516.064 644.1 516.064C644.634 516.064 645.11 516.192 645.527 516.448C645.948 516.701 646.277 517.047 646.516 517.487C646.757 517.928 646.878 518.431 646.878 518.996C646.878 519.553 646.753 520.05 646.503 520.487C646.256 520.922 645.915 521.266 645.48 521.519C645.046 521.769 644.551 521.894 643.998 521.894Z" fill="#808495"/>
<path d="M676.508 513.047V521.774H675.451V514.155H675.4L673.27 515.57V514.496L675.451 513.047H676.508ZM681.916 521.894C681.558 521.888 681.2 521.82 680.842 521.689C680.484 521.559 680.157 521.338 679.862 521.029C679.566 520.716 679.329 520.294 679.15 519.763C678.971 519.229 678.882 518.559 678.882 517.752C678.882 516.979 678.954 516.294 679.099 515.698C679.244 515.098 679.454 514.594 679.73 514.185C680.005 513.773 680.338 513.46 680.727 513.247C681.119 513.034 681.561 512.928 682.052 512.928C682.541 512.928 682.975 513.026 683.356 513.222C683.74 513.415 684.052 513.685 684.294 514.032C684.535 514.378 684.691 514.777 684.762 515.229H683.723C683.626 514.837 683.439 514.512 683.16 514.253C682.882 513.995 682.512 513.865 682.052 513.865C681.376 513.865 680.843 514.159 680.454 514.747C680.068 515.335 679.873 516.161 679.87 517.223H679.939C680.098 516.982 680.287 516.776 680.505 516.605C680.727 516.432 680.971 516.299 681.238 516.205C681.505 516.111 681.788 516.064 682.086 516.064C682.586 516.064 683.044 516.189 683.458 516.439C683.873 516.686 684.206 517.029 684.456 517.466C684.706 517.901 684.831 518.399 684.831 518.962C684.831 519.502 684.71 519.996 684.468 520.445C684.227 520.891 683.887 521.246 683.45 521.51C683.015 521.772 682.504 521.899 681.916 521.894ZM681.916 520.956C682.274 520.956 682.595 520.867 682.879 520.688C683.166 520.509 683.392 520.269 683.556 519.968C683.724 519.666 683.808 519.331 683.808 518.962C683.808 518.601 683.727 518.273 683.565 517.978C683.406 517.679 683.186 517.442 682.904 517.266C682.626 517.09 682.308 517.002 681.95 517.002C681.68 517.002 681.429 517.056 681.196 517.164C680.963 517.269 680.758 517.414 680.582 517.598C680.409 517.783 680.272 517.995 680.173 518.233C680.074 518.469 680.024 518.718 680.024 518.979C680.024 519.326 680.105 519.649 680.267 519.951C680.431 520.252 680.656 520.495 680.94 520.679C681.227 520.864 681.552 520.956 681.916 520.956Z" fill="#808495"/>
<path d="M714.665 513.047V521.774H713.608V514.155H713.557L711.426 515.57V514.496L713.608 513.047H714.665ZM717.447 521.774L721.351 514.053V513.985H716.851V513.047H722.442V514.036L718.555 521.774H717.447Z" fill="#808495"/>
<path d="M752.237 513.047V521.774H751.18V514.155H751.129L748.998 515.57V514.496L751.18 513.047H752.237ZM757.542 521.894C756.957 521.894 756.44 521.79 755.991 521.583C755.545 521.372 755.197 521.084 754.947 520.718C754.697 520.348 754.574 519.928 754.576 519.456C754.574 519.087 754.646 518.746 754.794 518.434C754.941 518.118 755.143 517.855 755.399 517.645C755.657 517.432 755.946 517.297 756.264 517.24V517.189C755.846 517.081 755.514 516.847 755.267 516.486C755.02 516.122 754.897 515.709 754.9 515.246C754.897 514.803 755.01 514.407 755.237 514.057C755.464 513.708 755.777 513.432 756.174 513.23C756.575 513.029 757.031 512.928 757.542 512.928C758.048 512.928 758.5 513.029 758.897 513.23C759.295 513.432 759.608 513.708 759.835 514.057C760.065 514.407 760.181 514.803 760.184 515.246C760.181 515.709 760.055 516.122 759.805 516.486C759.558 516.847 759.23 517.081 758.821 517.189V517.24C759.136 517.297 759.42 517.432 759.673 517.645C759.926 517.855 760.127 518.118 760.278 518.434C760.429 518.746 760.505 519.087 760.508 519.456C760.505 519.928 760.377 520.348 760.125 520.718C759.875 521.084 759.527 521.372 759.081 521.583C758.637 521.79 758.125 521.894 757.542 521.894ZM757.542 520.956C757.937 520.956 758.278 520.892 758.565 520.764C758.852 520.637 759.074 520.456 759.23 520.223C759.386 519.99 759.466 519.718 759.468 519.405C759.466 519.076 759.38 518.784 759.213 518.532C759.045 518.279 758.816 518.08 758.527 517.935C758.24 517.79 757.912 517.718 757.542 517.718C757.17 517.718 756.838 517.79 756.545 517.935C756.255 518.08 756.027 518.279 755.859 518.532C755.694 518.784 755.613 519.076 755.616 519.405C755.613 519.718 755.689 519.99 755.842 520.223C755.998 520.456 756.221 520.637 756.511 520.764C756.801 520.892 757.145 520.956 757.542 520.956ZM757.542 516.814C757.855 516.814 758.132 516.752 758.373 516.627C758.618 516.502 758.809 516.327 758.949 516.103C759.088 515.878 759.159 515.615 759.162 515.314C759.159 515.019 759.089 514.762 758.953 514.543C758.816 514.321 758.627 514.151 758.386 514.032C758.145 513.909 757.863 513.848 757.542 513.848C757.216 513.848 756.93 513.909 756.686 514.032C756.441 514.151 756.252 514.321 756.119 514.543C755.985 514.762 755.92 515.019 755.923 515.314C755.92 515.615 755.987 515.878 756.123 516.103C756.262 516.327 756.454 516.502 756.699 516.627C756.943 516.752 757.224 516.814 757.542 516.814Z" fill="#808495"/>
<path d="M790.03 513.047V521.774H788.973V514.155H788.922L786.791 515.57V514.496L788.973 513.047H790.03ZM795.318 512.928C795.676 512.931 796.034 512.999 796.392 513.132C796.75 513.266 797.077 513.487 797.372 513.797C797.667 514.104 797.905 514.523 798.084 515.054C798.263 515.585 798.352 516.252 798.352 517.053C798.352 517.828 798.278 518.517 798.131 519.12C797.986 519.719 797.775 520.225 797.5 520.637C797.227 521.049 796.895 521.361 796.503 521.574C796.113 521.787 795.673 521.894 795.182 521.894C794.693 521.894 794.257 521.797 793.873 521.604C793.493 521.408 793.18 521.137 792.936 520.79C792.694 520.441 792.54 520.036 792.471 519.576H793.511C793.605 519.976 793.791 520.307 794.069 520.568C794.351 520.827 794.721 520.956 795.182 520.956C795.855 520.956 796.386 520.662 796.775 520.074C797.167 519.486 797.363 518.655 797.363 517.581H797.295C797.136 517.82 796.947 518.026 796.729 518.199C796.51 518.372 796.267 518.506 796 518.6C795.733 518.693 795.449 518.74 795.148 518.74C794.648 518.74 794.189 518.617 793.771 518.37C793.356 518.12 793.024 517.777 792.774 517.343C792.527 516.905 792.403 516.405 792.403 515.843C792.403 515.309 792.523 514.82 792.761 514.377C793.003 513.931 793.341 513.576 793.775 513.311C794.213 513.047 794.727 512.919 795.318 512.928ZM795.318 513.865C794.96 513.865 794.638 513.955 794.351 514.134C794.067 514.31 793.841 514.549 793.673 514.85C793.508 515.148 793.426 515.479 793.426 515.843C793.426 516.206 793.506 516.537 793.665 516.835C793.827 517.131 794.047 517.367 794.325 517.543C794.606 517.716 794.926 517.803 795.284 517.803C795.554 517.803 795.805 517.75 796.038 517.645C796.271 517.537 796.474 517.391 796.648 517.206C796.824 517.019 796.961 516.807 797.061 516.571C797.16 516.333 797.21 516.084 797.21 515.826C797.21 515.485 797.128 515.165 796.963 514.867C796.801 514.568 796.577 514.327 796.29 514.142C796.006 513.958 795.682 513.865 795.318 513.865Z" fill="#808495"/>
<path d="M817.707 521.774V521.007L820.587 517.854C820.925 517.485 821.204 517.164 821.423 516.891C821.641 516.615 821.803 516.357 821.908 516.115C822.016 515.871 822.07 515.615 822.07 515.348C822.07 515.041 821.996 514.776 821.849 514.551C821.704 514.327 821.505 514.154 821.252 514.032C820.999 513.909 820.715 513.848 820.4 513.848C820.065 513.848 819.772 513.918 819.522 514.057C819.275 514.193 819.083 514.385 818.947 514.632C818.813 514.88 818.746 515.169 818.746 515.502H817.741C817.741 514.99 817.859 514.541 818.094 514.155C818.33 513.769 818.651 513.468 819.058 513.252C819.467 513.036 819.925 512.928 820.434 512.928C820.945 512.928 821.398 513.036 821.793 513.252C822.188 513.468 822.498 513.759 822.722 514.125C822.947 514.492 823.059 514.899 823.059 515.348C823.059 515.669 823.001 515.983 822.884 516.29C822.771 516.594 822.572 516.934 822.288 517.309C822.006 517.681 821.616 518.135 821.116 518.672L819.156 520.769V520.837H823.212V521.774H817.707ZM827.819 521.894C827.177 521.894 826.63 521.719 826.178 521.37C825.727 521.017 825.381 520.507 825.143 519.84C824.904 519.169 824.785 518.36 824.785 517.411C824.785 516.468 824.904 515.662 825.143 514.995C825.384 514.324 825.731 513.813 826.183 513.46C826.637 513.105 827.183 512.928 827.819 512.928C828.455 512.928 828.999 513.105 829.451 513.46C829.906 513.813 830.252 514.324 830.491 514.995C830.732 515.662 830.853 516.468 830.853 517.411C830.853 518.36 830.734 519.169 830.495 519.84C830.256 520.507 829.911 521.017 829.46 521.37C829.008 521.719 828.461 521.894 827.819 521.894ZM827.819 520.956C828.455 520.956 828.95 520.649 829.302 520.036C829.654 519.422 829.83 518.547 829.83 517.411C829.83 516.655 829.749 516.012 829.587 515.48C829.428 514.949 829.198 514.544 828.897 514.266C828.599 513.987 828.239 513.848 827.819 513.848C827.188 513.848 826.695 514.159 826.34 514.782C825.985 515.401 825.808 516.277 825.808 517.411C825.808 518.166 825.887 518.809 826.046 519.337C826.205 519.865 826.434 520.267 826.732 520.543C827.033 520.818 827.396 520.956 827.819 520.956Z" fill="#808495"/>
<path d="M47.3484 464.739V465.693H41.8938V464.739H47.3484ZM49.07 469.58V468.813L51.9506 465.659C52.2887 465.29 52.5671 464.969 52.7859 464.696C53.0046 464.42 53.1665 464.162 53.2717 463.92C53.3796 463.676 53.4336 463.42 53.4336 463.153C53.4336 462.847 53.3597 462.581 53.212 462.357C53.0671 462.132 52.8683 461.959 52.6154 461.837C52.3626 461.715 52.0785 461.653 51.7631 461.653C51.4279 461.653 51.1353 461.723 50.8853 461.862C50.6381 461.999 50.4464 462.19 50.31 462.438C50.1765 462.685 50.1097 462.974 50.1097 463.307H49.104C49.104 462.795 49.2219 462.347 49.4577 461.96C49.6935 461.574 50.0146 461.273 50.4208 461.057C50.8299 460.841 51.2887 460.733 51.7972 460.733C52.3086 460.733 52.7617 460.841 53.1566 461.057C53.5515 461.273 53.8612 461.564 54.0856 461.93C54.31 462.297 54.4222 462.705 54.4222 463.153C54.4222 463.474 54.364 463.788 54.2475 464.095C54.1339 464.399 53.935 464.739 53.6509 465.114C53.3697 465.486 52.979 465.94 52.479 466.477L50.5188 468.574V468.642H54.5756V469.58H49.07Z" fill="#808495"/>
<path d="M48.6261 408.109V409.063H43.1715V408.109H48.6261ZM53.826 404.222V412.95H52.7692V405.33H52.718L50.5874 406.745V405.671L52.7692 404.222H53.826Z" fill="#808495"/>
<path d="M51.6827 356.439C51.0407 356.439 50.4938 356.264 50.0421 355.915C49.5904 355.563 49.2452 355.053 49.0066 354.385C48.7679 353.715 48.6486 352.905 48.6486 351.956C48.6486 351.013 48.7679 350.208 49.0066 349.54C49.248 348.87 49.5946 348.358 50.0463 348.006C50.5009 347.651 51.0463 347.473 51.6827 347.473C52.3191 347.473 52.8631 347.651 53.3148 348.006C53.7694 348.358 54.1159 348.87 54.3546 349.54C54.5961 350.208 54.7168 351.013 54.7168 351.956C54.7168 352.905 54.5975 353.715 54.3588 354.385C54.1202 355.053 53.775 355.563 53.3233 355.915C52.8716 356.264 52.3248 356.439 51.6827 356.439ZM51.6827 355.502C52.3191 355.502 52.8134 355.195 53.1657 354.581C53.5179 353.968 53.6941 353.093 53.6941 351.956C53.6941 351.201 53.6131 350.557 53.4512 350.026C53.2921 349.495 53.062 349.09 52.7608 348.811C52.4625 348.533 52.1032 348.394 51.6827 348.394C51.052 348.394 50.5591 348.705 50.204 349.327C49.8489 349.946 49.6713 350.823 49.6713 351.956C49.6713 352.712 49.7509 353.354 49.91 353.882C50.0691 354.411 50.2978 354.813 50.5961 355.088C50.8972 355.364 51.2594 355.502 51.6827 355.502Z" fill="#808495"/>
<path d="M53.8249 290.963V299.69H52.7681V292.071H52.717L50.5863 293.486V292.412L52.7681 290.963H53.8249Z" fill="#808495"/>
<path d="M49.0705 243.061V242.294L51.9512 239.14C52.2892 238.771 52.5676 238.45 52.7864 238.177C53.0051 237.901 53.1671 237.643 53.2722 237.401C53.3801 237.157 53.4341 236.901 53.4341 236.634C53.4341 236.328 53.3603 236.062 53.2125 235.838C53.0676 235.613 52.8688 235.44 52.6159 235.318C52.3631 235.195 52.079 235.134 51.7637 235.134C51.4284 235.134 51.1358 235.204 50.8858 235.343C50.6387 235.48 50.4469 235.671 50.3105 235.919C50.177 236.166 50.1103 236.455 50.1103 236.788H49.1046C49.1046 236.276 49.2225 235.828 49.4583 235.441C49.6941 235.055 50.0151 234.754 50.4213 234.538C50.8304 234.322 51.2892 234.214 51.7978 234.214C52.3091 234.214 52.7623 234.322 53.1571 234.538C53.552 234.754 53.8617 235.045 54.0861 235.411C54.3105 235.778 54.4228 236.186 54.4228 236.634C54.4228 236.955 54.3645 237.269 54.248 237.576C54.1344 237.88 53.9355 238.22 53.6515 238.595C53.3702 238.967 52.9796 239.421 52.4796 239.958L50.5194 242.055V242.123H54.5762V243.061H49.0705Z" fill="#808495"/>
<mask id="mask0_1042_370" style="mask-type:luminance" maskUnits="userSpaceOnUse" x="73" y="211" width="757" height="284">
<path d="M829.863 211.274H73.0449V494.423H829.863V211.274Z" fill="white"/>
</mask>
<g mask="url(#mask0_1042_370)">
<path opacity="0.7" d="M78.7269 406.228C78.7269 407.736 78.1283 409.182 77.0628 410.248C75.9972 411.314 74.552 411.913 73.0451 411.913C71.5382 411.913 70.093 411.314 69.0274 410.248C67.9619 409.182 67.3633 407.736 67.3633 406.228C67.3633 404.72 67.9619 403.274 69.0274 402.207C70.093 401.141 71.5382 400.542 73.0451 400.542C74.552 400.542 75.9972 401.141 77.0628 402.207C78.1283 403.274 78.7269 404.72 78.7269 406.228Z" fill="#0068C9"/>
<path opacity="0.7" d="M116.569 295.944C116.569 297.452 115.97 298.898 114.905 299.964C113.839 301.031 112.394 301.63 110.887 301.63C109.38 301.63 107.935 301.031 106.869 299.964C105.804 298.898 105.205 297.452 105.205 295.944C105.205 294.436 105.804 292.99 106.869 291.924C107.935 290.857 109.38 290.258 110.887 290.258C112.394 290.258 113.839 290.857 114.905 291.924C115.97 292.99 116.569 294.436 116.569 295.944Z" fill="#0068C9"/>
<path opacity="0.7" d="M154.409 383.252C154.409 384.76 153.81 386.206 152.744 387.273C151.679 388.339 150.234 388.938 148.727 388.938C147.22 388.938 145.775 388.339 144.709 387.273C143.644 386.206 143.045 384.76 143.045 383.252C143.045 381.744 143.644 380.298 144.709 379.232C145.775 378.165 147.22 377.566 148.727 377.566C150.234 377.566 151.679 378.165 152.744 379.232C153.81 380.298 154.409 381.744 154.409 383.252Z" fill="#0068C9"/>
<path opacity="0.7" d="M192.25 344.805C192.25 346.313 191.652 347.759 190.586 348.825C189.521 349.892 188.075 350.491 186.569 350.491C185.062 350.491 183.616 349.892 182.551 348.825C181.485 347.759 180.887 346.313 180.887 344.805C180.887 343.297 181.485 341.851 182.551 340.784C183.616 339.718 185.062 339.119 186.569 339.119C188.075 339.119 189.521 339.718 190.586 340.784C191.652 341.851 192.25 343.297 192.25 344.805Z" fill="#0068C9"/>
<path opacity="0.7" d="M230.09 367.614C230.09 369.122 229.492 370.568 228.426 371.634C227.36 372.701 225.915 373.3 224.408 373.3C222.901 373.3 221.456 372.701 220.391 371.634C219.325 370.568 218.727 369.122 218.727 367.614C218.727 366.106 219.325 364.66 220.391 363.594C221.456 362.527 222.901 361.928 224.408 361.928C225.915 361.928 227.36 362.527 228.426 363.594C229.492 364.66 230.09 366.106 230.09 367.614Z" fill="#0068C9"/>
<path opacity="0.7" d="M267.932 303.597C267.932 305.105 267.333 306.551 266.268 307.618C265.202 308.684 263.757 309.283 262.25 309.283C260.743 309.283 259.298 308.684 258.233 307.618C257.167 306.551 256.568 305.105 256.568 303.597C256.568 302.089 257.167 300.643 258.233 299.577C259.298 298.511 260.743 297.912 262.25 297.912C263.757 297.912 265.202 298.511 266.268 299.577C267.333 300.643 267.932 302.089 267.932 303.597Z" fill="#0068C9"/>
<path opacity="0.7" d="M305.772 244.858C305.772 246.366 305.173 247.812 304.108 248.878C303.042 249.944 301.597 250.543 300.09 250.543C298.583 250.543 297.138 249.944 296.072 248.878C295.007 247.812 294.408 246.366 294.408 244.858C294.408 243.35 295.007 241.903 296.072 240.837C297.138 239.771 298.583 239.172 300.09 239.172C301.597 239.172 303.042 239.771 304.108 240.837C305.173 241.903 305.772 243.35 305.772 244.858Z" fill="#0068C9"/>
<path opacity="0.7" d="M343.614 322.52C343.614 324.028 343.015 325.474 341.949 326.541C340.884 327.607 339.439 328.206 337.932 328.206C336.425 328.206 334.98 327.607 333.914 326.541C332.849 325.474 332.25 324.028 332.25 322.52C332.25 321.012 332.849 319.566 333.914 318.5C334.98 317.434 336.425 316.834 337.932 316.834C339.439 316.834 340.884 317.434 341.949 318.5C343.015 319.566 343.614 321.012 343.614 322.52Z" fill="#0068C9"/>
<path opacity="0.7" d="M381.453 382.736C381.453 384.243 380.855 385.69 379.789 386.756C378.724 387.822 377.279 388.421 375.772 388.421C374.265 388.421 372.82 387.822 371.754 386.756C370.688 385.69 370.09 384.243 370.09 382.736C370.09 381.228 370.688 379.781 371.754 378.715C372.82 377.649 374.265 377.05 375.772 377.05C377.279 377.05 378.724 377.649 379.789 378.715C380.855 379.781 381.453 381.228 381.453 382.736Z" fill="#0068C9"/>
<path opacity="0.7" d="M419.295 415.661C419.295 417.169 418.697 418.615 417.631 419.681C416.566 420.747 415.12 421.347 413.613 421.347C412.107 421.347 410.661 420.747 409.596 419.681C408.53 418.615 407.932 417.169 407.932 415.661C407.932 414.153 408.53 412.707 409.596 411.64C410.661 410.574 412.107 409.975 413.613 409.975C415.12 409.975 416.566 410.574 417.631 411.64C418.697 412.707 419.295 414.153 419.295 415.661Z" fill="#0068C9"/>
<path opacity="0.7" d="M457.135 446.727C457.135 448.235 456.537 449.681 455.471 450.747C454.405 451.813 452.96 452.412 451.453 452.412C449.946 452.412 448.501 451.813 447.436 450.747C446.37 449.681 445.771 448.235 445.771 446.727C445.771 445.219 446.37 443.773 447.436 442.706C448.501 441.64 449.946 441.041 451.453 441.041C452.96 441.041 454.405 441.64 455.471 442.706C456.537 443.773 457.135 445.219 457.135 446.727Z" fill="#0068C9"/>
<path opacity="0.7" d="M494.977 385.196C494.977 386.704 494.378 388.15 493.313 389.216C492.247 390.283 490.802 390.882 489.295 390.882C487.788 390.882 486.343 390.283 485.277 389.216C484.212 388.15 483.613 386.704 483.613 385.196C483.613 383.688 484.212 382.242 485.277 381.176C486.343 380.109 487.788 379.51 489.295 379.51C490.802 379.51 492.247 380.109 493.313 381.176C494.378 382.242 494.977 383.688 494.977 385.196Z" fill="#0068C9"/>
<path opacity="0.7" d="M532.819 383.581C532.819 385.089 532.22 386.535 531.155 387.602C530.089 388.668 528.644 389.267 527.137 389.267C525.63 389.267 524.185 388.668 523.119 387.602C522.054 386.535 521.455 385.089 521.455 383.581C521.455 382.073 522.054 380.627 523.119 379.561C524.185 378.495 525.63 377.896 527.137 377.896C528.644 377.896 530.089 378.495 531.155 379.561C532.22 380.627 532.819 382.073 532.819 383.581Z" fill="#0068C9"/>
<path opacity="0.7" d="M570.659 339.914C570.659 341.422 570.06 342.868 568.994 343.935C567.929 345.001 566.484 345.6 564.977 345.6C563.47 345.6 562.025 345.001 560.959 343.935C559.894 342.868 559.295 341.422 559.295 339.914C559.295 338.406 559.894 336.96 560.959 335.894C562.025 334.828 563.47 334.229 564.977 334.229C566.484 334.229 567.929 334.828 568.994 335.894C570.06 336.96 570.659 338.406 570.659 339.914Z" fill="#0068C9"/>
<path opacity="0.7" d="M608.5 347.288C608.5 348.796 607.902 350.242 606.836 351.308C605.771 352.374 604.325 352.973 602.819 352.973C601.312 352.973 599.866 352.374 598.801 351.308C597.735 350.242 597.137 348.796 597.137 347.288C597.137 345.78 597.735 344.334 598.801 343.267C599.866 342.201 601.312 341.602 602.819 341.602C604.325 341.602 605.771 342.201 606.836 343.267C607.902 344.334 608.5 345.78 608.5 347.288Z" fill="#0068C9"/>
<path opacity="0.7" d="M646.34 388.184C646.34 389.692 645.742 391.138 644.676 392.205C643.61 393.271 642.165 393.87 640.658 393.87C639.151 393.87 637.706 393.271 636.641 392.205C635.575 391.138 634.977 389.692 634.977 388.184C634.977 386.676 635.575 385.23 636.641 384.164C637.706 383.098 639.151 382.499 640.658 382.499C642.165 382.499 643.61 383.098 644.676 384.164C645.742 385.23 646.34 386.676 646.34 388.184Z" fill="#0068C9"/>
<path opacity="0.7" d="M684.182 400.424C684.182 401.932 683.583 403.379 682.518 404.445C681.452 405.511 680.007 406.11 678.5 406.11C676.993 406.11 675.548 405.511 674.483 404.445C673.417 403.379 672.818 401.932 672.818 400.424C672.818 398.917 673.417 397.47 674.483 396.404C675.548 395.338 676.993 394.739 678.5 394.739C680.007 394.739 681.452 395.338 682.518 396.404C683.583 397.47 684.182 398.917 684.182 400.424Z" fill="#0068C9"/>
<path opacity="0.7" d="M722.022 390.119C722.022 391.627 721.423 393.073 720.358 394.14C719.292 395.206 717.847 395.805 716.34 395.805C714.833 395.805 713.388 395.206 712.322 394.14C711.257 393.073 710.658 391.627 710.658 390.119C710.658 388.611 711.257 387.165 712.322 386.099C713.388 385.033 714.833 384.434 716.34 384.434C717.847 384.434 719.292 385.033 720.358 386.099C721.423 387.165 722.022 388.611 722.022 390.119Z" fill="#0068C9"/>
<path opacity="0.7" d="M759.864 266.156C759.864 267.664 759.265 269.11 758.199 270.176C757.134 271.243 755.689 271.842 754.182 271.842C752.675 271.842 751.23 271.243 750.164 270.176C749.099 269.11 748.5 267.664 748.5 266.156C748.5 264.648 749.099 263.202 750.164 262.136C751.23 261.069 752.675 260.47 754.182 260.47C755.689 260.47 757.134 261.069 758.199 262.136C759.265 263.202 759.864 264.648 759.864 266.156Z" fill="#0068C9"/>
<path opacity="0.7" d="M797.703 393.628C797.703 395.136 797.105 396.582 796.039 397.648C794.974 398.714 793.529 399.313 792.022 399.313C790.515 399.313 789.07 398.714 788.004 397.648C786.938 396.582 786.34 395.136 786.34 393.628C786.34 392.12 786.938 390.673 788.004 389.607C789.07 388.541 790.515 387.942 792.022 387.942C793.529 387.942 794.974 388.541 796.039 389.607C797.105 390.673 797.703 392.12 797.703 393.628Z" fill="#0068C9"/>
<path opacity="0.7" d="M78.7269 408.969C78.7269 410.477 78.1283 411.923 77.0628 412.989C75.9972 414.056 74.552 414.655 73.0451 414.655C71.5382 414.655 70.093 414.056 69.0274 412.989C67.9619 411.923 67.3633 410.477 67.3633 408.969C67.3633 407.461 67.9619 406.015 69.0274 404.949C70.093 403.882 71.5382 403.283 73.0451 403.283C74.552 403.283 75.9972 403.882 77.0628 404.949C78.1283 406.015 78.7269 407.461 78.7269 408.969Z" fill="#83C9FF"/>
<path opacity="0.7" d="M116.569 339.425C116.569 340.933 115.97 342.38 114.905 343.446C113.839 344.512 112.394 345.111 110.887 345.111C109.38 345.111 107.935 344.512 106.869 343.446C105.804 342.38 105.205 340.933 105.205 339.425C105.205 337.918 105.804 336.471 106.869 335.405C107.935 334.339 109.38 333.74 110.887 333.74C112.394 333.74 113.839 334.339 114.905 335.405C115.97 336.471 116.569 337.918 116.569 339.425Z" fill="#83C9FF"/>
<path opacity="0.7" d="M154.409 322.442C154.409 323.95 153.81 325.396 152.744 326.462C151.679 327.529 150.234 328.128 148.727 328.128C147.22 328.128 145.775 327.529 144.709 326.462C143.644 325.396 143.045 323.95 143.045 322.442C143.045 320.934 143.644 319.488 144.709 318.422C145.775 317.355 147.22 316.756 148.727 316.756C150.234 316.756 151.679 317.355 152.744 318.422C153.81 319.488 154.409 320.934 154.409 322.442Z" fill="#83C9FF"/>
<path opacity="0.7" d="M192.25 421.82C192.25 423.328 191.652 424.774 190.586 425.84C189.521 426.907 188.075 427.506 186.569 427.506C185.062 427.506 183.616 426.907 182.551 425.84C181.485 424.774 180.887 423.328 180.887 421.82C180.887 420.312 181.485 418.866 182.551 417.8C183.616 416.733 185.062 416.134 186.569 416.134C188.075 416.134 189.521 416.733 190.586 417.8C191.652 418.866 192.25 420.312 192.25 421.82Z" fill="#83C9FF"/>
<path opacity="0.7" d="M230.09 281.387C230.09 282.895 229.492 284.341 228.426 285.407C227.36 286.474 225.915 287.073 224.408 287.073C222.901 287.073 221.456 286.474 220.391 285.407C219.325 284.341 218.727 282.895 218.727 281.387C218.727 279.879 219.325 278.433 220.391 277.366C221.456 276.3 222.901 275.701 224.408 275.701C225.915 275.701 227.36 276.3 228.426 277.366C229.492 278.433 230.09 279.879 230.09 281.387Z" fill="#83C9FF"/>
<path opacity="0.7" d="M267.932 298.046C267.932 299.554 267.333 301 266.268 302.066C265.202 303.133 263.757 303.732 262.25 303.732C260.743 303.732 259.298 303.133 258.233 302.066C257.167 301 256.568 299.554 256.568 298.046C256.568 296.538 257.167 295.092 258.233 294.026C259.298 292.959 260.743 292.36 262.25 292.36C263.757 292.36 265.202 292.959 266.268 294.026C267.333 295.092 267.932 296.538 267.932 298.046Z" fill="#83C9FF"/>
<path opacity="0.7" d="M305.772 294.71C305.772 296.218 305.173 297.664 304.108 298.731C303.042 299.797 301.597 300.396 300.09 300.396C298.583 300.396 297.138 299.797 296.072 298.731C295.007 297.664 294.408 296.218 294.408 294.71C294.408 293.202 295.007 291.756 296.072 290.69C297.138 289.623 298.583 289.024 300.09 289.024C301.597 289.024 303.042 289.623 304.108 290.69C305.173 291.756 305.772 293.202 305.772 294.71Z" fill="#83C9FF"/>
<path opacity="0.7" d="M343.614 372.996C343.614 374.504 343.015 375.95 341.949 377.016C340.884 378.082 339.439 378.681 337.932 378.681C336.425 378.681 334.98 378.082 333.914 377.016C332.849 375.95 332.25 374.504 332.25 372.996C332.25 371.488 332.849 370.042 333.914 368.975C334.98 367.909 336.425 367.31 337.932 367.31C339.439 367.31 340.884 367.909 341.949 368.975C343.015 370.042 343.614 371.488 343.614 372.996Z" fill="#83C9FF"/>
<path opacity="0.7" d="M381.453 366.564C381.453 368.072 380.855 369.518 379.789 370.584C378.724 371.65 377.279 372.249 375.772 372.249C374.265 372.249 372.82 371.65 371.754 370.584C370.688 369.518 370.09 368.072 370.09 366.564C370.09 365.056 370.688 363.61 371.754 362.543C372.82 361.477 374.265 360.878 375.772 360.878C377.279 360.878 378.724 361.477 379.789 362.543C380.855 363.61 381.453 365.056 381.453 366.564Z" fill="#83C9FF"/>
<path opacity="0.7" d="M419.295 290.081C419.295 291.589 418.697 293.035 417.631 294.101C416.566 295.167 415.12 295.766 413.613 295.766C412.107 295.766 410.661 295.167 409.596 294.101C408.53 293.035 407.932 291.589 407.932 290.081C407.932 288.573 408.53 287.127 409.596 286.06C410.661 284.994 412.107 284.395 413.613 284.395C415.12 284.395 416.566 284.994 417.631 286.06C418.697 287.127 419.295 288.573 419.295 290.081Z" fill="#83C9FF"/>
<path opacity="0.7" d="M457.135 368.506C457.135 370.013 456.537 371.46 455.471 372.526C454.405 373.592 452.96 374.191 451.453 374.191C449.946 374.191 448.501 373.592 447.436 372.526C446.37 371.46 445.771 370.013 445.771 368.506C445.771 366.998 446.37 365.551 447.436 364.485C448.501 363.419 449.946 362.82 451.453 362.82C452.96 362.82 454.405 363.419 455.471 364.485C456.537 365.551 457.135 366.998 457.135 368.506Z" fill="#83C9FF"/>
<path opacity="0.7" d="M494.977 410.407C494.977 411.915 494.378 413.361 493.313 414.427C492.247 415.494 490.802 416.093 489.295 416.093C487.788 416.093 486.343 415.494 485.277 414.427C484.212 413.361 483.613 411.915 483.613 410.407C483.613 408.899 484.212 407.453 485.277 406.386C486.343 405.32 487.788 404.721 489.295 404.721C490.802 404.721 492.247 405.32 493.313 406.386C494.378 407.453 494.977 408.899 494.977 410.407Z" fill="#83C9FF"/>
<path opacity="0.7" d="M532.819 358.853C532.819 360.361 532.22 361.807 531.155 362.873C530.089 363.939 528.644 364.538 527.137 364.538C525.63 364.538 524.185 363.939 523.119 362.873C522.054 361.807 521.455 360.361 521.455 358.853C521.455 357.345 522.054 355.899 523.119 354.832C524.185 353.766 525.63 353.167 527.137 353.167C528.644 353.167 530.089 353.766 531.155 354.832C532.22 355.899 532.819 357.345 532.819 358.853Z" fill="#83C9FF"/>
<path opacity="0.7" d="M570.659 288.515C570.659 290.023 570.06 291.469 568.994 292.536C567.929 293.602 566.484 294.201 564.977 294.201C563.47 294.201 562.025 293.602 560.959 292.536C559.894 291.469 559.295 290.023 559.295 288.515C559.295 287.007 559.894 285.561 560.959 284.495C562.025 283.429 563.47 282.83 564.977 282.83C566.484 282.83 567.929 283.429 568.994 284.495C570.06 285.561 570.659 287.007 570.659 288.515Z" fill="#83C9FF"/>
<path opacity="0.7" d="M608.5 321.307C608.5 322.815 607.902 324.261 606.836 325.328C605.771 326.394 604.325 326.993 602.819 326.993C601.312 326.993 599.866 326.394 598.801 325.328C597.735 324.261 597.137 322.815 597.137 321.307C597.137 319.799 597.735 318.353 598.801 317.287C599.866 316.221 601.312 315.622 602.819 315.622C604.325 315.622 605.771 316.221 606.836 317.287C607.902 318.353 608.5 319.799 608.5 321.307Z" fill="#83C9FF"/>
<path opacity="0.7" d="M646.34 330.825C646.34 332.333 645.742 333.779 644.676 334.845C643.61 335.912 642.165 336.511 640.658 336.511C639.151 336.511 637.706 335.912 636.641 334.845C635.575 333.779 634.977 332.333 634.977 330.825C634.977 329.317 635.575 327.871 636.641 326.804C637.706 325.738 639.151 325.139 640.658 325.139C642.165 325.139 643.61 325.738 644.676 326.804C645.742 327.871 646.34 329.317 646.34 330.825Z" fill="#83C9FF"/>
<path opacity="0.7" d="M684.182 323.945C684.182 325.452 683.583 326.899 682.518 327.965C681.452 329.031 680.007 329.63 678.5 329.63C676.993 329.63 675.548 329.031 674.483 327.965C673.417 326.899 672.818 325.452 672.818 323.945C672.818 322.437 673.417 320.99 674.483 319.924C675.548 318.858 676.993 318.259 678.5 318.259C680.007 318.259 681.452 318.858 682.518 319.924C683.583 320.99 684.182 322.437 684.182 323.945Z" fill="#83C9FF"/>
<path opacity="0.7" d="M722.022 260.856C722.022 262.364 721.423 263.81 720.358 264.877C719.292 265.943 717.847 266.542 716.34 266.542C714.833 266.542 713.388 265.943 712.322 264.877C711.257 263.81 710.658 262.364 710.658 260.856C710.658 259.348 711.257 257.902 712.322 256.836C713.388 255.769 714.833 255.17 716.34 255.17C717.847 255.17 719.292 255.769 720.358 256.836C721.423 257.902 722.022 259.348 722.022 260.856Z" fill="#83C9FF"/>
<path opacity="0.7" d="M759.864 338.287C759.864 339.795 759.265 341.241 758.199 342.307C757.134 343.373 755.689 343.973 754.182 343.973C752.675 343.973 751.23 343.373 750.164 342.307C749.099 341.241 748.5 339.795 748.5 338.287C748.5 336.779 749.099 335.333 750.164 334.266C751.23 333.2 752.675 332.601 754.182 332.601C755.689 332.601 757.134 333.2 758.199 334.266C759.265 335.333 759.864 336.779 759.864 338.287Z" fill="#83C9FF"/>
<path opacity="0.7" d="M797.703 382.59C797.703 384.098 797.105 385.544 796.039 386.61C794.974 387.677 793.529 388.276 792.022 388.276C790.515 388.276 789.07 387.677 788.004 386.61C786.938 385.544 786.34 384.098 786.34 382.59C786.34 381.082 786.938 379.636 788.004 378.57C789.07 377.503 790.515 376.904 792.022 376.904C793.529 376.904 794.974 377.503 796.039 378.57C797.105 379.636 797.703 381.082 797.703 382.59Z" fill="#83C9FF"/>
<path opacity="0.7" d="M78.7269 336.91C78.7269 338.418 78.1283 339.864 77.0628 340.93C75.9972 341.997 74.552 342.596 73.0451 342.596C71.5382 342.596 70.093 341.997 69.0274 340.93C67.9619 339.864 67.3633 338.418 67.3633 336.91C67.3633 335.402 67.9619 333.956 69.0274 332.889C70.093 331.823 71.5382 331.224 73.0451 331.224C74.552 331.224 75.9972 331.823 77.0628 332.889C78.1283 333.956 78.7269 335.402 78.7269 336.91Z" fill="#FF2B2B"/>
<path opacity="0.7" d="M116.569 471.382C116.569 472.889 115.97 474.336 114.905 475.402C113.839 476.468 112.394 477.067 110.887 477.067C109.38 477.067 107.935 476.468 106.869 475.402C105.804 474.336 105.205 472.889 105.205 471.382C105.205 469.874 105.804 468.427 106.869 467.361C107.935 466.295 109.38 465.696 110.887 465.696C112.394 465.696 113.839 466.295 114.905 467.361C115.97 468.427 116.569 469.874 116.569 471.382Z" fill="#FF2B2B"/>
<path opacity="0.7" d="M154.409 319.807C154.409 321.315 153.81 322.761 152.744 323.828C151.679 324.894 150.234 325.493 148.727 325.493C147.22 325.493 145.775 324.894 144.709 323.828C143.644 322.761 143.045 321.315 143.045 319.807C143.045 318.299 143.644 316.853 144.709 315.787C145.775 314.721 147.22 314.122 148.727 314.122C150.234 314.122 151.679 314.721 152.744 315.787C153.81 316.853 154.409 318.299 154.409 319.807Z" fill="#FF2B2B"/>
<path opacity="0.7" d="M192.25 422.962C192.25 424.47 191.652 425.916 190.586 426.982C189.521 428.049 188.075 428.648 186.569 428.648C185.062 428.648 183.616 428.049 182.551 426.982C181.485 425.916 180.887 424.47 180.887 422.962C180.887 421.454 181.485 420.008 182.551 418.942C183.616 417.875 185.062 417.276 186.569 417.276C188.075 417.276 189.521 417.875 190.586 418.942C191.652 420.008 192.25 421.454 192.25 422.962Z" fill="#FF2B2B"/>
<path opacity="0.7" d="M230.09 285.468C230.09 286.976 229.492 288.422 228.426 289.488C227.36 290.555 225.915 291.154 224.408 291.154C222.901 291.154 221.456 290.555 220.391 289.488C219.325 288.422 218.727 286.976 218.727 285.468C218.727 283.96 219.325 282.514 220.391 281.448C221.456 280.381 222.901 279.782 224.408 279.782C225.915 279.782 227.36 280.381 228.426 281.448C229.492 282.514 230.09 283.96 230.09 285.468Z" fill="#FF2B2B"/>
<path opacity="0.7" d="M267.932 347.104C267.932 348.612 267.333 350.058 266.268 351.125C265.202 352.191 263.757 352.79 262.25 352.79C260.743 352.79 259.298 352.191 258.233 351.125C257.167 350.058 256.568 348.612 256.568 347.104C256.568 345.596 257.167 344.15 258.233 343.084C259.298 342.017 260.743 341.418 262.25 341.418C263.757 341.418 265.202 342.017 266.268 343.084C267.333 344.15 267.932 345.596 267.932 347.104Z" fill="#FF2B2B"/>
<path opacity="0.7" d="M305.772 238.224C305.772 239.732 305.173 241.178 304.108 242.245C303.042 243.311 301.597 243.91 300.09 243.91C298.583 243.91 297.138 243.311 296.072 242.245C295.007 241.178 294.408 239.732 294.408 238.224C294.408 236.716 295.007 235.27 296.072 234.204C297.138 233.138 298.583 232.539 300.09 232.539C301.597 232.539 303.042 233.138 304.108 234.204C305.173 235.27 305.772 236.716 305.772 238.224Z" fill="#FF2B2B"/>
<path opacity="0.7" d="M343.614 308.88C343.614 310.388 343.015 311.834 341.949 312.9C340.884 313.967 339.439 314.566 337.932 314.566C336.425 314.566 334.98 313.967 333.914 312.9C332.849 311.834 332.25 310.388 332.25 308.88C332.25 307.372 332.849 305.926 333.914 304.86C334.98 303.793 336.425 303.194 337.932 303.194C339.439 303.194 340.884 303.793 341.949 304.86C343.015 305.926 343.614 307.372 343.614 308.88Z" fill="#FF2B2B"/>
<path opacity="0.7" d="M381.453 347.382C381.453 348.89 380.855 350.336 379.789 351.402C378.724 352.469 377.279 353.068 375.772 353.068C374.265 353.068 372.82 352.469 371.754 351.402C370.688 350.336 370.09 348.89 370.09 347.382C370.09 345.874 370.688 344.428 371.754 343.362C372.82 342.295 374.265 341.696 375.772 341.696C377.279 341.696 378.724 342.295 379.789 343.362C380.855 344.428 381.453 345.874 381.453 347.382Z" fill="#FF2B2B"/>
<path opacity="0.7" d="M419.295 449.306C419.295 450.814 418.697 452.26 417.631 453.327C416.566 454.393 415.12 454.992 413.613 454.992C412.107 454.992 410.661 454.393 409.596 453.327C408.53 452.26 407.932 450.814 407.932 449.306C407.932 447.798 408.53 446.352 409.596 445.286C410.661 444.22 412.107 443.621 413.613 443.621C415.12 443.621 416.566 444.22 417.631 445.286C418.697 446.352 419.295 447.798 419.295 449.306Z" fill="#FF2B2B"/>
<path opacity="0.7" d="M457.135 363.374C457.135 364.882 456.537 366.328 455.471 367.394C454.405 368.46 452.96 369.059 451.453 369.059C449.946 369.059 448.501 368.46 447.436 367.394C446.37 366.328 445.771 364.882 445.771 363.374C445.771 361.866 446.37 360.42 447.436 359.353C448.501 358.287 449.946 357.688 451.453 357.688C452.96 357.688 454.405 358.287 455.471 359.353C456.537 360.42 457.135 361.866 457.135 363.374Z" fill="#FF2B2B"/>
<path opacity="0.7" d="M494.977 305.435C494.977 306.943 494.378 308.389 493.313 309.455C492.247 310.521 490.802 311.12 489.295 311.12C487.788 311.12 486.343 310.521 485.277 309.455C484.212 308.389 483.613 306.943 483.613 305.435C483.613 303.927 484.212 302.481 485.277 301.414C486.343 300.348 487.788 299.749 489.295 299.749C490.802 299.749 492.247 300.348 493.313 301.414C494.378 302.481 494.977 303.927 494.977 305.435Z" fill="#FF2B2B"/>
<path opacity="0.7" d="M532.819 328.244C532.819 329.752 532.22 331.198 531.155 332.264C530.089 333.331 528.644 333.93 527.137 333.93C525.63 333.93 524.185 333.331 523.119 332.264C522.054 331.198 521.455 329.752 521.455 328.244C521.455 326.736 522.054 325.29 523.119 324.223C524.185 323.157 525.63 322.558 527.137 322.558C528.644 322.558 530.089 323.157 531.155 324.223C532.22 325.29 532.819 326.736 532.819 328.244Z" fill="#FF2B2B"/>
<path opacity="0.7" d="M570.659 423.688C570.659 425.196 570.06 426.642 568.994 427.709C567.929 428.775 566.484 429.374 564.977 429.374C563.47 429.374 562.025 428.775 560.959 427.709C559.894 426.642 559.295 425.196 559.295 423.688C559.295 422.18 559.894 420.734 560.959 419.668C562.025 418.601 563.47 418.002 564.977 418.002C566.484 418.002 567.929 418.601 568.994 419.668C570.06 420.734 570.659 422.18 570.659 423.688Z" fill="#FF2B2B"/>
<path opacity="0.7" d="M608.5 409.201C608.5 410.709 607.902 412.155 606.836 413.222C605.771 414.288 604.325 414.887 602.819 414.887C601.312 414.887 599.866 414.288 598.801 413.222C597.735 412.155 597.137 410.709 597.137 409.201C597.137 407.693 597.735 406.247 598.801 405.181C599.866 404.115 601.312 403.516 602.819 403.516C604.325 403.516 605.771 404.115 606.836 405.181C607.902 406.247 608.5 407.693 608.5 409.201Z" fill="#FF2B2B"/>
<path opacity="0.7" d="M646.34 333.2C646.34 334.708 645.742 336.154 644.676 337.22C643.61 338.287 642.165 338.886 640.658 338.886C639.151 338.886 637.706 338.287 636.641 337.22C635.575 336.154 634.977 334.708 634.977 333.2C634.977 331.692 635.575 330.246 636.641 329.179C637.706 328.113 639.151 327.514 640.658 327.514C642.165 327.514 643.61 328.113 644.676 329.179C645.742 330.246 646.34 331.692 646.34 333.2Z" fill="#FF2B2B"/>
<path opacity="0.7" d="M684.182 450.944C684.182 452.452 683.583 453.898 682.518 454.964C681.452 456.031 680.007 456.63 678.5 456.63C676.993 456.63 675.548 456.031 674.483 454.964C673.417 453.898 672.818 452.452 672.818 450.944C672.818 449.436 673.417 447.99 674.483 446.924C675.548 445.857 676.993 445.258 678.5 445.258C680.007 445.258 681.452 445.857 682.518 446.924C683.583 447.99 684.182 449.436 684.182 450.944Z" fill="#FF2B2B"/>
<path opacity="0.7" d="M722.022 311.903C722.022 313.411 721.423 314.858 720.358 315.924C719.292 316.99 717.847 317.589 716.34 317.589C714.833 317.589 713.388 316.99 712.322 315.924C711.257 314.858 710.658 313.411 710.658 311.903C710.658 310.396 711.257 308.949 712.322 307.883C713.388 306.817 714.833 306.218 716.34 306.218C717.847 306.218 719.292 306.817 720.358 307.883C721.423 308.949 722.022 310.396 722.022 311.903Z" fill="#FF2B2B"/>
<path opacity="0.7" d="M759.864 349.435C759.864 350.943 759.265 352.389 758.199 353.456C757.134 354.522 755.689 355.121 754.182 355.121C752.675 355.121 751.23 354.522 750.164 353.456C749.099 352.389 748.5 350.943 748.5 349.435C748.5 347.927 749.099 346.481 750.164 345.415C751.23 344.349 752.675 343.75 754.182 343.75C755.689 343.75 757.134 344.349 758.199 345.415C759.265 346.481 759.864 347.927 759.864 349.435Z" fill="#FF2B2B"/>
<path opacity="0.7" d="M797.703 384.503C797.703 386.011 797.105 387.457 796.039 388.524C794.974 389.59 793.529 390.189 792.022 390.189C790.515 390.189 789.07 389.59 788.004 388.524C786.938 387.457 786.34 386.011 786.34 384.503C786.34 382.995 786.938 381.549 788.004 380.483C789.07 379.416 790.515 378.817 792.022 378.817C793.529 378.817 794.974 379.416 796.039 380.483C797.105 381.549 797.703 382.995 797.703 384.503Z" fill="#FF2B2B"/>
</g>
<path opacity="0.7" d="M94.6371 568.337C94.6371 569.845 94.0385 571.291 92.9729 572.357C91.9074 573.424 90.4622 574.023 88.9553 574.023C87.4483 574.023 86.0032 573.424 84.9376 572.357C83.8721 571.291 83.2734 569.845 83.2734 568.337C83.2734 566.829 83.8721 565.383 84.9376 564.317C86.0032 563.25 87.4483 562.651 88.9553 562.651C90.4622 562.651 91.9074 563.25 92.9729 564.317C94.0385 565.383 94.6371 566.829 94.6371 568.337Z" fill="#0068C9"/>
<path d="M104.776 571.145C104.292 571.145 103.853 571.054 103.459 570.871C103.064 570.686 102.751 570.419 102.519 570.071C102.287 569.72 102.171 569.295 102.171 568.798C102.171 568.361 102.257 568.006 102.43 567.734C102.602 567.459 102.832 567.244 103.121 567.088C103.409 566.932 103.727 566.816 104.075 566.74C104.426 566.66 104.779 566.597 105.134 566.551C105.598 566.491 105.974 566.447 106.263 566.417C106.554 566.384 106.766 566.329 106.899 566.253C107.035 566.177 107.103 566.044 107.103 565.855V565.815C107.103 565.325 106.969 564.944 106.7 564.672C106.435 564.4 106.032 564.264 105.492 564.264C104.932 564.264 104.493 564.387 104.175 564.632C103.856 564.877 103.633 565.139 103.503 565.418L102.39 565.02C102.589 564.556 102.854 564.195 103.185 563.936C103.52 563.674 103.885 563.492 104.279 563.389C104.677 563.283 105.068 563.23 105.452 563.23C105.698 563.23 105.979 563.26 106.297 563.32C106.619 563.376 106.929 563.494 107.227 563.672C107.529 563.851 107.779 564.122 107.978 564.483C108.177 564.844 108.276 565.328 108.276 565.935V570.966H107.103V569.932H107.043C106.964 570.097 106.831 570.275 106.645 570.464C106.46 570.653 106.213 570.813 105.905 570.946C105.596 571.079 105.22 571.145 104.776 571.145ZM104.955 570.091C105.419 570.091 105.81 570 106.128 569.817C106.45 569.635 106.692 569.4 106.854 569.111C107.02 568.823 107.103 568.52 107.103 568.202V567.128C107.053 567.187 106.944 567.242 106.775 567.292C106.609 567.338 106.417 567.38 106.198 567.416C105.983 567.449 105.772 567.479 105.567 567.506C105.364 567.529 105.2 567.549 105.074 567.565C104.769 567.605 104.484 567.67 104.219 567.759C103.957 567.845 103.745 567.976 103.583 568.152C103.424 568.324 103.344 568.56 103.344 568.858C103.344 569.266 103.495 569.574 103.797 569.783C104.102 569.988 104.488 570.091 104.955 570.091Z" fill="#808495"/>
<path opacity="0.7" d="M133.274 568.337C133.274 569.845 132.675 571.291 131.61 572.357C130.544 573.424 129.099 574.023 127.592 574.023C126.085 574.023 124.64 573.424 123.574 572.357C122.509 571.291 121.91 569.845 121.91 568.337C121.91 566.829 122.509 565.383 123.574 564.317C124.64 563.25 126.085 562.651 127.592 562.651C129.099 562.651 130.544 563.25 131.61 564.317C132.675 565.383 133.274 566.829 133.274 568.337Z" fill="#83C9FF"/>
<path d="M141.325 570.966V560.784H142.498V564.543H142.597C142.684 564.41 142.803 564.241 142.955 564.035C143.111 563.827 143.333 563.641 143.622 563.479C143.913 563.313 144.308 563.23 144.805 563.23C145.448 563.23 146.015 563.391 146.505 563.712C146.996 564.034 147.378 564.489 147.654 565.079C147.929 565.669 148.066 566.365 148.066 567.168C148.066 567.976 147.929 568.677 147.654 569.271C147.378 569.86 146.997 570.318 146.51 570.643C146.023 570.964 145.461 571.125 144.825 571.125C144.334 571.125 143.941 571.044 143.646 570.881C143.352 570.716 143.124 570.528 142.965 570.32C142.806 570.107 142.684 569.932 142.597 569.793H142.458V570.966H141.325ZM142.478 567.148C142.478 567.724 142.563 568.233 142.732 568.674C142.901 569.111 143.148 569.454 143.472 569.703C143.797 569.948 144.195 570.071 144.666 570.071C145.156 570.071 145.566 569.942 145.894 569.683C146.225 569.421 146.474 569.07 146.639 568.629C146.808 568.185 146.893 567.691 146.893 567.148C146.893 566.611 146.81 566.127 146.644 565.696C146.482 565.262 146.235 564.919 145.904 564.667C145.575 564.412 145.163 564.284 144.666 564.284C144.188 564.284 143.787 564.405 143.463 564.647C143.138 564.886 142.892 565.22 142.727 565.651C142.561 566.079 142.478 566.578 142.478 567.148Z" fill="#808495"/>
<path opacity="0.7" d="M171.911 568.337C171.911 569.845 171.312 571.291 170.246 572.357C169.181 573.424 167.736 574.023 166.229 574.023C164.722 574.023 163.277 573.424 162.211 572.357C161.145 571.291 160.547 569.845 160.547 568.337C160.547 566.829 161.145 565.383 162.211 564.317C163.277 563.25 164.722 562.651 166.229 562.651C167.736 562.651 169.181 563.25 170.246 564.317C171.312 565.383 171.911 566.829 171.911 568.337Z" fill="#FF2B2B"/>
<path d="M182.905 571.125C182.189 571.125 181.572 570.956 181.055 570.618C180.538 570.28 180.14 569.814 179.862 569.221C179.584 568.628 179.444 567.95 179.444 567.187C179.444 566.412 179.587 565.727 179.872 565.134C180.16 564.538 180.561 564.072 181.075 563.737C181.592 563.399 182.195 563.23 182.885 563.23C183.422 563.23 183.906 563.329 184.336 563.528C184.767 563.727 185.12 564.006 185.395 564.364C185.671 564.722 185.841 565.139 185.907 565.616H184.734C184.645 565.268 184.446 564.96 184.138 564.692C183.833 564.42 183.422 564.284 182.905 564.284C182.447 564.284 182.046 564.403 181.702 564.642C181.36 564.877 181.093 565.21 180.901 565.641C180.712 566.069 180.618 566.571 180.618 567.148C180.618 567.738 180.711 568.251 180.896 568.689C181.085 569.126 181.35 569.466 181.692 569.708C182.036 569.95 182.441 570.071 182.905 570.071C183.21 570.071 183.486 570.018 183.735 569.912C183.983 569.806 184.194 569.653 184.366 569.454C184.539 569.256 184.661 569.017 184.734 568.739H185.907C185.841 569.189 185.677 569.595 185.415 569.957C185.157 570.315 184.814 570.6 184.386 570.812C183.962 571.021 183.468 571.125 182.905 571.125Z" fill="#808495"/>
</g>
<defs>
<clipPath id="clip0_1042_370">
<rect width="800" height="398" fill="white" transform="translate(31 209)"/>
</clipPath>
</defs>
</svg>
